<?xml version="1.0" standalone="no"?><!DOCTYPE svg PUBLIC "-//W3C//DTD SVG 1.1//EN" "http://www.w3.org/Graphics/SVG/1.1/DTD/svg11.dtd"><svg t="1553068640359" class="icon" style="" viewBox="0 0 1024 1024" version="1.1" xmlns="http://www.w3.org/2000/svg" p-id="3332" xmlns:xlink="http://www.w3.org/1999/xlink" width="16" height="16"><defs><style type="text/css"></style></defs><path d="M992 576H416c-17.664 0-32 14.336-32 32v384c0 17.664 14.336 32 32 32h576c17.664 0 32-14.336 32-32V608c0-17.664-14.336-32-32-32z m-544 64h58.112A95.744 95.744 0 0 1 448 698.112V640z m0 320v-58.112A95.744 95.744 0 0 1 506.112 960H448z m387.264 0H572.736C560 897.408 510.592 848 448 835.264V764.8C510.592 752 560 702.592 572.736 640H835.2c12.736 62.592 62.144 112 124.736 124.736v70.464c-62.528 12.8-111.936 62.208-124.672 124.8zM960 960h-58.112a95.744 95.744 0 0 1 58.112-58.112V960z m0-261.888A95.744 95.744 0 0 1 901.888 640H960v58.112zM608 0c17.664 0 32 14.336 32 32v384c0 17.664-14.336 32-32 32H32c-17.664 0-32-14.336-32-32V32c0-17.664 14.336-32 32-32h576zM64 64v58.112A95.744 95.744 0 0 0 122.112 64H64z m0 320h58.112A95.744 95.744 0 0 0 64 325.888V384z m512 0v-58.112A95.744 95.744 0 0 0 517.888 384H576z m0-124.8v-70.464C513.408 176 464 126.592 451.2 64H188.736C176 126.592 126.592 176 64 188.736v70.528C126.592 272 176 321.408 188.736 384h262.528C464 321.408 513.408 272 576 259.2z m0-137.088V64h-58.112A95.744 95.744 0 0 0 576 122.112zM288 832c17.664 0 32 14.336 32 32s-14.336 32-32 32c-88.256 0-160-71.808-160-160V621.248l-73.344 73.408a32.024 32.024 0 0 1-45.248-45.312l127.936-127.936a33.16 33.16 0 0 1 10.432-6.976 31.744 31.744 0 0 1 24.448 0c3.904 1.664 7.488 4.032 10.432 6.976l128 128a32.024 32.024 0 0 1 0 45.248A32.144 32.144 0 0 1 288 704a31.936 31.936 0 0 1-22.656-9.408L192 621.248V736c0 52.928 43.072 96 96 96z m726.592-502.592a32.024 32.024 0 0 1 0 45.248l-127.936 127.936a30.504 30.504 0 0 1-10.432 6.976c-3.904 1.6-8.064 2.432-12.224 2.432s-8.32-0.832-12.224-2.432a33.16 33.16 0 0 1-10.432-6.976L713.408 374.656a32.024 32.024 0 0 1 0-45.248 32.024 32.024 0 0 1 45.248 0L832 402.752V288c0-52.928-43.072-96-96-96-17.664 0-32-14.336-32-32s14.336-32 32-32c88.256 0 160 71.808 160 160v114.752l73.344-73.408a32.024 32.024 0 0 1 45.248 0.064zM704 704c52.928 0 96 43.072 96 96s-43.072 96-96 96-96-43.072-96-96 43.072-96 96-96z m0 128c17.6 0 32-14.336 32-32s-14.4-32-32-32-32 14.336-32 32 14.4 32 32 32zM320 128c52.928 0 96 43.072 96 96s-43.072 96-96 96-96-43.072-96-96 43.072-96 96-96z m0 128c17.6 0 32-14.336 32-32s-14.4-32-32-32-32 14.336-32 32 14.4 32 32 32z" fill="#c5c5c5" p-id="3333"></path></svg>