<?xml version="1.0" encoding="UTF-8"?>
<svg width="12px" height="12px" viewBox="0 0 12 12" version="1.1" xmlns="http://www.w3.org/2000/svg" xmlns:xlink="http://www.w3.org/1999/xlink">
    <!-- Generator: Sketch 52.4 (67378) - http://www.bohemiancoding.com/sketch -->
    <title>分组 copy</title>
    <desc>Created with Sketch.</desc>
    <g id="页面-1" stroke="none" stroke-width="1" fill="none" fill-rule="evenodd">
        <g id="登录页面账号已填写" transform="translate(-1085.000000, -332.000000)" fill="#1989FA">
            <g id="分组-copy" transform="translate(1085.000000, 332.000000)">
                <path d="M10.8479066,11.6546528 C10.6700413,11.6546528 10.4159481,11.5536816 10.2889014,11.4274675 L0.247740957,1.38204437 C-0.0825803191,1.05388772 -0.0825803191,0.574274146 0.247740957,0.246117491 C0.578062234,-0.0820391637 1.06083948,-0.0820391637 1.39116076,0.246117491 L11.4069119,10.2410549 C11.7372332,10.5692116 11.7372332,11.0488252 11.4069119,11.3769818 C11.2798652,11.5789244 11.0765906,11.6546528 10.8479066,11.6546528 Z" id="路径-copy"></path>
                <path d="M10.8479066,-2.25312364e-14 C11.0765906,-2.25312364e-14 11.2798652,0.0757284588 11.4069119,0.277671016 C11.7372332,0.60582767 11.7372332,1.08544124 11.4069119,1.4135979 L1.39116076,11.4085353 C1.06083948,11.736692 0.578062234,11.736692 0.247740957,11.4085353 C-0.0825803191,11.0803787 -0.0825803191,10.6007651 0.247740957,10.2726085 L10.2889014,0.227185376 C10.4159481,0.100971278 10.6700413,-2.25312364e-14 10.8479066,-2.25312364e-14 Z" id="路径-copy-2"></path>
            </g>
        </g>
    </g>
</svg>