<?xml version="1.0" encoding="UTF-8"?>
<svg width="18px" height="11px" viewBox="0 0 18 11" version="1.1" xmlns="http://www.w3.org/2000/svg" xmlns:xlink="http://www.w3.org/1999/xlink">
    <!-- Generator: Sketch 52.4 (67378) - http://www.bohemiancoding.com/sketch -->
    <title>积分商城－不可见</title>
    <desc>Created with Sketch.</desc>
    <g id="页面-1" stroke="none" stroke-width="1" fill="none" fill-rule="evenodd">
        <g id="登录页面账号和密码都填写-不可见" transform="translate(-1082.000000, -352.000000)" fill="#1989FA" stroke="#1989FA" stroke-width="0.6">
            <g id="积分商城－不可见" transform="translate(1083.000000, 353.000000)">
                <path d="M15.8669684,5.30561656 L14.1641633,3.1785473 C14.8027152,2.50684122 15.3348418,1.72318413 15.760543,0.827576019 C15.8669684,0.603673992 15.760543,0.267820952 15.5476924,0.043918925 C15.3348418,-0.0680320884 15.0155658,0.043918925 14.8027152,0.267820952 C13.5256114,3.06659629 10.8649785,4.74586149 7.99149502,4.74586149 C5.1180115,4.74586149 2.45737862,3.06659629 1.18027483,0.379771965 C1.07384952,0.043918925 0.754573572,-0.0680320884 0.435297626,0.155869938 C0.222446995,0.267820952 0.11602168,0.603673992 0.222446995,0.827576019 C0.648148257,1.72318413 1.18027483,2.39489021 1.81882673,3.06659629 L0.11602168,5.19366554 C-0.0968289507,5.41756757 0.0095963647,5.75342061 0.222446995,5.97732264 C0.328872311,6.08927365 0.435297626,6.08927365 0.541722942,6.08927365 C0.648148257,6.08927365 0.860998888,5.97732264 0.967424203,5.86537162 L2.56380393,3.85025338 C3.09593051,4.29805744 3.62805709,4.63391048 4.26660898,4.96976352 L3.41520646,7.54463683 C3.30878114,7.88048987 3.41520646,8.10439189 3.7344824,8.21634291 C3.84090772,8.21634291 3.84090772,8.21634291 3.94733303,8.21634291 C4.16018366,8.21634291 4.3730343,8.10439189 4.47945961,7.88048987 L5.33086213,5.30561656 C5.96941403,5.6414696 6.71439123,5.75342061 7.45936844,5.86537162 L7.45936844,8.44024493 C7.45936844,8.77609797 7.67221907,9 7.99149502,9 C8.31077096,9 8.52362159,8.77609797 8.52362159,8.44024493 L8.52362159,5.86537162 C9.2685988,5.86537162 10.013576,5.6414696 10.7585532,5.41756757 L11.6099557,7.88048987 C11.7163811,8.10439189 11.9292317,8.21634291 12.1420823,8.21634291 C12.2485076,8.21634291 12.2485076,8.21634291 12.3549329,8.21634291 C12.6742089,8.10439189 12.7806342,7.76853885 12.6742089,7.54463683 L11.8228064,4.96976352 C12.4613583,4.63391048 12.9934848,4.29805744 13.5256114,3.85025338 L15.2284165,5.97732264 C15.3348418,6.08927365 15.4412671,6.20122466 15.6541177,6.20122466 C15.760543,6.20122466 15.8669684,6.20122466 15.9733937,6.08927365 C15.9733937,5.86537162 16.079819,5.52951858 15.8669684,5.30561656 Z" id="路径"></path>
            </g>
        </g>
    </g>
</svg>