<?xml version="1.0" encoding="UTF-8"?>
<svg width="18px" height="12px" viewBox="0 0 18 12" version="1.1" xmlns="http://www.w3.org/2000/svg" xmlns:xlink="http://www.w3.org/1999/xlink">
    <!-- Generator: Sketch 52.4 (67378) - http://www.bohemiancoding.com/sketch -->
    <title>可见</title>
    <desc>Created with Sketch.</desc>
    <g id="页面-1" stroke="none" stroke-width="1" fill="none" fill-rule="evenodd">
        <g id="登录页面账号和密码都填写-可见" transform="translate(-1082.000000, -341.000000)" fill="#1989FA" fill-rule="nonzero" stroke="#1989FA" stroke-width="0.9">
            <g id="可见" transform="translate(1083.000000, 342.000000)">
                <path d="M7.98994286,10 C3.57988572,10 0,7.10128478 0,5.00885277 C0,2.91596677 3.57988572,0 7.98994286,0 C12.4196571,0 16,2.98224906 16,5.00885277 C16,7.03545648 12.4196571,10 7.98994286,10 Z M7.98994286,0.895264896 C3.90217143,0.895264896 0.914285714,3.6005811 0.914285714,5.00885277 C0.914285714,6.4107686 3.90217143,9.10428111 7.98994286,9.10428111 C12.0891429,9.10428111 15.0857143,6.4107686 15.0857143,5.00885277 C15.0857143,3.6005811 12.0891429,0.895264896 7.98994286,0.895264896 Z M8.21897143,8.20856222 C6.45394286,8.20856222 5.02857143,6.78303899 5.02857143,5.0347301 C5.02857143,3.27007763 6.45394286,1.85272619 8.21897143,1.85272619 C9.99360001,1.85272619 11.4285714,3.27007763 11.4285714,5.0347301 C11.4285714,6.78303899 9.99360001,8.20856222 8.21897143,8.20856222 Z M8.21897143,2.76070277 C6.96411429,2.76070277 5.94285714,3.78081445 5.94285714,5.0347301 C5.94285714,6.28410587 6.96411429,7.30058565 8.21897143,7.30058565 C9.4848,7.30058565 10.5142857,6.28410587 10.5142857,5.0347301 C10.5142857,3.78081445 9.4848,2.76070277 8.21897143,2.76070277 Z" id="形状"></path>
            </g>
        </g>
    </g>
</svg>