<?xml version="1.0" encoding="UTF-8"?>
<svg width="20px" height="20px" viewBox="0 0 20 20" version="1.1" xmlns="http://www.w3.org/2000/svg" xmlns:xlink="http://www.w3.org/1999/xlink">
    <!-- Generator: Sketch 52.4 (67378) - http://www.bohemiancoding.com/sketch -->
    <title>统计</title>
    <desc>Created with Sketch.</desc>
    <g id="加壳" stroke="none" stroke-width="1" fill="none" fill-rule="evenodd">
        <g id="首页2-copy-4" transform="translate(-368.000000, -9.000000)" fill="#FFFFFF">
            <g id="分组-2-copy-6" transform="translate(335.000000, 0.000000)">
                <g id="统计" transform="translate(33.000000, 9.000000)">
                    <path d="M10,9.14796977 L10,0.448431153 C10,0.179372987 9.81818189,0 9.54545406,0 C4.27273236,0.269050284 0,4.66368452 0,9.95514427 C0,15.5156885 4.45455926,20 10,20 C15.2727137,20 19.5454461,15.9641275 20,10.8520223 C20,10.5829642 19.8181819,10.4035912 19.5454541,10.4035912 L11.1818162,10.4035912 C10.5454541,10.3139052 10,9.77578968 10,9.14798554 L10,9.14796977 Z" id="路径"></path>
                    <path d="M13.1285622,8 L19.1186681,8 C19.7263592,8 20.0736134,7.4807695 19.9867986,6.96153899 C19.1186681,3.58654072 16.5142819,0.903858237 13.1285698,0.0384571627 C12.6076911,-0.134619756 12,0.298072414 12,0.90384049 L12,6.96152125 C12,7.48075175 12.5208788,7.99998225 13.1285698,7.99998225 L13.1285622,8 Z" id="路径"></path>
                </g>
            </g>
        </g>
    </g>
</svg>