<?xml version="1.0" encoding="UTF-8"?>
<svg width="23px" height="21px" viewBox="0 0 23 21" version="1.1" xmlns="http://www.w3.org/2000/svg" xmlns:xlink="http://www.w3.org/1999/xlink">
    <!-- Generator: Sketch 52.4 (67378) - http://www.bohemiancoding.com/sketch -->
    <title>分组 11</title>
    <desc>Created with Sketch.</desc>
    <g id="加壳" stroke="none" stroke-width="1" fill="none" fill-rule="evenodd">
        <g id="首页2-copy-4" transform="translate(-281.000000, -8.000000)">
            <g id="分组-2-copy-2" transform="translate(249.000000, 0.000000)">
                <g id="分组-11" transform="translate(32.000000, 9.000000)">
                    <path d="M0.0423453003,20 C-0.0384289984,19.3614322 -0.00344746244,18.7134521 0.145597985,18.0874003 C0.447739,16.9372903 1.22678888,15.8165069 2.97446728,14.6417456 C4.06327518,16.0634447 6.12917494,17.0248449 8.50314005,17.0248449 C10.8398665,17.0248449 12.8761446,16.0923462 13.9776475,14.707624 C15.6419621,15.9746151 16.4899881,17.0584216 16.8738003,18.1137516 C17.0946933,18.7202583 16.9584336,19.4810479 16.9584336,20 L0.0444611404,20 L0.0423453003,20 Z M8.50314005,16.1748006 C6.41227345,16.1748006 4.59223352,15.3906347 3.62995248,14.2311742 C4.39531813,13.7809488 5.21015329,13.4215225 6.05808293,13.1601183 C5.42451427,12.6447573 4.91333737,11.9939823 4.56176552,11.255169 C6.29888667,11.0091672 7.98623368,10.4882918 9.56105677,9.71191356 C10.8707936,9.06391712 12.0625796,8.1990974 13.0864584,7.15370518 C13.133179,7.47745829 13.1570769,7.80412121 13.1579736,8.13125614 C13.1579736,10.2733678 12.2604371,12.1434653 10.9211145,13.1830695 C11.7617913,13.4581256 12.5683734,13.8288894 13.3251244,14.2881272 C12.3509947,15.416136 10.5588838,16.1748006 8.50314005,16.1748006 Z M4.21561518,10.4268008 C4.1423806,10.2010589 4.08024113,9.9718369 4.02942184,9.73996503 C5.81972778,9.46826137 7.54873209,8.88335773 9.13789008,8.01182493 C10.4014471,7.34005502 11.5622304,6.48923255 12.5845828,5.48549319 C12.6964273,5.71307675 12.7914725,5.94860636 12.8689508,6.19017994 C11.8266122,7.31033941 10.594378,8.23554515 9.22971725,8.92264741 C7.66149955,9.72152312 5.96316879,10.2309962 4.21561518,10.4268008 Z M3.89231583,8.89672106 C3.8651473,8.64260619 3.85102305,8.3872549 3.84999917,8.13168118 C3.84999917,4.86241071 5.93409511,3.00123866 8.50483271,3.00123866 C9.93928062,2.96730284 11.3014689,3.63238115 12.1609929,4.78633174 C11.1537645,5.74184284 10.0264886,6.56100104 8.80782007,7.22298379 C7.29079459,8.09238733 5.62138067,8.66048554 3.89062317,8.89629603 L3.89231583,8.89672106 Z" id="形状" fill="#FFFFFF" fill-rule="nonzero"></path>
                    <path d="M13,0 C15.0351736,0.250507683 17.8890331,1.91750664 18.2373162,5.55813815 C18.469505,7.98522583 18.0476734,10.0915702 16.9718214,11.8771714 C20.0879379,14.0600203 21.7570114,15.7862164 21.979042,17.05576 C22.032153,17.715269 21.9843201,18.363349 21.8355431,19" id="路径-13" stroke="#FFFFFF" stroke-linecap="round"></path>
                </g>
            </g>
        </g>
    </g>
</svg>