<?xml version="1.0" encoding="UTF-8"?>
<svg width="21px" height="20px" viewBox="0 0 21 20" version="1.1" xmlns="http://www.w3.org/2000/svg" xmlns:xlink="http://www.w3.org/1999/xlink">
    <!-- Generator: Sketch 52.4 (67378) - http://www.bohemiancoding.com/sketch -->
    <title>合并形状</title>
    <desc>Created with Sketch.</desc>
    <g id="加壳" stroke="none" stroke-width="1" fill="none" fill-rule="evenodd">
        <g id="首页2-copy-4" transform="translate(-453.000000, -9.000000)" fill="#0071E7">
            <g id="分组-2-copy-5" transform="translate(421.000000, 0.000000)">
                <path d="M49.5205797,23.4652572 C49.5245724,23.4691048 49.5285491,23.47298 49.5325097,23.4768829 L52.5576052,26.4579227 C53.1327351,27.0246766 53.14926,27.960449 52.5945146,28.5480287 C52.0397692,29.1356084 51.1238244,29.152491 50.5486945,28.585737 L47.6829118,25.7616899 C46.0180364,27.2878453 43.8173927,28.2161925 41.4045161,28.2161925 C36.2105453,28.2161925 32,23.9145013 32,18.6080963 C32,13.3016912 36.2105453,9 41.4045161,9 C46.5984869,9 50.8090322,13.3016912 50.8090322,18.6080963 C50.8090322,20.3801177 50.3394891,22.0400974 49.5205797,23.4652572 Z M35.4164626,19.1979188 C35.225875,17.1481861 35.7219896,15.5775917 36.9027213,14.4139221 C38.1443546,13.1902311 39.3009251,12.5493606 40.366653,12.4583742 C40.7457048,12.4260126 41.028254,12.0738459 40.9977442,11.6717877 C40.9672345,11.2697295 40.6352192,10.9700311 40.2561674,11.0023927 C38.8440917,11.1229486 37.4157462,11.9144129 35.965351,13.3438492 C34.4540543,14.8333069 33.814967,16.8565231 34.0460042,19.341284 C34.0833281,19.742695 34.4203726,20.0360095 34.7988142,19.9964203 C35.1772559,19.9568311 35.4537864,19.5993298 35.4164626,19.1979188 Z" id="合并形状"></path>
            </g>
        </g>
    </g>
</svg>