<?xml version="1.0" encoding="UTF-8"?>
<svg width="20px" height="20px" viewBox="0 0 20 20" version="1.1" xmlns="http://www.w3.org/2000/svg" xmlns:xlink="http://www.w3.org/1999/xlink">
    <!-- Generator: Sketch 52.4 (67378) - http://www.bohemiancoding.com/sketch -->
    <!--<title>不良事件</title>-->
    <desc>Created with Sketch.</desc>
    <g id="页面-1" stroke="none" stroke-width="1" fill="none" fill-rule="evenodd">
        <g id="电子病历-copy" transform="translate(-514.000000, -8.000000)" fill="#FF7676">
            <path d="M516,8 L532,8 C533.104569,8 534,8.8954305 534,10 L534,26 C534,27.1045695 533.104569,28 532,28 L516,28 C514.895431,28 514,27.1045695 514,26 L514,10 C514,8.8954305 514.895431,8 516,8 Z M523.6,20.45 C523.75,20.84 524.05,21.1 524.5,21.1 C524.95,21.1 525.25,20.84 525.4,20.45 L526,13.3 C526,12.52 525.25,12 524.5,12 C523.6,12 523,12.65 523,13.43 L523.6,20.45 Z M524.5,22.4 C523.6,22.4 523,22.92 523,23.7 C523,24.48 523.6,25 524.5,25 C525.4,25 526,24.48 526,23.7 C526,22.92 525.4,22.4 524.5,22.4 Z" id="合并形状"></path>
        </g>
    </g>
</svg>