<svg width="20" height="20" xmlns="http://www.w3.org/2000/svg"><path d="M2 0h16a2 2 0 0 1 2 2v16a2 2 0 0 1-2 2H2a2 2 0 0 1-2-2V2a2 2 0 0 1 2-2zm5.24 11.4v-.54h1.992v.54H7.24zm0-1.932h1.992v.54H7.24v-.54zm5.532 0v.54h-2.1v-.54h2.1zm0 1.932h-2.1v-.54h2.1v.54zm-2.1 3.18v-.636h4.008v-1.068h-4.008v-.54h3.564V8.532h-3.564v-.456h4.704V6.96h-4.704v-.624a43.432 43.432 0 0 0 3.6-.396l-.66-1.104c-2.028.336-5.28.54-8.076.6.12.288.276.768.288 1.092 1.08-.012 2.256-.048 3.408-.096v.528H4.648v1.116h4.584v.456H5.848v3.804h3.384v.54h-3.78v1.068h3.78v.636H4.576v1.128H15.46V14.58h-4.788z"/></svg>