<svg width="20" height="20" xmlns="http://www.w3.org/2000/svg"><path d="M.96 20c-.899-.504-1.075-1.516-.899-2.254.359-1.356 1.283-2.677 3.356-4.062 1.291 1.676 3.741 2.81 6.557 2.81 2.771 0 5.187-1.1 6.493-2.732 1.974 1.493 2.98 2.77 3.435 4.015.262.715 0 1.947-.804 2.223H.96zm9.041-4.21c-2.517 0-4.709-1.007-5.867-2.495a13.347 13.347 0 0 1 2.923-1.375 7.016 7.016 0 0 1-1.801-2.445 19.045 19.045 0 0 0 6.019-1.98A15.748 15.748 0 0 0 15.52 4.21c.056.415.085.834.086 1.254 0 2.75-1.081 5.15-2.694 6.484 1.013.354 1.984.83 2.895 1.419-1.173 1.448-3.33 2.421-5.806 2.421zM4.525 7.753c2.15-.29 3.834-.977 5.741-1.905 1.517-.716 3.47-1.944 4.696-3.013.135.243.249.494.342.751-1.252 1.193-3.289 2.5-4.927 3.232-1.883.85-3.53 1.458-5.629 1.666a7.061 7.061 0 0 1-.223-.731zm-.391-2.258C4.134 1.994 6.794 0 10.077 0c1.832-.036 3.571.676 4.669 1.912a20.568 20.568 0 0 1-4.282 2.61c-1.937.931-3.971 1.901-6.181 2.154-.099-.605-.149-.998-.15-1.18z"/></svg>