<svg width="19" height="21" xmlns="http://www.w3.org/2000/svg"><path d="M10.576 1.243h.127c3.167.062 5.827 1.864 6.714 4.597.126.435.316 1.305.316 1.74v.124c0 2.485-1.457 5.654-3.483 7.518a1.25 1.25 0 0 0-.38.932v3.541c-.254.062-.95.062-1.204.062H6.902v-.062l.317-1.367c.063-.372 0-.745-.253-1.056-.254-.31-.634-.435-1.014-.435h-2.85v-.186c.063-.187.127-.621.19-1.056v-.062c.063-.808-.127-1.367-.507-1.802l-.126-.124c0-.249.063-.56.126-1.057.064-.186 0-.435-.063-.621 0-.062-.063-.124-.063-.124-.254-.31-.444-.56-.76-.684L3.292 9.32c.127-.125.19-.311.253-.435.064-.125.064-.249.127-.373.063-.187.127-.373.127-.56v-.994c.063-.87.38-2.174 1.266-3.168.57-.621 2.534-2.547 5.51-2.547zm0-1.243c-3.674 0-6.017 2.485-6.46 2.982-.95 1.056-1.457 2.485-1.584 3.914v.063c0 .186 0 .434-.063.62v.498s-.064.186-.127.56L.315 11.12a1.84 1.84 0 0 0-.253.497c-.19.435.063.746.696.746h.697c-.127.621-.19 1.118-.19 1.491 0 .435.063.683.254.683.38 0 .506.498.443.995s-.19.994-.19.994v.186c-.127.746.317 1.367 1.077 1.367h2.977l-.317 1.429c-.063.808.507 1.491 1.33 1.491h5.764c1.457 0 2.533-.062 2.533-1.553v-3.293C17.48 13.979 19 10.5 19 7.704v-.062c0-.808-.317-2.112-.317-2.112C17.67 2.36 14.503.124 10.766.062 10.703 0 10.639 0 10.576 0zM1.428 12.302l-.1.1.1-.1z"/><path d="M3.213 14.637l-1.586-1.22c2.676-3.478 5.526-4.544 8.291-2.853 2.768 1.693 3.099 5.058 1.254 9.799L9.4 20.06c1.537-3.948 1.213-6.728-.525-7.79-1.74-1.065-3.542-.392-5.662 2.366z"/></svg>