<svg width="17" height="18" xmlns="http://www.w3.org/2000/svg"><path d="M13.877 15.137a7.573 7.573 0 0 0-5.297-4.605c1.234-.891 2.121-2.667 2.33-4.834a4.993 4.993 0 0 0-1.037-.386 15.6 15.6 0 0 0-6.205 0 14.85 14.85 0 0 0-1.048.287c.197 2.277 1.139 4.137 2.45 5.01a7.61 7.61 0 0 0-4.954 4.528l-.022.07c-.087.369-.244 1.316.256 2.005.301.403.77.645 1.27.655.639.045 2.442.089 5.38.133h.026c2.92-.044 4.712-.088 5.354-.133.5-.01.969-.252 1.27-.655.5-.69.343-1.633.256-2.005l-.03-.07z"/><path d="M5.461 2.105h.668v-.59a.482.482 0 0 1 .211-.445.427.427 0 0 1 .47 0 .482.482 0 0 1 .211.444v.59h.531c.248 0 .448.213.448.474 0 .262-.2.474-.448.474h-.53v.392a.77.77 0 0 1-.138.424c-.079.1-.476.14-.622 0-.145-.141-.145-.35-.146-.424v-.392h-.668A.461.461 0 0 1 5 2.578c0-.261.2-.473.448-.473h.013zm4.6 2.612c.32.071.633.166.938.283A7.906 7.906 0 0 0 9.793.687L9.699.55l-.17-.058c-1.953-.655-3.699-.655-5.653 0L3.711.55l-.094.138a7.871 7.871 0 0 0-1.222 4.179v.072c2.065-.603 5.806-.668 7.665-.221zm6.879 9.379v-.05c-.628-1.648-1.996-2.872-3.662-3.277.855-.634 1.467-1.893 1.611-3.43a3.41 3.41 0 0 0-.703-.276 9.665 9.665 0 0 0-1.456-.2 5.747 5.747 0 0 1-2.153 4.04c1.896.7 3.9 1.995 4.573 3.943l.017.058c.084.358.095.73.032 1.092l.686.004a1.12 1.12 0 0 0 .872-.484c.244-.429.307-.942.176-1.42m-2.74-10.59l-.06-.102-.105-.04A5.479 5.479 0 0 0 12.016 3c.47.987.72 2.07.731 3.171.547.03 1.09.103 1.625.218.207.052.41.12.605.204a6.204 6.204 0 0 0-.784-3.098"/></svg>