<svg class="icon" viewBox="0 0 1024 1024" xmlns="http://www.w3.org/2000/svg" width="200" height="200"><path d="M513 98.15c-229.19 0-415 185.8-415 415s185.8 415 415 415 415-185.8 415-415-185.81-415-415-415zm0 754.54c-187.52 0-339.54-152.02-339.54-339.54S325.48 173.61 513 173.61s339.54 152.02 339.54 339.54S700.52 852.69 513 852.69z"/><path d="M520.86 805.25c-20.83 0-37.73-16.89-37.73-37.73V423.55c0-20.83 16.89-37.73 37.73-37.73 20.83 0 37.73 16.89 37.73 37.73v343.98c-.01 20.83-16.9 37.72-37.73 37.72zM479.99000000000007 314.3a40.08 40.08 0 1 0 80.16 0 40.08 40.08 0 1 0-80.16 0z"/></svg>