<svg width="18" height="20" xmlns="http://www.w3.org/2000/svg"><path d="M15 9.356A5.991 5.991 0 0 0 7.356 17H2a2 2 0 0 1-2-2V2a2 2 0 0 1 2-2h11a2 2 0 0 1 2 2v7.356zM3.73 7.788l2.323-2.483L8.328 6.86a1 1 0 0 0 1.273-.121l3.017-3.034a1 1 0 0 0-1.419-1.41L8.77 4.739l-2.296-1.57a1 1 0 0 0-1.295.144L2.27 6.422a1 1 0 1 0 1.46 1.366zm9.331 11.974a4.7 4.7 0 1 1 0-9.402 4.7 4.7 0 0 1 0 9.402zm-1.365-4.227h3.786a.5.5 0 0 0 0-1H11.69l1.287-1.287a.5.5 0 0 0-.707-.707l-2.114 2.113a.499.499 0 0 0 .025.78l2.077 2.078a.5.5 0 1 0 .707-.707l-1.27-1.27z"/></svg>