<svg width="18" height="20" xmlns="http://www.w3.org/2000/svg"><path d="M15.967 5l-.843 12.633A2 2 0 0 1 13.13 19.5H4.87a2 2 0 0 1-1.995-1.867L2.033 5H1a1 1 0 0 1 0-2h16a1 1 0 0 1 0 2h-1.033zM5.446 8.21l.111 6.392c.01.518.464.939 1.015.94.552 0 .991-.42.982-.938l-.111-6.392c-.01-.518-.464-.939-1.015-.94-.552 0-.991.42-.982.938zm7.052-.018c0-.519-.447-.93-.998-.92-.552.01-.999.439-.999.957v6.393c0 .519.448.93.999.92.552-.01.999-.439.999-.957V8.192zM7 2a1 1 0 0 1 0-2h4.21a1 1 0 1 1 0 2H7z"/></svg>