<?xml version="1.0" encoding="UTF-8"?>
<svg width="20px" height="20px" viewBox="0 0 20 20" version="1.1" xmlns="http://www.w3.org/2000/svg" xmlns:xlink="http://www.w3.org/1999/xlink">
    <!-- Generator: Sketch 52.4 (67378) - http://www.bohemiancoding.com/sketch -->
    <!--<title>单病种</title>-->
    <desc>Created with Sketch.</desc>
    <g id="页面-1" stroke="none" stroke-width="1" fill="none" fill-rule="evenodd">
        <g id="电子病历-copy" transform="translate(-564.000000, -8.000000)" fill="#B388FF">
            <path d="M566,8 L582,8 C583.104569,8 584,8.8954305 584,10 L584,26 C584,27.1045695 583.104569,28 582,28 L566,28 C564.895431,28 564,27.1045695 564,26 L564,10 C564,8.8954305 564.895431,8 566,8 Z M578.664686,12.535707 C577.931825,12.535707 577.332212,13.1286135 577.332212,13.8547575 C577.332212,14.0546136 577.378849,14.2544697 577.465459,14.4343403 L575.866491,16.0731605 C574.927096,15.3536785 573.661246,15.2137792 572.588604,15.7134195 L571.869068,14.6142108 C572.29546,14.0213042 572.15555,13.2018941 571.555937,12.7755344 C570.956324,12.3558365 570.13019,12.4890739 569.703798,13.0819804 C569.277406,13.674887 569.417316,14.4942971 570.01693,14.9206568 C570.343386,15.1538223 570.756453,15.220441 571.14287,15.120513 L571.849081,16.1930742 C570.91635,17.0058225 570.556582,18.2849017 570.929674,19.4640529 L569.430641,20.0702831 C569.044223,19.7704989 568.484584,19.8437795 568.184778,20.230168 C567.884971,20.6165566 567.958257,21.16283 568.344675,21.4626142 C568.731092,21.7623984 569.290731,21.6891178 569.590538,21.3027293 C569.683811,21.1828156 569.743772,21.0362544 569.770422,20.8830314 L571.316092,20.2568155 C572.15555,21.5159091 573.787831,21.9955639 575.186929,21.4026573 L575.819854,22.3752905 C575.353488,22.9348877 575.426774,23.7609597 575.993076,24.2272906 C576.559377,24.6936216 577.392173,24.6136792 577.865202,24.054082 C578.33823,23.4944848 578.258282,22.6684128 577.69198,22.2020819 C577.385511,21.9489308 576.979106,21.8490027 576.586027,21.9222833 L575.946439,20.9429882 C577.232277,19.8970745 577.472122,18.0384125 576.492753,16.6993764 L578.111709,15.0472324 C578.777946,15.3536785 579.570768,15.067218 579.877237,14.4076928 C580.183707,13.7481675 579.897225,12.9687286 579.230988,12.6622826 C579.051104,12.5756782 578.857895,12.535707 578.664686,12.535707 Z M573.941066,20.7764415 C572.68854,20.7764415 571.67586,19.7704989 571.67586,18.5313909 C571.67586,17.2922829 572.68854,16.2863404 573.941066,16.2863404 C575.193591,16.2863404 576.206271,17.2922829 576.206271,18.5313909 C576.206271,19.7704989 575.193591,20.7764415 573.941066,20.7764415 Z M573.941066,17.6586858 C573.454713,17.6586858 573.05497,18.0517362 573.05497,18.5380528 C573.05497,19.0243694 573.454713,19.4174198 573.941066,19.4174198 C574.427419,19.4174198 574.827161,19.0243694 574.827161,18.5380528 C574.827161,18.0450743 574.427419,17.6586858 573.941066,17.6586858 Z" id="合并形状"></path>
        </g>
    </g>
</svg>