<svg width="18" height="18" xmlns="http://www.w3.org/2000/svg"><path d="M2 0h14a2 2 0 0 1 2 2v14a2 2 0 0 1-2 2H2a2 2 0 0 1-2-2V2a2 2 0 0 1 2-2zm3.97 4l-3.89 8.097c2.65 1.241 4.989 1.862 7.02 1.862 2.03 0 4.307-.62 6.832-1.862L12.108 4c-.748.566-1.792.849-3.132.849S6.634 4.566 5.971 4zm.11 6.423l.641-.767c.656.548 1.434.82 2.355.82.912 0 1.626-.265 2.172-.795l.697.718c-.741.719-1.707 1.078-2.869 1.078-1.151 0-2.157-.353-2.996-1.054zm.984-2.643l.719-.695c.333.345.735.512 1.238.512s.906-.167 1.238-.512l.72.695c-.523.542-1.186.817-1.958.817s-1.434-.275-1.957-.817z"/></svg>