<svg width="18" height="20" xmlns="http://www.w3.org/2000/svg"><path d="M15 9.356A5.991 5.991 0 0 0 7.356 17H2a2 2 0 0 1-2-2V2a2 2 0 0 1 2-2h11a2 2 0 0 1 2 2v7.356zM4.665 5.58l.019 1.43 1.396-.016 4.436-4.436a1 1 0 0 0-1.414-1.414L4.665 5.58zM2.337 8.643a3.394 3.394 0 0 1-.356-.047c.19-.186.737-.318 1.384-.348.25-.011.444-.21.431-.441-.012-.233-.226-.412-.477-.4-.417.02-.82.07-1.205.185-.672.2-1.114.567-1.114 1.15 0 .514.442.67 1.253.74.445.038.875.043 1.945.038l.304-.001c1.644-.006 2.588.11 2.588.123 0 .045-.666.202-2.118.344l-.023.002c-2.323.226-2.913.364-2.91 1.17.006 1.076 1.512 1.375 4.437 1.203.25-.015.441-.215.425-.447-.016-.232-.232-.409-.483-.394-1.278.075-2.228.05-2.837-.071-.475-.095-.63-.205-.631-.295 0-.035.662-.189 2.094-.328l.023-.002c2.33-.227 2.945-.372 2.933-1.194-.013-.862-.834-.964-3.502-.954l-.305.001c-1.035.006-1.453 0-1.856-.034zm9.774 6.418l-1.546 1.546a.5.5 0 0 0 0 .707l.243.243a.5.5 0 0 0 .707 0l1.546-1.546 1.546 1.546a.5.5 0 0 0 .707 0l.243-.243a.5.5 0 0 0 0-.707L14.01 15.06l1.546-1.546a.5.5 0 0 0 0-.707l-.243-.243a.5.5 0 0 0-.707 0L13.06 14.11l-1.546-1.546a.5.5 0 0 0-.707 0l-.243.243a.5.5 0 0 0 0 .707l1.546 1.546zm.95 4.7a4.7 4.7 0 1 1 0-9.4 4.7 4.7 0 0 1 0 9.4z"/></svg>