<svg width="23" height="20" xmlns="http://www.w3.org/2000/svg" xmlns:xlink="http://www.w3.org/1999/xlink"><defs><path id="a" d="M0 0h23v20H0z"/></defs><mask id="b"><use xlink:href="#a"/></mask><path d="M22.11 3.967a2.926 2.926 0 0 0-2.166-.894h-2.667l-.612-1.621a2.389 2.389 0 0 0-.833-1.005C15.444.167 15 0 14.611 0H8.499c-.444 0-.833.167-1.221.447-.367.252-.656.6-.834 1.005l-.666 1.62H3.056c-.834 0-1.556.28-2.167.895C.277 4.58 0 5.307 0 6.145v10.782c0 .839.277 1.566.89 2.179.61.616 1.332.894 2.165.894h16.89c.833 0 1.555-.278 2.166-.894.612-.613.889-1.34.889-2.179V6.145c0-.837-.277-1.564-.89-2.178zM11.5 16.425c-2.778 0-5.056-2.29-5.056-5.084 0-2.793 2.278-5.084 5.055-5.084 2.778 0 5.056 2.291 5.056 5.084 0 2.793-2.278 5.084-5.056 5.084zM11.5 8a3.385 3.385 0 0 0-2.399.97 3.287 3.287 0 0 0-.984 2.364 3.287 3.287 0 0 0 .984 2.363c.636.626 1.5.976 2.398.97a3.386 3.386 0 0 0 2.398-.97c.636-.626.99-1.478.984-2.363a3.288 3.288 0 0 0-.984-2.364A3.386 3.386 0 0 0 11.5 8z" mask="url(#b)"/></svg>