<svg width="16" height="20" xmlns="http://www.w3.org/2000/svg"><path d="M4.469 11.847a.876.876 0 0 0 .09.128l2.365 2.817a1 1 0 0 0 1.395.133l.014-.01a.96.96 0 0 0 .116-1.38L7.097 12h4.129a1 1 0 0 0 .968-.75l.065-.25a.8.8 0 0 0-.775-1H5a1 1 0 0 0-.531 1.847zM9.476 6H5a1 1 0 1 0 0 2h6.484a.8.8 0 0 0 .053-.002.83.83 0 0 0 .692-.265l.034-.038a1 1 0 0 0 .034-1.314l-2.144-2.59a1 1 0 0 0-1.4-.139l-.008.007a.96.96 0 0 0-.116 1.38L9.476 6zM2 0h12a2 2 0 0 1 2 2v16a2 2 0 0 1-2 2H2a2 2 0 0 1-2-2V2a2 2 0 0 1 2-2z"/></svg>