<svg width="20" height="20" xmlns="http://www.w3.org/2000/svg" xmlns:xlink="http://www.w3.org/1999/xlink"><defs><path id="a" d="M0 0h20v20H0z"/></defs><g transform="matrix(1 0 0 -1 0 20)"><mask id="b"><use xlink:href="#a"/></mask><path d="M2 0h16a2 2 0 0 1 2 2v16a2 2 0 0 1-2 2H2a2 2 0 0 1-2-2V2a2 2 0 0 1 2-2zm6.28 14.48a.794.794 0 0 1-1.122 1.12l-.892-.894-.894.894a.794.794 0 0 1-1.123 0 .794.794 0 0 1 0-1.12l.894-.894-.894-.894a.794.794 0 0 1 0-1.12.794.794 0 0 1 1.12 0l.894.893.895-.894a.794.794 0 0 1 1.12 0 .794.794 0 0 1 0 1.12l-.892.895.894.893zm.041-7.386H7.056v1.265a.792.792 0 1 1-1.585 0V7.094H4.205a.792.792 0 1 1 0-1.586h1.266V4.243a.792.792 0 1 1 1.585 0v1.265h1.265a.792.792 0 1 1 0 1.586zm7.568 8.73h-4.114a.792.792 0 1 1 0-1.585h4.114a.792.792 0 1 1 0 1.585zm0-2.617h-4.114a.792.792 0 1 1 0-1.585h4.114a.792.792 0 1 1 0 1.585zm0-6.113h-4.114a.792.792 0 1 1 0-1.586h4.114a.792.792 0 1 1 0 1.586z" mask="url(#b)"/></g></svg>