<svg width="27px" height="27px" viewBox="0 0 27 27" version="1.1" xmlns="http://www.w3.org/2000/svg" xmlns:xlink="http://www.w3.org/1999/xlink"><defs><linearGradient x1="50%" y1="0%" x2="50%" y2="100%" id="linearGradient-1"><stop stop-color="#FFAF45" offset="0%"></stop><stop stop-color="#D57B01" offset="100%"></stop>
</linearGradient>
</defs>
<g id="1217" stroke="none" stroke-width="1" fill="none" fill-rule="evenodd">
<g id="首页-copy" transform="translate(-179.000000, -480.000000)">
<g id="分组-19" transform="translate(179.000000, 480.000000)">
<path d="M2,0 L25,0 C26.1045695,-2.02906125e-16 27,0.8954305 27,2 L27,25 C27,26.1045695 26.1045695,27 25,27 L2,27 C0.8954305,27 1.3527075e-16,26.1045695 0,25 L0,2 C-1.3527075e-16,0.8954305 0.8954305,2.02906125e-16 2,0 Z" id="Rectangle-35" fill="url(#linearGradient-1)"></path>
<path d="M9.456,20 L9.456,8.144 L11.824,8.144 L11.824,20 L9.456,20 Z M14.736,20 L14.736,8.144 L17.104,8.144 L17.104,20 L14.736,20 Z" id="II" fill="#FFFFFF"></path>
</g>
</g>
</g>
</svg>