<svg width="27px" height="27px" viewBox="0 0 27 27" version="1.1" xmlns="http://www.w3.org/2000/svg" xmlns:xlink="http://www.w3.org/1999/xlink">
<defs>
<linearGradient x1="50%" y1="0%" x2="50%" y2="100%" id="linearGradient-1">
<stop stop-color="#8ED824" offset="0%"></stop>
<stop stop-color="#439406" offset="100%"></stop>
</linearGradient>
</defs>
<g id="1217" stroke="none" stroke-width="1" fill="none" fill-rule="evenodd">
<g id="首页-copy" transform="translate(-179.000000, -364.000000)">
<g id="分组-17" transform="translate(179.000000, 364.000000)">
<path d="M2,0 L25,0 C26.1045695,-2.02906125e-16 27,0.8954305 27,2 L27,25 C27,26.1045695 26.1045695,27 25,27 L2,27 C0.8954305,27 1.3527075e-16,26.1045695 0,25 L0,2 C-1.3527075e-16,0.8954305 0.8954305,2.02906125e-16 2,0 Z" id="Rectangle-35" fill="url(#linearGradient-1)"></path>
<path d="M3.274,19 L3.274,8.626 L5.346,8.626 L5.346,19 L3.274,19 Z M9.714,19 L6.55,8.626 L8.72,8.626 L10.092,13.68 C10.414,14.828 10.638,15.864 10.96,17.026 L11.03,17.026 C11.366,15.864 11.59,14.828 11.912,13.68 L13.256,8.626 L15.356,8.626 L12.192,19 L9.714,19 Z M20.312,19.196 C19.612,19.196 18.856,18.832 18.226,18.174 L18.17,18.174 L17.988,19 L16.378,19 L16.378,7.828 L18.436,7.828 L18.436,10.642 L18.38,11.902 C18.996,11.342 19.78,10.964 20.55,10.964 C22.482,10.964 23.644,12.546 23.644,14.94 C23.644,17.642 22.034,19.196 20.312,19.196 Z M19.85,17.502 C20.802,17.502 21.53,16.69 21.53,14.982 C21.53,13.484 21.054,12.658 19.976,12.658 C19.444,12.658 18.968,12.924 18.436,13.47 L18.436,16.914 C18.926,17.348 19.43,17.502 19.85,17.502 Z" id="IVb" fill="#FFFFFF"></path>
</g>
</g>
</g>
</svg>