<svg width="18" height="20" xmlns="http://www.w3.org/2000/svg"><path d="M2 0h14a2 2 0 0 1 2 2v16a2 2 0 0 1-2 2H2a2 2 0 0 1-2-2V2a2 2 0 0 1 2-2zm4.647 7.429l.068 1.362 1.346.052 5.721-5.722a1 1 0 1 0-1.414-1.414L6.647 7.43zm-3.06 4.973a1.34 1.34 0 0 1-.058-.019c.21-.502 1.545-.82 3.114-.883a.5.5 0 0 0-.04-1c-.764.031-1.502.111-2.196.292-1.168.303-1.907.835-1.907 1.732 0 .723.675.929 2.075 1.034.833.062 1.652.071 3.69.062l.582-.002c3.444-.01 5.341.193 5.345.407.004.238-1.37.52-4.39.776l-.044.004c-4.224.357-5.268.568-5.262 1.75.009 1.621 2.684 2.082 8.113 1.805a.5.5 0 0 0-.05-.998c-4.676.238-7.06-.173-7.063-.812-.001-.221 1.36-.496 4.346-.749l.044-.004c4.242-.359 5.327-.581 5.306-1.79-.022-1.244-1.511-1.404-6.348-1.389l-.584.002c-2.006.01-2.814 0-3.61-.06-.48-.035-.838-.089-1.064-.158z"/></svg>