<svg class="icon" viewBox="0 0 1024 1024" xmlns="http://www.w3.org/2000/svg" width="32" height="32"><path d="M102.4 0h204.8q102.4 0 102.4 102.4v204.8q0 102.4-102.4 102.4H102.4Q0 409.6 0 307.2V102.4Q0 0 102.4 0zM102.4 614.4h204.8q102.4 0 102.4 102.4v204.8q0 102.4-102.4 102.4H102.4Q0 1024 0 921.6V716.8q0-102.4 102.4-102.4zM716.8 0h204.8Q1024 0 1024 102.4v204.8q0 102.4-102.4 102.4H716.8q-102.4 0-102.4-102.4V102.4Q614.4 0 716.8 0zM716.8 614.4h204.8q102.4 0 102.4 102.4v204.8q0 102.4-102.4 102.4H716.8q-102.4 0-102.4-102.4V716.8q0-102.4 102.4-102.4z"/></svg>