<svg width="18" height="18" xmlns="http://www.w3.org/2000/svg"><path d="M2 0h14a2 2 0 0 1 2 2v14a2 2 0 0 1-2 2H2a2 2 0 0 1-2-2V2a2 2 0 0 1 2-2zm11.691 3.318A1.04 1.04 0 0 0 12.947 3c-.28 0-.548.114-.746.318L7.99 7.646A.383.383 0 0 0 7.895 8c.03.127.122.229.243.269l1.478.486c.13.043.272.007.369-.092l3.706-3.811A1.1 1.1 0 0 0 14 4.085a1.1 1.1 0 0 0-.309-.767zM7.561 8.6L5 11.233a2.544 2.544 0 0 0 2.624-.654l1.443-1.483L7.561 8.6zM3.5 14.5h2v-1h-2v1zm3 0h2v-1h-2v1zm3 0h2v-1h-2v1zm3 0h2v-1h-2v1z"/></svg>