<svg class="icon" viewBox="0 0 1024 1024" xmlns="http://www.w3.org/2000/svg" width="200" height="200"><defs><style/></defs><path d="M792.576 571.904v-55.296c0-23.04-10.752-35.328-30.72-35.328H279.552c-19.968 0-30.72 12.288-30.72 34.816v299.52c0 3.584 0 7.168 1.024 10.752 3.072 15.872 13.824 24.064 30.208 24.064h274.944v46.08h-314.88c-1.024-.512-2.56-1.024-4.096-1.536-32.256-6.656-54.272-27.648-65.024-62.464-2.048-6.144-3.072-12.288-4.096-18.432V180.736l1.536-4.608c6.656-40.448 27.648-65.024 62.464-75.776 3.072-1.024 6.144-1.536 9.216-2.56H721.92c19.968 5.12 35.84 18.432 50.176 33.792 23.552 25.6 47.104 51.712 69.632 78.848 14.336 16.896 27.136 35.328 31.744 58.88v302.592h-80.896zM506.88 420.864h172.032c22.016 0 32.768-11.776 32.768-36.864V180.736c0-25.088-10.24-36.864-32.256-36.864H335.872c-21.504 0-32.256 11.776-32.256 36.352v204.288c0 24.576 10.752 36.352 32.256 36.352H506.88z"/><path d="M604.672 235.008h79.872v190.464h-79.872V235.008zm112.64 659.456l-49.664-54.272-37.888 86.016zm177.152-155.648l-50.688-58.88L678.4 826.368l52.736 61.44zm47.104-39.936c10.752-10.24-4.096-28.672-4.096-28.672s-8.192-12.288-24.064-25.088-29.184-1.536-29.184-1.536l-29.184 26.112 53.76 59.392c-.512 0 25.088-22.528 32.768-30.208zm-586.752-102.4h331.776c19.968 0 35.84-10.752 35.84-24.064s-15.872-24.064-35.84-24.064H354.816c-19.968 0-35.84 10.752-35.84 24.064s15.872 24.064 35.84 24.064zm0 96.768h331.776c19.968 0 35.84-10.752 35.84-24.064s-15.872-24.064-35.84-24.064H354.816c-19.968 0-35.84 10.752-35.84 24.064s15.872 24.064 35.84 24.064zm0 90.624h331.776c19.968 0 35.84-10.752 35.84-24.064s-15.872-24.064-35.84-24.064H354.816c-19.968 0-35.84 10.752-35.84 24.064s15.872 24.064 35.84 24.064zm251.904 112.64h-81.408c-12.8 0-23.04-10.24-23.04-23.04s10.24-23.04 23.04-23.04h81.408c12.8 0 23.04 10.24 23.04 23.04 0 12.288-10.24 23.04-23.04 23.04zm226.816-257.536c-22.528 0-40.448-18.432-40.448-40.448v-60.416c0-22.528 18.432-40.448 40.448-40.448 22.528 0 40.448 18.432 40.448 40.448v60.416c0 22.016-18.432 40.448-40.448 40.448z"/></svg>