<svg width="18" height="18" xmlns="http://www.w3.org/2000/svg"><path d="M2 0h14a2 2 0 0 1 2 2v14a2 2 0 0 1-2 2H2a2 2 0 0 1-2-2V2a2 2 0 0 1 2-2zm1.572 15h10.794c.479-.166.635-.905.479-1.334-.271-.746-.87-1.513-2.045-2.409-.777.98-2.215 1.639-3.864 1.639-1.676 0-3.134-.68-3.903-1.685-1.233.83-1.783 1.623-1.996 2.436-.106.443 0 1.05.535 1.353zm5.38-2.526c1.473 0 2.757-.585 3.455-1.453a8.03 8.03 0 0 0-1.722-.851c.96-.8 1.603-2.241 1.603-3.89 0-.253-.018-.504-.052-.754a9.383 9.383 0 0 1-2.526 1.97 11.271 11.271 0 0 1-3.582 1.189c.252.569.618 1.07 1.072 1.467a7.914 7.914 0 0 0-1.74.825c.69.893 1.994 1.497 3.492 1.497zM5.693 7.652c.036.148.08.295.133.44 1.249-.126 2.23-.49 3.35-1 .975-.44 2.187-1.224 2.932-1.94a3.127 3.127 0 0 0-.203-.45c-.73.641-1.892 1.378-2.795 1.807-1.135.557-2.138.97-3.417 1.143zM5.46 6.298a6 6 0 0 0 .089.708c1.315-.151 2.526-.733 3.679-1.292a12.223 12.223 0 0 0 2.548-1.566c-.653-.742-1.688-1.169-2.779-1.147C7.044 3 5.46 4.197 5.46 6.298z"/></svg>