<svg width="18" height="21" xmlns="http://www.w3.org/2000/svg"><path d="M17.868 17.88c-.978-2.525-4.097-4.399-6.675-5.018 1.322-.972 2.272-2.907 2.495-5.268a5.293 5.293 0 0 0-1.11-.421c-2.194-.453-5.454-.453-7.648 0a15.7 15.7 0 0 0-1.123.313c.211 2.481 1.22 4.509 2.624 5.46-2.417.713-5.377 2.535-6.307 4.934l-.023.077c-.094.401-.262 1.433.274 2.184.323.44.824.703 1.36.714.685.049 3.617.097 6.765.145h.027c3.129-.048 7.05-.096 7.737-.145a1.738 1.738 0 0 0 1.361-.714c.536-.75.368-1.779.274-2.184l-.031-.077zM8.158 2.949h-1v1h1v1h1v-1h1v-1h-1v-1h-1v1zM4.626 6.228l-.008-.004c-.05.01-.368.07-.952.178.003-1.713.432-3.184 1.244-4.665l.096-.161.168-.068c1.99-.764 5.17-.764 7.161 0l.172.068.096.16c.83 1.53 1.254 3.059 1.228 4.822a6.2 6.2 0 0 0-.956-.33c-2.391-.519-5.858-.519-8.25 0z"/></svg>