<?xml version="1.0" standalone="no"?><!DOCTYPE svg PUBLIC "-//W3C//DTD SVG 1.1//EN" "http://www.w3.org/Graphics/SVG/1.1/DTD/svg11.dtd"><svg t="1577087049156" class="icon" viewBox="0 0 1024 1024" version="1.1" xmlns="http://www.w3.org/2000/svg" p-id="3387" xmlns:xlink="http://www.w3.org/1999/xlink" width="200" height="200"><defs><style type="text/css"></style></defs><path d="M713.486 462.654H565.874v-146.87c0-14.906-12.073-26.985-26.967-26.985H475.73c-14.907 0-26.985 12.081-26.985 26.985v146.87h-147.94c-14.905 0-26.978 12.073-26.978 26.978v62.567c0 14.891 12.074 26.981 26.978 26.981h147.941v148.196c0 14.894 12.078 26.969 26.985 26.969h63.181c14.89 0 26.963-12.075 26.963-26.969V579.181h147.613c14.89 0 26.964-12.089 26.964-26.981v-62.564c-0.002-14.906-12.075-26.982-26.966-26.982z" fill="#0071E7" p-id="3388"></path><path d="M513.533 3.068C231.611 3.068 3.067 231.612 3.067 513.533 3.067 795.458 231.611 1024 513.533 1024S1024 795.458 1024 513.533C1024 231.612 795.455 3.068 513.533 3.068zM820.991 577.92L577.913 820.98c-35.563 35.562-93.208 35.562-128.754 0L206.066 577.92c-35.542-35.559-35.542-93.208 0-128.766l243.093-243.07c35.549-35.557 93.191-35.557 128.754 0l243.078 243.07c35.553 35.561 35.553 93.207 0 128.766z" fill="#0071E7" p-id="3389"></path></svg>