<svg width="20" height="20" xmlns="http://www.w3.org/2000/svg"><path d="M2 0h16a2 2 0 0 1 2 2v16a2 2 0 0 1-2 2H2a2 2 0 0 1-2-2V2a2 2 0 0 1 2-2zm6.25 3.713c0 .946.784 1.713 1.75 1.713s1.75-.767 1.75-1.713C11.75 2.767 10.966 2 10 2s-1.75.767-1.75 1.713zM3.875 6.004A.866.866 0 0 0 3 6.861c0 .473.392.856.875.856h3.59a.772.772 0 0 1 .626.509c.17.43.086 1.2-.02 1.847l-.136.764-.002.01-1.107 6.148a.858.858 0 0 0 .71.992.868.868 0 0 0 1.007-.694l.766-4.281c0 .005.228-1.155.673-1.155h.04c.454 0 .673 1.16.673 1.16l.765 4.276a.87.87 0 0 0 1.01.694.856.856 0 0 0 .707-.992l-1.108-6.15-.002-.012-.138-.764c-.106-.646-.19-1.415-.02-1.845a.774.774 0 0 1 .627-.508h3.589A.866.866 0 0 0 17 6.859a.865.865 0 0 0-.875-.855H3.875z"/></svg>