<?xml version="1.0" standalone="no"?><!DOCTYPE svg PUBLIC "-//W3C//DTD SVG 1.1//EN" "http://www.w3.org/Graphics/SVG/1.1/DTD/svg11.dtd"><svg t="1575857886337" class="icon" viewBox="0 0 1721 1024" version="1.1" xmlns="http://www.w3.org/2000/svg" p-id="7351" xmlns:xlink="http://www.w3.org/1999/xlink" width="336.1328125" height="200"><defs><style type="text/css"></style></defs><path d="M1169.408 245.76h-36.864c-5.632 0-9.728-4.608-9.728-9.728v-33.28c0-5.632 4.608-9.728 9.728-9.728h36.864c5.632 0 9.728 4.608 9.728 9.728v33.28c0 5.12-4.608 9.728-9.728 9.728z m-18.944-46.592c-3.072 0-6.144 1.024-8.192 3.584-2.048 2.048-3.584 5.12-3.584 8.192 0 3.072 1.024 6.144 3.584 8.192 2.048 2.048 5.12 3.584 8.192 3.584h0.512c6.656 0.512 12.8 5.12 13.824 11.776 0 1.024 1.024 1.536 1.536 1.536 1.024 0 1.536-1.024 1.536-1.536-1.024-4.096-3.072-7.68-6.144-10.752-1.536-1.536-3.584-2.56-5.12-3.072-2.048-0.512-4.096-1.024-5.632-1.024h-1.024c-4.096 0-7.168-3.584-7.68-7.68 0-4.608 3.584-7.68 7.68-7.68s7.68 3.584 7.68 7.68c0 1.536-0.512 2.56-1.024 3.584v1.024c0 1.024 1.024 1.536 1.536 1.536 0.512 0 1.536-0.512 1.536-1.024 1.024-1.536 1.536-3.584 1.536-5.632 0-3.072-1.024-6.144-3.072-8.192-1.536-2.56-4.608-4.096-7.68-4.096z m-8.704 22.016c-0.512 0-0.512 0-1.024 0.512-2.048 1.536-4.096 3.072-5.12 5.12-1.536 2.048-2.56 4.096-3.072 6.656 0 1.024 0.512 2.048 1.536 2.048 1.024 0 1.536-0.512 1.536-1.536 1.024-4.096 3.072-7.68 6.656-9.728 0.512-0.512 1.024-1.024 1.024-1.536 0.512-0.512-0.512-1.536-1.536-1.536z" fill="#D3D3D3" p-id="7352"></path><path d="M1294.336 524.288c0.512-0.512 1.024-0.512 1.024-1.024l15.36-20.992c2.048-2.56 1.024-6.656-1.536-8.704-2.56-2.048-6.656-1.536-8.192 1.536l-11.776 16.384-13.312-8.704c-1.024-0.512-2.048-1.024-3.072-1.024 7.168 7.168 14.848 14.336 21.504 22.528z m-32.256-33.28c1.536 0.512 2.56 1.024 4.096 1.024 5.12 0 8.704-4.096 8.704-8.704 0-5.12-4.096-8.704-8.704-8.704-5.12 0-8.704 4.096-8.704 8.704 0 1.536 0.512 3.584 1.536 4.608 1.024 1.536 2.048 1.536 3.072 3.072zM492.544 475.136V279.04c-217.088 130.048-351.232 363.52-354.816 616.448h158.72c3.072-161.792 74.24-314.368 196.096-420.352z m-206.848 108.032v-52.736c0-5.632 4.608-10.752 10.752-10.752h52.736c5.632 0 10.752 4.608 10.752 10.752v52.736c0 5.632-4.608 10.752-10.752 10.752H296.448c-5.632-0.512-10.24-5.12-10.752-10.752z" fill="#F7F7F7" p-id="7353"></path><path d="M1262.08 491.008l-3.072-3.072c0.512 1.024 2.048 2.048 3.072 3.072z m10.752 10.24c-1.536 0-3.072 0.512-4.096 1.536l-15.36 15.36c-2.048 2.56-2.048 6.144 0 8.704 2.56 2.048 6.144 2.048 8.704 0l11.776-11.776 13.824 9.728c2.048 1.536 5.12 1.024 7.168-0.512-7.68-8.192-14.848-15.36-22.016-23.04zM492.544 736.256v-261.12c-121.856 105.984-193.024 259.072-196.096 420.352h201.216c1.024-36.864 7.68-73.728 19.456-109.056-14.848-11.776-24.064-30.208-24.576-50.176z m-10.752 64H429.056c-5.632 0-10.752-4.608-10.752-10.752 0-5.632 4.608-10.752 10.752-10.752h52.736c5.632 0 10.752 4.608 10.752 10.752 0 6.144-4.608 10.752-10.752 10.752z" fill="#EFEFEF" p-id="7354"></path><path d="M1251.328 540.672c-6.656 0-12.288-5.12-12.288-11.776V470.016c-57.344-49.152-123.904-86.016-196.096-109.056v69.632c59.904 18.432 100.864 74.24 100.864 136.704 0 22.016-5.12 43.52-14.848 62.976l97.28 97.28c16.384 16.896 16.384 43.52 0 60.416-1.536 1.536-3.584 3.072-5.12 4.608 10.752 33.28 16.384 68.096 17.408 103.424h201.216c-2.048-130.048-48.64-254.976-131.584-354.816l-56.832-0.512z m51.712 259.584h-42.496c-5.632 0-10.752-4.608-10.752-10.752s4.608-10.752 10.752-10.752h42.496c5.632 0 10.752 4.608 10.752 10.752s-5.12 10.752-10.752 10.752z" fill="#EFEFEF" p-id="7355"></path><path d="M762.88 895.488h476.16c-1.024-34.816-6.656-69.632-17.408-103.424-7.168 5.12-15.36 8.192-24.576 8.192-11.264 0-22.016-4.608-30.208-12.288l-95.744-95.744c-8.704 5.12-17.92 8.704-27.648 11.776v32.768c-0.512 15.872-6.656 30.72-16.896 42.496h107.008c5.632 0 10.752 4.608 10.752 10.752 0 5.632-4.608 10.752-10.752 10.752H550.912c-1.536 0-3.072-0.512-4.096-1.024-10.752-1.536-20.48-6.144-29.184-12.8-11.776 35.328-18.432 71.68-19.456 109.056h79.36c5.632 0 10.752 4.608 10.752 10.752h36.864c0-5.632 4.608-10.752 10.752-10.752h68.608c5.632 0 10.752 4.608 10.752 10.752h36.864c0-6.656 4.608-11.264 10.752-11.264z" fill="#E7E7E7" p-id="7356"></path><path d="M74.24 895.488H10.752c-5.632 0-10.752 4.608-10.752 10.752 0 5.632 4.608 10.752 10.752 10.752h63.488c5.632 0 10.752-4.608 10.752-10.752-0.512-6.144-5.12-10.752-10.752-10.752z m630.272 0h-68.608c-5.632 0-10.752 4.608-10.752 10.752 0 5.632 4.608 10.752 10.752 10.752h68.608c5.632 0 10.752-4.608 10.752-10.752-0.512-6.144-5.12-10.752-10.752-10.752z m1006.08 0h-74.24c-5.632 0-10.752 4.608-10.752 10.752 0 5.632 4.608 10.752 10.752 10.752h74.24c5.632 0 10.752-4.608 10.752-10.752 0-6.144-4.608-10.752-10.752-10.752z m-1133.056 0H132.608c-5.632 0-10.752 4.608-10.752 10.752 0 5.632 4.608 10.752 10.752 10.752h444.928c5.632 0 10.752-4.608 10.752-10.752-0.512-6.144-5.12-10.752-10.752-10.752z m1021.952 1.536c-1.536-1.024-3.584-1.536-5.12-1.536H762.88c-5.632 0-10.752 4.608-10.752 10.752 0 5.632 4.608 10.752 10.752 10.752h831.488c5.632 0 10.752-4.608 10.752-10.752-0.512-4.096-2.56-7.168-5.632-9.216z m-296.448-118.272h-42.496c-5.632 0-10.752 4.608-10.752 10.752 0 5.632 4.608 10.752 10.752 10.752h42.496c5.632 0 10.752-4.608 10.752-10.752-0.512-5.632-5.12-10.752-10.752-10.752z m-821.248 0H429.056c-5.632 0-10.752 4.608-10.752 10.752 0 5.632 4.608 10.752 10.752 10.752h52.736c5.632 0 10.752-4.608 10.752-10.752 0-5.632-4.608-10.752-10.752-10.752z m69.12 222.72H487.424c-5.632 0-10.752 4.608-10.752 10.752 0 5.632 4.608 10.752 10.752 10.752h63.488c5.632 0 10.752-4.608 10.752-10.752-0.512-6.144-5.12-10.752-10.752-10.752z m444.928 0h-402.432c-5.632 0-10.752 4.608-10.752 10.752 0 5.632 4.608 10.752 10.752 10.752h402.432c5.632 0 10.752-4.608 10.752-10.752-0.512-6.144-5.12-10.752-10.752-10.752z m307.2 0H1233.92c-5.632 0-10.752 4.608-10.752 10.752 0 5.632 4.608 10.752 10.752 10.752h68.608c5.632 0 10.752-4.608 10.752-10.752 0-6.144-4.608-10.752-10.24-10.752z m-116.736 0h-148.48c-5.632 0-10.752 4.608-10.752 10.752 0 5.632 4.608 10.752 10.752 10.752h148.48c5.632 0 10.752-4.608 10.752-10.752 0-6.144-5.12-10.752-10.752-10.752z m-735.744 0h-31.744c-5.632 0-10.752 4.608-10.752 10.752 0 5.632 4.608 10.752 10.752 10.752H450.56c5.632 0 10.752-4.608 10.752-10.752-0.512-6.144-5.12-10.752-10.752-10.752z" fill="#999999" p-id="7357"></path><path d="M513.536 164.352v571.904c1.024 23.04 19.456 41.472 42.496 42.496h10.752c-12.8-9.216-20.48-23.552-20.992-38.912V165.376c1.024-17.408 9.216-33.28 23.04-43.52h-12.8c-22.528 1.536-40.96 19.968-42.496 42.496z" fill="#FFFFFF" p-id="7358"></path><path d="M545.28 165.376v573.952c0.512 15.872 8.192 30.208 20.992 38.912h413.184c23.04-1.024 41.472-19.456 42.496-42.496v-27.648c-7.168 1.024-14.336 1.536-20.992 1.536-78.848 0-142.848-64-142.848-142.848 0-37.888 15.36-74.752 42.496-101.376-14.336-3.072-23.552-16.896-20.48-31.232 3.072-14.336 16.896-23.552 31.232-20.48 12.288 2.56 20.992 13.312 20.992 26.112v2.048c20.992-11.776 44.544-17.92 68.608-17.92 7.168 0 14.336 0.512 20.992 1.536v-261.12c-1.024-23.04-19.456-41.472-42.496-42.496h-51.712c-7.168 15.872-23.04 26.624-40.96 26.624h-238.592c-17.408 0-33.792-10.24-40.96-26.624H568.32c-13.312 10.24-22.016 26.624-23.04 43.52z m100.864 184.32c0-11.776 9.728-20.992 20.992-20.992 11.776 0 20.992 9.728 20.992 20.992s-9.728 20.992-20.992 20.992c-11.264 0.512-20.992-9.216-20.992-20.992zM609.28 439.808c0-14.848 11.776-26.624 26.624-26.624 14.848 0 26.624 11.776 26.624 26.624 0 14.848-11.776 26.624-26.624 26.624-14.848 0-26.624-11.776-26.624-26.624 0 0.512 0 0 0 0z m246.784 108.544c1.024 5.632-2.56 11.776-8.704 12.8-5.632 1.024-11.776-2.56-12.8-8.704-7.68-37.376-44.544-61.44-81.92-53.76-27.136 5.632-48.128 26.624-53.76 53.76-1.024 5.12-5.632 8.192-10.752 8.704h-2.048c-5.632-1.024-9.728-6.656-8.704-12.8 10.752-49.152 58.88-80.384 108.032-70.144 35.328 7.68 62.976 35.328 70.656 70.144z m38.912-198.656c0 11.776-9.728 20.992-20.992 20.992-11.776 0-20.992-9.728-20.992-20.992 0-11.776 9.728-20.992 20.992-20.992 11.264 0 20.992 9.216 20.992 20.992z" fill="#EFEFEF" p-id="7359"></path><path d="M492.544 736.256c0.512 19.456 9.728 37.888 25.6 49.664 8.704 6.656 18.432 10.752 29.184 12.8 1.536 0.512 2.56 1.024 4.096 1.024h582.656c5.632 0 10.752-4.608 10.752-10.752 0-5.632-4.608-10.752-10.752-10.752h-107.008c10.752-11.776 16.896-26.624 16.896-42.496v-32.768c9.728-3.072 18.944-6.656 27.648-11.776l95.744 95.744c8.192 8.192 18.944 12.288 30.208 12.288 8.704 0 17.408-2.56 24.576-8.192 2.048-1.536 3.584-3.072 5.12-4.608 16.384-16.896 16.384-43.52 0-60.416l-97.28-97.28c9.728-19.456 14.848-40.96 14.848-62.976 0-62.464-40.96-117.76-100.864-136.704V164.352c-1.024-34.816-28.672-62.976-63.488-63.488h-47.616c-1.536-23.552-20.992-42.496-45.056-42.496h-72.704c0.512-3.584 1.024-7.168 1.024-10.752-0.512-26.112-22.016-47.104-48.128-47.104-25.6 0.512-46.592 20.992-47.104 47.104 0 3.584 0.512 7.168 1.024 10.752h-72.704c-24.064 0-43.52 18.432-45.056 42.496h-47.616c-34.816 1.024-62.976 28.672-63.488 63.488l-0.512 571.904z m132.608-632.32c0-13.312 10.752-24.064 23.552-24.064h89.088c4.096 0 7.68-2.048 9.728-5.632 1.536-3.584 1.536-7.68-0.512-11.264-3.584-4.096-5.632-9.216-5.12-14.848 0.512-14.848 12.288-26.112 27.136-26.112 14.336 0.512 25.6 11.776 26.112 26.112 0 5.632-1.536 10.752-4.608 15.36-2.048 3.072-2.56 7.68-0.512 11.264 1.536 3.584 5.632 6.144 9.728 5.632h88.576c13.312 0.512 23.552 11.264 23.552 24.576-0.512 12.8-10.752 23.04-23.552 23.552h-238.592c-13.824-0.512-24.576-11.264-24.576-24.576z m556.544 668.672l-92.672-92.672c11.264-8.704 20.992-18.944 29.184-30.72l93.696 93.696c8.704 8.192 8.704 21.504 0.512 29.696-8.192 8.704-21.504 8.704-29.696 0.512-0.512 0-1.024 0-1.024-0.512z m-180.736-83.968c-67.072 0-121.856-54.272-121.856-121.856 0-67.072 54.272-121.856 121.856-121.856 67.072 0 121.856 54.272 121.856 121.856 0 67.584-54.272 121.856-121.856 121.856zM568.832 122.368h38.912c7.168 15.872 23.04 26.624 40.96 26.624h238.08c17.408 0 33.792-10.24 40.96-26.624h51.712c23.04 1.024 41.472 19.456 42.496 42.496v261.12c-7.168-1.024-14.336-1.536-20.992-1.536-24.064 0-48.128 6.144-68.608 17.92-1.024 13.824-12.8 24.576-26.624 24.576-2.048 0-3.584 0-5.12-0.512-55.808 55.296-56.832 145.92-1.024 201.728 26.624 27.136 63.488 42.496 101.888 42.496 7.168 0 14.336-0.512 20.992-1.536v28.16c-1.024 23.04-19.456 41.472-42.496 42.496h-423.424c-23.04-1.024-41.472-19.456-42.496-42.496V164.352c1.024-23.04 19.456-41.472 42.496-42.496l12.288 0.512z" fill="#999999" p-id="7360"></path><path d="M648.704 127.488h238.08c13.312-0.512 23.552-11.264 23.552-24.576-0.512-12.8-10.752-23.04-23.552-23.552h-89.088c-4.096 0-7.68-2.048-9.728-5.632-1.536-3.584-1.536-7.68 0.512-11.264 3.584-4.096 5.632-9.216 5.12-14.848 0.512-14.848-11.264-26.624-26.112-27.136-14.848-0.512-26.624 11.264-27.136 26.112v1.024c0 5.632 1.536 10.752 4.608 15.36 2.56 3.072 2.56 7.68 0.512 11.264-1.536 3.584-5.632 6.144-9.728 5.632h-89.088c-13.312 0-24.064 10.752-24.064 23.552 2.048 13.824 12.8 24.576 26.112 24.064z" fill="#FFFFFF" p-id="7361"></path><path d="M1211.904 742.4l-93.696-93.696c-8.192 11.776-17.92 22.016-29.184 30.72l92.672 92.672c8.192 8.192 21.504 8.704 29.696 0.512l0.512-0.512c8.192-7.68 8.704-20.992 0.512-29.184l-0.512-0.512z m-89.088-175.104c0 58.368-47.616 105.984-105.984 105.984-58.368 0-105.984-47.616-105.984-105.984 0-58.368 47.616-105.984 105.984-105.984 58.368 0 105.984 47.616 105.984 105.984 0-67.072-54.272-121.856-121.856-121.856s-121.856 54.272-121.856 121.856c0 67.072 54.272 121.856 121.856 121.856 67.584-0.512 121.856-54.784 121.856-121.856z" fill="#EFEFEF" p-id="7362"></path><path d="M910.848 567.296c0 58.368 47.616 105.984 105.984 105.984 58.368 0 105.984-47.616 105.984-105.984 0-58.368-47.616-105.984-105.984-105.984-58.368 0-105.984 47.616-105.984 105.984z" fill="#FFFFFF" p-id="7363"></path><path d="M609.28 439.808c0 14.848 11.776 26.624 26.624 26.624 14.848 0 26.624-11.776 26.624-26.624s-11.776-26.624-26.624-26.624c-4.608 0-9.216 1.024-13.312 3.584-8.704 5.12-13.312 13.824-13.312 23.04z" fill="#EFEFEF" p-id="7364"></path><path d="M609.28 439.808c0 14.848 11.776 26.624 26.624 26.624 14.848 0 26.624-11.776 26.624-26.624s-11.776-26.624-26.624-26.624c-4.608 0-9.216 1.024-13.312 3.584-8.704 5.12-13.312 13.824-13.312 23.04z" fill="#999999" p-id="7365"></path><path d="M905.728 413.696c-14.848 0-26.624 11.776-26.624 26.624 0 12.8 8.704 23.552 20.992 26.112 9.216-9.216 19.968-17.408 31.744-24.064V440.32c0-14.336-11.264-26.112-26.112-26.624 0.512 0 0 0 0 0z" fill="#EFEFEF" p-id="7366"></path><path d="M905.728 413.696c-14.848 0-26.624 11.776-26.624 26.624 0 12.8 8.704 23.552 20.992 26.112 9.216-9.216 19.968-17.408 31.744-24.064V440.32c0-14.336-11.264-26.112-26.112-26.624 0.512 0 0 0 0 0z" fill="#999999" p-id="7367"></path><path d="M905.728 466.432c13.824 0 25.6-10.752 26.624-24.576-11.776 6.144-22.528 14.336-31.744 24.064 1.536 0.512 3.584 0.512 5.12 0.512z" fill="#999999" p-id="7368"></path><path d="M905.728 466.432c13.824 0 25.6-10.752 26.624-24.576-11.776 6.144-22.528 14.336-31.744 24.064 1.536 0.512 3.584 0.512 5.12 0.512zM767.488 476.16c-43.008 0-79.872 30.208-88.576 72.192-1.024 5.632 2.56 11.264 8.704 12.8h2.048c5.12 0 9.216-3.584 10.752-8.704 7.68-37.376 44.544-61.44 81.92-53.76 27.136 5.632 48.128 26.624 53.76 53.76 1.024 5.632 6.656 9.728 12.8 8.704 5.632-1.024 9.728-6.656 8.704-12.8-10.24-41.984-47.104-72.192-90.112-72.192zM646.144 349.696c0 11.776 9.728 20.992 20.992 20.992 11.776 0 20.992-9.728 20.992-20.992 0-11.776-9.728-20.992-20.992-20.992-11.264 0-20.992 9.216-20.992 20.992zM852.992 349.696c0 11.776 9.728 20.992 20.992 20.992 11.776 0 20.992-9.728 20.992-20.992 0-11.776-9.728-20.992-20.992-20.992-11.776 0-20.992 9.216-20.992 20.992z" fill="#999999" p-id="7369"></path><path d="M1251.328 540.672h60.416c6.656 0 12.288-5.12 12.288-11.776V467.968c0-6.656-5.12-12.288-11.776-12.288h-60.928c-6.656 0-12.288 5.12-12.288 11.776v61.44c0.512 6.656 6.144 11.776 12.288 11.776z m37.888-29.696l11.776-16.384c2.048-2.56 5.632-3.584 8.704-1.536 2.56 2.048 3.584 5.632 1.536 8.704l-15.36 20.992-1.024 1.024c-2.048 1.536-4.608 1.536-7.168 0.512l-13.824-9.728-11.776 11.776c-2.56 2.048-6.144 2.048-8.704 0-2.048-2.56-2.048-6.144 0-8.704l15.36-15.36c1.024-1.024 2.56-1.536 4.096-1.536 1.024 0 2.048 0.512 3.072 1.024l13.312 9.216z m-23.04-37.376c5.12 0 9.216 3.584 9.216 8.704s-3.584 9.216-8.704 9.216h-0.512c-1.536 0-3.072-0.512-4.096-1.024-1.536-0.512-2.56-1.536-3.072-3.072-1.024-1.536-1.536-3.072-1.536-4.608 0-5.12 4.096-8.704 8.704-9.216z" fill="#D6D6D6" p-id="7370"></path><path d="M289.28 600.064h58.368c6.656 0 11.776-5.12 11.776-11.264v-58.88c0-6.656-5.12-11.776-11.264-11.776H289.28c-6.656 0-11.776 5.12-11.776 11.264v58.88c0 6.656 5.12 11.776 11.776 11.776-0.512 0 0 0 0 0z m11.776-60.928c0-2.048 1.024-4.096 3.072-5.12 2.048-1.024 4.096-1.024 6.144 0.512l29.184 20.48c1.536 1.024 2.56 2.56 2.56 4.608s-1.024 3.584-2.56 4.608l-29.184 20.48c-1.024 0.512-2.56 1.024-3.584 1.024-1.024 0-2.048 0-2.56-0.512-2.048-1.024-3.072-3.072-3.072-5.12v-40.96z" fill="#D3D3D3" p-id="7371"></path><path d="M254.976 189.952h39.424c13.312 0 19.456 6.656 19.456 19.456v39.424c0 13.312-6.656 19.456-19.456 19.456h-39.424c-13.312 0-19.456-6.656-19.456-19.456v-39.424c-0.512-12.8 6.144-19.456 19.456-19.456z" fill="#F2F2F2" p-id="7372"></path><path d="M470.016 43.008c13.312 0 19.456 6.656 19.456 19.456 0 13.312-6.656 19.456-19.456 19.456-13.312 0-19.456-6.656-19.456-19.456s6.656-19.456 19.456-19.456z" fill="#E3E3E3" p-id="7373"></path></svg>