<?xml version="1.0" encoding="UTF-8"?>
<svg width="20px" height="20px" viewBox="0 0 20 20" version="1.1" xmlns="http://www.w3.org/2000/svg" xmlns:xlink="http://www.w3.org/1999/xlink">
    <!-- Generator: Sketch 52.4 (67378) - http://www.bohemiancoding.com/sketch -->
    <!-- <title>院感</title>-->
    <desc>Created with Sketch.</desc>
    <g id="页面-1" stroke="none" stroke-width="1" fill="none" fill-rule="evenodd">
        <g id="电子病历-copy" transform="translate(-539.000000, -8.000000)" fill="#FFB348">
            <path d="M541,8 L557,8 C558.104569,8 559,8.8954305 559,10 L559,26 C559,27.1045695 558.104569,28 557,28 L541,28 C539.895431,28 539,27.1045695 539,26 L539,10 C539,8.8954305 539.895431,8 541,8 Z M554.234891,19.0852398 C555,17.6880498 555,15.8097628 555,15.8097628 C554.958399,14.5581202 554.56838,13.5174447 553.843389,12.7195678 C552.423156,11.1240337 550.181967,11 549.528894,11 C549.482507,11 549.448086,11.0005488 549.427799,11.0008781 L549.413096,11.0010976 C547.594523,11.022831 546.205177,11.5607859 545.286317,12.5968513 C544.055395,13.9572703 543.977664,15.7459897 544.010147,16.5158766 C542.990647,17.344268 542.741272,18.8879933 543.2692,21.1095134 L543.281168,21.1500165 C543.88922,22.8431311 545.189097,23.5102787 545.203913,23.5175231 L545.330425,23.5777837 L546.943274,23.5777837 C547.032174,23.5777837 547.071039,23.6037979 547.087452,23.618177 C547.177377,23.7219043 547.211684,24.0442821 547.187863,24.285544 L547.016674,25 L553.98221,25 L553.98221,24.6102269 L553.981526,24.3776363 C553.974232,24.1250686 553.846581,21.058034 553.845555,20.48704 C553.845213,20.3111975 553.958161,19.7839995 553.958161,19.7839995 C554.02666,19.5914729 554.116928,19.3633826 554.234891,19.0852398 Z M554.125362,16.3817446 C554.077948,16.894344 553.910634,17.6718047 553.443568,18.7741678 C553.038617,19.7297759 552.912676,20.2188857 552.915411,20.6283067 L548.412858,21.7991627 L548.412858,18.1931852 L554.125362,16.3817446 Z M544.407119,17.225503 C544.480006,17.1522275 544.559915,17.0857445 544.645781,17.0269393 L544.848428,16.8875386 L544.830192,16.6674612 C544.799875,16.3035924 544.709151,14.4213539 545.899156,13.1061578 C546.662556,12.245386 547.84823,11.7995233 549.418111,11.7806439 L549.442502,11.7803146 C549.45994,11.780095 549.489117,11.7795462 549.528894,11.7795462 C550.094662,11.7795462 552.033478,11.8838223 553.231462,13.2297524 C553.777284,13.8307121 554.093677,14.6086118 554.173915,15.5454503 L548.302075,17.4073824 L544.407119,17.225503 Z M548.002779,24.2204538 C548.013265,23.9347373 547.985455,23.4052342 547.677382,23.083954 L547.666327,23.0727581 C547.502204,22.9145877 547.28873,22.8219466 547.044369,22.802189 L548.482838,22.5883681 L553.035882,21.4043404 C553.082725,21.6177222 553.159202,23.8492309 553.167636,24.220344 L548.002779,24.220344 L548.002779,24.2204538 Z" id="合并形状"></path>
        </g>
    </g>
</svg>