<?xml version="1.0" standalone="no"?><!DOCTYPE svg PUBLIC "-//W3C//DTD SVG 1.1//EN" "http://www.w3.org/Graphics/SVG/1.1/DTD/svg11.dtd"><svg t="1582270510911" class="icon" viewBox="0 0 1024 1024" version="1.1" xmlns="http://www.w3.org/2000/svg" p-id="23173" xmlns:xlink="http://www.w3.org/1999/xlink" width="200" height="200"><defs><style type="text/css"></style></defs><path d="M665.9 229.6V314L535.5 470.4c-5.8 6.9-14.3 10.9-23.5 10.9s-17.7-4-23.5-10.9L358.1 314v-84.4h307.8z m0 0" p-id="23174" ></path><path d="M770.3 340.3V149.7c0-11.8-9.8-21.3-22-21.3H275.7c-12.1 0-22 9.5-22 21.3v190.6c0 4.9 1.7 9.7 4.9 13.4L393.1 514 258.7 672.3c-4 4.9-4.9 5.8-4.9 13.5v188.5c0 13.6 10.1 20.8 22 21.3h472.6c12.1 0 22-9.5 22-21.3V685.8c0-4.9-1.8-9.7-5-13.5L630.9 514l134.5-160.3c3.1-3.8 4.9-8.5 4.9-13.4zM565.6 507.4c-3.3 3.9-3.3 9.6 0 13.5l149.7 176.4v145.1H308.7V697.3l149.7-176.4c3.3-3.9 3.3-9.6 0-13.5L308.7 328.9V181.6h406.7v147.3L565.6 507.4z m0 0" p-id="23175"></path></svg>