<svg width="20" height="20" xmlns="http://www.w3.org/2000/svg"><path d="M2 0h16a2 2 0 0 1 2 2v16a2 2 0 0 1-2 2H2a2 2 0 0 1-2-2V2a2 2 0 0 1 2-2zm12.344 6.636c-.456-.48-1.392-1.2-2.028-1.692l-1.056.876c.66.528 1.548 1.308 1.98 1.788l1.104-.972zm.852 2.544V7.776h-4.38V4.848H9.244v2.928H4.756V9.18h4.08c-.984 1.788-2.712 3.492-4.548 4.404.348.3.828.888 1.08 1.26 1.476-.852 2.82-2.172 3.876-3.708v4.908h1.572v-5.436c1.068 1.62 2.424 3.156 3.744 4.14.264-.396.78-.984 1.152-1.284-1.56-.972-3.252-2.652-4.296-4.284h3.78z"/></svg>