<svg width="20" height="20" xmlns="http://www.w3.org/2000/svg"><path d="M2 0h16a2 2 0 0 1 2 2v16a2 2 0 0 1-2 2H2a2 2 0 0 1-2-2V2a2 2 0 0 1 2-2zm3.604 14.152H4.002v1.958h3.736a.591.591 0 0 0 .592-.589v-1.047a1.29 1.29 0 0 0-.577-1.055 4.08 4.08 0 0 1-1.78-3.364c0-2.593 2.397-4.551 5.01-4.004a4.108 4.108 0 0 1 3.172 3.28 4.077 4.077 0 0 1-1.693 4.072c-.378.263-.602.657-.602 1.076v1.042c0 .325.265.589.592.59h3.736v-1.96h-1.602l.254-.312a5.985 5.985 0 0 0 1.348-3.784c0-3.609-3.169-6.434-6.819-6.013-2.683.31-4.893 2.43-5.296 5.08a5.992 5.992 0 0 0 1.276 4.717l.255.313z"/></svg>