<svg width="22" height="22" xmlns="http://www.w3.org/2000/svg"><path d="M8.01 11.576c.782 1.69 1.929 4.01 1.985 4.458.062.499-.039.927-.366 1.76-.082.208-.452 1.114-.53 1.305a60.623 60.623 0 0 0-.753 1.967.5.5 0 0 1-.94-.342c.26-.712.5-1.34.766-1.998.08-.197.447-1.098.526-1.298.162-.412.252-.684.29-.897-.249.183-.484.363-.723.55-.16.125-.632.501-.717.568-.514.4-.787.546-1.166.538-.431-.009-2.658-1.349-3.374-1.708a.5.5 0 0 1 .449-.894c1.015.51 2.826 1.6 2.945 1.602.07.002.195-.065.53-.327.08-.062.551-.438.717-.567a28.97 28.97 0 0 1 1.086-.812c-.343-.764-.956-2.024-1.487-3.165l-.26.241C4.99 14.385.323 16.465.019 15.636c-.304-.83 3.12-2.058 5.438-4.121 1.123-1 2.31-2.45 3.386-3.837a6.19 6.19 0 0 0 .025-1.144 30.213 30.213 0 0 1-1.057-.086l-.896-.093c-.42-.04-.56-.029-.623.012-.104.067-1.103 1.909-1.722 2.868a.5.5 0 1 1-.84-.542c.294-.455.916-1.572 1.41-2.355l-2.187-1.17a.5.5 0 0 1 .472-.882l2.322 1.243a.231.231 0 0 1 .003-.003c.316-.204.623-.227 1.26-.166.113.01.705.074.898.093.277.027.548.05.83.07l-.134-.747c-.336-1.981.15-3.135 2.43-4.69a.5.5 0 0 1 .563.827C9.641 2.246 9.32 3.012 9.59 4.61c.012.071.137.754.172.975.043.271.075.522.095.77.725-.951 1.358-1.778 1.83-2.276C13.015 2.681 16.72-.147 17.799.256c1.351.505 1.676 1.818 1.204 2.51-.706.682-3.25.24-5.968 3.246-2.231 2.467-3.527 4.061-5.023 5.564zM16.5 20a5.5 5.5 0 1 1 0-11 5.5 5.5 0 0 1 0 11zm.078-3.963a1.15 1.15 0 1 0 0 2.3 1.15 1.15 0 0 0 0-2.3zm-.035-5.607a1.107 1.107 0 0 0-1.085 1.324l.547 2.735a.549.549 0 0 0 1.077 0l.547-2.735a1.107 1.107 0 0 0-1.086-1.324z"/></svg>