<svg class="icon" viewBox="0 0 1024 1024" xmlns="http://www.w3.org/2000/svg" width="32" height="32"><path d="M512 0a512 512 0 1 1 0 1024A512 512 0 0 1 512 0zm-42.667 426.667a42.667 42.667 0 0 0-42.666 42.666v341.334a42.667 42.667 0 0 0 42.666 42.666h85.334a42.667 42.667 0 0 0 42.666-42.666V469.333a42.667 42.667 0 0 0-42.666-42.666h-85.334zm0-256a42.667 42.667 0 0 0-42.666 42.666v85.334a42.667 42.667 0 0 0 42.666 42.666h85.334a42.667 42.667 0 0 0 42.666-42.666v-85.334a42.667 42.667 0 0 0-42.666-42.666h-85.334z"/></svg>