<svg width="20" height="20" xmlns="http://www.w3.org/2000/svg"><path d="M2 0h16a2 2 0 0 1 2 2v16a2 2 0 0 1-2 2H2a2 2 0 0 1-2-2V2a2 2 0 0 1 2-2zm8.564 6.756c-.144.288-.312.6-.492.876h-2.58c.228-.288.432-.576.624-.876h2.448zm4.776 2.172V7.632h-3.612c.324-.504.636-1.032.876-1.476l-1.044-.66-.24.06H8.824l.252-.504-1.572-.264a9.093 9.093 0 0 1-3.216 3.876c.336.216.804.732 1.044 1.068.204-.144.396-.3.576-.456v.612c0 1.56-.132 3.72-1.596 5.232.312.168.876.672 1.104.948C7.036 14.4 7.324 11.724 7.324 9.9v-.972h8.016zm-4.716 5.748c-.876 0-1.032-.084-1.032-.624v-3.084h2.868c-.06.792-.132 1.164-.252 1.284-.108.096-.204.108-.384.108a8.42 8.42 0 0 1-1.116-.048c.204.336.36.852.372 1.236.588.012 1.14.012 1.452-.024.348-.048.612-.144.852-.408.288-.324.408-1.128.504-2.868a17.4 17.4 0 0 0 .024-.492h-5.7v4.308c0 1.5.54 1.908 2.328 1.908h2.856c1.596 0 2.016-.528 2.22-2.484-.372-.084-.984-.312-1.308-.528-.096 1.464-.216 1.716-1.008 1.716h-2.676z"/></svg>