<svg class="icon" width="32" height="30.01" viewBox="0 0 1092 1024" xmlns="http://www.w3.org/2000/svg"><path d="M517.538.016a44.83 44.83 0 0 1 33.238 13.45l232.732 232.732a46.822 46.822 0 0 1-66.22 66.22L564.225 158.715v475.327a46.56 46.56 0 0 1-93.119 0V158.971L318.044 312.674a46.623 46.623 0 0 1-33.11 13.45 46.623 46.623 0 0 1-46.56-46.56 46.56 46.56 0 0 1 13.45-33.11l232.54-232.989A44.83 44.83 0 0 1 517.473.016zm459.957 619.616a46.623 46.623 0 0 1 46.559 46.56v154.151a139.037 139.037 0 0 1-138.525 139.614h-745.91A139.101 139.101 0 0 1 .007 820.343v-154.28a44.83 44.83 0 0 1 13.641-32.918 44.83 44.83 0 0 1 32.918-13.64 44.83 44.83 0 0 1 32.918 13.64 44.83 44.83 0 0 1 13.642 32.919v154.151a46.56 46.56 0 0 0 46.559 46.56H885.53a43.229 43.229 0 0 0 32.021-13.642 45.535 45.535 0 0 0 13.257-32.918V666.064a46.623 46.623 0 0 1 46.56-46.56z"/></svg>