<svg class="icon" viewBox="0 0 1024 1024" xmlns="http://www.w3.org/2000/svg" width="32" height="32"><path d="M772.267 72.533c0-21.333-17.067-38.4-38.4-38.4s-38.4 17.067-38.4 38.4V153.6c0 21.333 17.066 38.4 38.4 38.4s38.4-17.067 38.4-38.4V72.533zm-200.534 0c0-21.333-17.066-38.4-38.4-38.4s-38.4 17.067-38.4 38.4V153.6c0 21.333 17.067 38.4 38.4 38.4s38.4-17.067 38.4-38.4V72.533zm-196.266 0c0-21.333-17.067-38.4-38.4-38.4S294.4 51.2 294.4 72.533V153.6c0 21.333 17.067 38.4 38.4 38.4s38.4-17.067 38.4-38.4V72.533zm0 0"/><path d="M878.933 110.933h-68.266v38.4c0 42.667-34.134 81.067-81.067 81.067-42.667 0-81.067-34.133-81.067-81.067v-38.4h-38.4v38.4C610.133 192 576 230.4 529.067 230.4S448 196.267 448 149.333v-38.4h-34.133v38.4c0 42.667-34.134 81.067-81.067 81.067-42.667 0-76.8-34.133-76.8-76.8v-42.667h-68.267c-21.333 0-38.4 17.067-38.4 42.667v695.467c0 21.333 17.067 38.4 38.4 38.4h686.934c21.333 0 38.4-17.067 38.4-38.4V153.6c4.266-25.6-12.8-42.667-34.134-42.667zM221.867 362.667c0-8.534 4.266-17.067 12.8-17.067H652.8c8.533 0 12.8 4.267 12.8 12.8v4.267c0 8.533-4.267 12.8-12.8 12.8H234.667c-8.534-4.267-12.8-8.534-12.8-12.8zm55.466 98.133c0-8.533 4.267-17.067 12.8-17.067h302.934c8.533 0 12.8 4.267 12.8 12.8v4.267c0 8.533-4.267 12.8-12.8 12.8H290.133c-8.533 0-12.8-8.533-12.8-12.8zM844.8 691.2h-68.267c-4.266 0-8.533-4.267-12.8-8.533l-4.266-12.8L704 768c-4.267 4.267-8.533 8.533-12.8 4.267-4.267 0-8.533-4.267-8.533-8.534V678.4L640 785.067c0 4.266-8.533 8.533-12.8 8.533-4.267 0-12.8-4.267-12.8-8.533l-12.8-179.2-55.467 102.4c-4.266 4.266-8.533 8.533-12.8 4.266-4.266 0-8.533-4.266-8.533-8.533v-42.667L512 678.4c0 4.267-4.267 4.267-8.533 4.267h-153.6c-8.534 0-12.8-4.267-12.8-12.8s4.266-12.8 12.8-12.8h140.8l29.866-46.934c4.267-4.266 8.534-4.266 12.8-4.266 4.267 0 8.534 4.266 8.534 8.533v34.133l51.2-98.133c4.266-4.267 8.533-8.533 12.8-4.267 4.266 0 8.533 4.267 8.533 8.534l12.8 166.4L674.133 601.6c0-4.267 8.534-8.533 12.8-8.533 4.267 0 12.8 4.266 12.8 8.533v106.667l42.667-76.8c0-4.267 8.533-4.267 12.8-4.267 4.267 0 8.533 4.267 12.8 8.533l12.8 25.6h59.733c8.534 0 12.8 4.267 12.8 12.8 4.267 12.8-4.266 17.067-8.533 17.067z"/></svg>