<?xml version="1.0" encoding="UTF-8"?>
<svg width="65px" height="37px" viewBox="0 0 65 37" version="1.1" xmlns="http://www.w3.org/2000/svg" xmlns:xlink="http://www.w3.org/1999/xlink">
    <!-- Generator: Sketch 52.4 (67378) - http://www.bohemiancoding.com/sketch -->
    <title>合并形状</title>
    <desc>Created with Sketch.</desc>
    <g id="页面-1" stroke="none" stroke-width="1" fill="none" fill-rule="evenodd">
        <g id="换床" transform="translate(-625.000000, -401.000000)" fill="#D8D8D8">
            <g id="分组-21" transform="translate(474.000000, 393.000000)">
                <path d="M204.091883,30 L154.5,30 C152.567003,30 151,28.4329966 151,26.5 C151,24.5670034 152.567003,23 154.5,23 L204.050253,23 L195.474874,14.4246212 C194.108039,13.0577862 194.108039,10.8417088 195.474874,9.47487373 C196.841709,8.10803871 199.057786,8.10803871 200.424621,9.47487373 L214.566757,23.6170094 C214.635639,23.6858916 214.70105,23.7569308 214.76299,23.8299093 C215.519737,24.4719149 216,25.4298717 216,26.5 C216,27.5139726 215.568818,28.4272374 214.879809,29.066441 C214.784938,29.1910704 214.680587,29.3107908 214.566757,29.4246212 L200.424621,43.5667568 C199.057786,44.9335918 196.841709,44.9335918 195.474874,43.5667568 C194.108039,42.1999218 194.108039,39.9838444 195.474874,38.6170094 L204.091883,30 Z" id="合并形状"></path>
            </g>
        </g>
    </g>
</svg>