<?xml version="1.0" encoding="UTF-8"?>
<svg width="16px" height="20px" viewBox="0 0 16 20" version="1.1" xmlns="http://www.w3.org/2000/svg" xmlns:xlink="http://www.w3.org/1999/xlink">
    <!-- Generator: Sketch 52.4 (67378) - http://www.bohemiancoding.com/sketch -->
    <title>合并形状</title>
    <desc>Created with Sketch.</desc>
    <g id="页面-1" stroke="none" stroke-width="1" fill="none" fill-rule="evenodd">
        <g id="首页" transform="translate(-715.000000, -11.000000)" fill="#FFFFFF">
            <path d="M724.648618,18 L723.658189,19.1328771 C723.308145,19.5332662 723.348957,20.1416125 723.749347,20.4916567 C723.758465,20.4996287 723.767733,20.5074279 723.777146,20.5150502 L723.780562,20.5178166 C724.208432,20.8642984 724.835885,20.7997475 725.184249,20.3734087 L727.370321,17.69802 C727.477606,17.5667214 727.546738,17.4147548 727.57749,17.2567943 C727.642663,16.9628944 727.573562,16.6461469 727.371443,16.4020631 L725.185138,13.7618254 C724.83562,13.3397386 724.211494,13.2775922 723.785607,13.622469 L723.777146,13.6293204 C723.764591,13.6394876 723.752296,13.6499733 723.740276,13.6607673 C723.349788,14.011405 723.317483,14.6122059 723.668121,15.0026936 L724.56365,16 L720,16 C719.447715,16 719,16.4477153 719,17 C719,17.5522847 719.447715,18 720,18 L724.648618,18 Z M717,11 L729,11 C730.104569,11 731,11.8954305 731,13 L731,29 C731,30.1045695 730.104569,31 729,31 L717,31 C715.895431,31 715,30.1045695 715,29 L715,13 C715,11.8954305 715.895431,11 717,11 Z M719.5,23 C719.223858,23 719,23.2238576 719,23.5 C719,23.7761424 719.223858,24 719.5,24 L726.5,24 C726.776142,24 727,23.7761424 727,23.5 C727,23.2238576 726.776142,23 726.5,23 L719.5,23 Z M719.5,26 C719.223858,26 719,26.2238576 719,26.5 C719,26.7761424 719.223858,27 719.5,27 L726.5,27 C726.776142,27 727,26.7761424 727,26.5 C727,26.2238576 726.776142,26 726.5,26 L719.5,26 Z" id="合并形状"></path>
        </g>
    </g>
</svg>