<?xml version="1.0" standalone="no"?><!DOCTYPE svg PUBLIC "-//W3C//DTD SVG 1.1//EN" "http://www.w3.org/Graphics/SVG/1.1/DTD/svg11.dtd">
<svg t="1552959404329" class="icon" style="" viewBox="0 0 1184 1024" version="1.1" xmlns="http://www.w3.org/2000/svg" p-id="9333" 
xmlns:xlink="http://www.w3.org/1999/xlink" width="28" height="26"><defs><style type="text/css"></style></defs><path d="M146.272 585.152l987.424 0q14.848 0 25.728 10.848t10.848 25.728l0 256-146.272 0 0-146.272-877.728 0 0 146.272-146.272 0 0-694.848q0-14.848 10.848-25.728t25.728-10.848l73.152 0q14.848 0 25.728 10.848t10.848 25.728l0 402.272zM475.424 402.272q0-60.576-42.848-103.424t-103.424-42.848-103.424 42.848-42.848 103.424 42.848 103.424 103.424 42.848 103.424-42.848 42.848-103.424zM1170.272 548.576l0-36.576q0-90.848-64.288-155.136t-155.136-64.288l-402.272 0q-14.848 0-25.728 10.848t-10.848 25.728l0 219.424 658.272 0z" p-id="9334" fill="#0071e7"></path></svg>