<?xml version="1.0" encoding="UTF-8"?>
<svg width="13px" height="15px" viewBox="0 0 13 15" version="1.1" xmlns="http://www.w3.org/2000/svg" xmlns:xlink="http://www.w3.org/1999/xlink">
    <!-- Generator: Sketch 52.4 (67378) - http://www.bohemiancoding.com/sketch -->
    <title>形状</title>
    <desc>Created with Sketch.</desc>
    <g id="页面-1" stroke="none" stroke-width="1" fill="none" fill-rule="evenodd">
        <g id="患者管理" transform="translate(-398.000000, -365.000000)" fill="#FFA828" fill-rule="nonzero">
            <g id="生日" transform="translate(404.500000, 372.500000) scale(-1, 1) translate(-404.500000, -372.500000) translate(398.000000, 365.000000)">
                <path d="M6.5,4.09090909 C7.29774464,4.09090909 7.94444444,3.4803883 7.94444444,2.72727273 C7.94444444,2.46818183 7.87222221,2.22954545 7.735,2.025 L6.5,0 L5.265,2.025 C5.12777777,2.22954545 5.05555556,2.46818181 5.05555556,2.72727273 C5.05555556,3.47727273 5.70555556,4.09090909 6.5,4.09090909 Z M9.82222223,10.9022727 L9.04944444,10.1727273 L8.26944444,10.9022727 C7.33055554,11.7886364 5.68388888,11.7954545 4.73777777,10.9022727 L3.965,10.1727273 L3.17777777,10.9022727 C2.70833333,11.3454545 2.08,11.5909091 1.41555556,11.5909091 C0.888333333,11.5909091 0.404444456,11.4340909 0,11.175 L0,14.3181818 C0,14.6931818 0.325,15 0.722222228,15 L12.2777778,15 C12.675,15 13,14.6931818 13,14.3181818 L13,11.175 C12.5955556,11.4340909 12.1116667,11.5909091 11.5844444,11.5909091 C10.92,11.5909091 10.2916667,11.3454545 9.82222223,10.9022727 Z M10.8333333,6.13636363 L7.22222223,6.13636363 L7.22222223,4.77272728 L5.77777777,4.77272728 L5.77777777,6.13636363 L2.16666667,6.13636363 C0.967777772,6.13636363 0,7.04999999 0,8.18181818 L0,9.23181818 C0,9.96818182 0.635555561,10.5681818 1.41555556,10.5681818 C1.79111112,10.5681818 2.15222223,10.4318182 2.41222223,10.1795454 L3.95777777,8.72727272 L5.49611111,10.1795454 C6.03055554,10.6840909 6.96222221,10.6840909 7.49666667,10.1795454 L9.04222223,8.72727272 L10.5805556,10.1795454 C10.8477778,10.4318182 11.2016667,10.5681818 11.5772222,10.5681818 C12.3572222,10.5681818 12.9927778,9.9681818 12.9927778,9.23181818 L12.9927778,8.18181818 C13,7.04999999 12.0322222,6.13636363 10.8333333,6.13636363 Z" id="形状"></path>
            </g>
        </g>
    </g>
</svg>