<?xml version="1.0" encoding="UTF-8"?>
<svg width="14px" height="13px" viewBox="0 0 14 13" version="1.1" xmlns="http://www.w3.org/2000/svg" xmlns:xlink="http://www.w3.org/1999/xlink">
    <!-- Generator: Sketch 52.4 (67378) - http://www.bohemiancoding.com/sketch -->
    <title>合并形状</title>
    <desc>Created with Sketch.</desc>
    <g id="页面-1" stroke="none" stroke-width="1" fill="none" fill-rule="evenodd">
        <g id="普诊-急门诊" transform="translate(-164.000000, -100.000000)" fill="#0071E7">
            <g id="分组-6" transform="translate(138.000000, 90.000000)">
                <path d="M28.773808,12.8954758 L32.7667239,10.2335318 C33.2262526,9.92717937 33.847122,10.0513532 34.1534744,10.5108819 C34.2629861,10.6751494 34.3214241,10.8681571 34.3214241,11.0655821 L34.3214241,21.1975881 C34.3214241,21.7498729 33.8737089,22.1975881 33.3214241,22.1975881 C33.1239991,22.1975881 32.9309914,22.1391501 32.7667239,22.0296384 L28.773808,19.3676945 L27,19.3676945 C26.4477153,19.3676945 26,18.9199793 26,18.3676945 L26,13.8954758 C26,13.343191 26.4477153,12.8954758 27,12.8954758 L28.773808,12.8954758 Z M36.3556225,13.1360596 C36.1246219,13.0273029 36.0255236,12.7518751 36.1342803,12.5208745 C36.243037,12.2898739 36.5184647,12.1907756 36.7494654,12.2995323 C38.3756716,13.0651614 39.2169353,14.3215947 39.2169353,16.0066331 C39.2169353,17.6916714 38.3756716,18.9481048 36.7494654,19.7137339 C36.5184647,19.8224906 36.243037,19.7233923 36.1342803,19.4923916 C36.0255236,19.261391 36.1246219,18.9859633 36.3556225,18.8772066 C37.6655363,18.2604901 38.2923326,17.3243654 38.2923326,16.0066331 C38.2923326,14.6889008 37.6655363,13.752776 36.3556225,13.1360596 Z" id="合并形状"></path>
            </g>
        </g>
    </g>
</svg>