<?xml version="1.0" encoding="UTF-8"?>
<svg width="20px" height="20px" viewBox="0 0 20 20" version="1.1" xmlns="http://www.w3.org/2000/svg" xmlns:xlink="http://www.w3.org/1999/xlink">
    <!-- Generator: Sketch 52.4 (67378) - http://www.bohemiancoding.com/sketch -->
    <title>合并形状</title>
    <desc>Created with Sketch.</desc>
    <g id="页面-1" stroke="none" stroke-width="1" fill="none" fill-rule="evenodd">
        <g id="首页-留观-床位卡-copy-3" transform="translate(-1234.000000, -278.000000)" fill="#0071E7">
            <path d="M1236,278 L1245,278 C1246.10457,278 1247,278.895431 1247,280 L1247,289 C1247,290.104569 1246.10457,291 1245,291 L1236,291 C1234.89543,291 1234,290.104569 1234,289 L1234,280 C1234,278.895431 1234.89543,278 1236,278 Z M1236,293 L1252,293 C1253.10457,293 1254,293.895431 1254,295 L1254,296 C1254,297.104569 1253.10457,298 1252,298 L1236,298 C1234.89543,298 1234,297.104569 1234,296 L1234,295 C1234,293.895431 1234.89543,293 1236,293 Z M1251,278 L1252,278 C1253.10457,278 1254,278.895431 1254,280 L1254,289 C1254,290.104569 1253.10457,291 1252,291 L1251,291 C1249.89543,291 1249,290.104569 1249,289 L1249,280 C1249,278.895431 1249.89543,278 1251,278 Z" id="合并形状"></path>
        </g>
    </g>
</svg>