<?xml version="1.0" encoding="UTF-8"?>
<svg width="20px" height="20px" viewBox="0 0 20 20" version="1.1" xmlns="http://www.w3.org/2000/svg" xmlns:xlink="http://www.w3.org/1999/xlink">
    <!-- Generator: Sketch 52.4 (67378) - http://www.bohemiancoding.com/sketch -->
    <title>合并形状</title>
    <desc>Created with Sketch.</desc>
    <g id="页面-1" stroke="none" stroke-width="1" fill="none" fill-rule="evenodd">
        <g id="首页-留观-列表" transform="translate(-1204.000000, -278.000000)" fill="#0071E7" fill-rule="nonzero">
            <path d="M1206,280 L1206,289 L1215,289 L1215,280 L1206,280 Z M1206,278 L1215,278 C1216.10457,278 1217,278.895431 1217,280 L1217,289 C1217,290.104569 1216.10457,291 1215,291 L1206,291 C1204.89543,291 1204,290.104569 1204,289 L1204,280 C1204,278.895431 1204.89543,278 1206,278 Z M1206,295 L1206,296 L1222,296 L1222,295 L1206,295 Z M1206,293 L1222,293 C1223.10457,293 1224,293.895431 1224,295 L1224,296 C1224,297.104569 1223.10457,298 1222,298 L1206,298 C1204.89543,298 1204,297.104569 1204,296 L1204,295 C1204,293.895431 1204.89543,293 1206,293 Z M1221,280 L1221,289 L1222,289 L1222,280 L1221,280 Z M1221,278 L1222,278 C1223.10457,278 1224,278.895431 1224,280 L1224,289 C1224,290.104569 1223.10457,291 1222,291 L1221,291 C1219.89543,291 1219,290.104569 1219,289 L1219,280 C1219,278.895431 1219.89543,278 1221,278 Z" id="合并形状"></path>
        </g>
    </g>
</svg>