<?xml version="1.0" encoding="UTF-8"?>
<svg width="13px" height="12px" viewBox="0 0 13 12" version="1.1" xmlns="http://www.w3.org/2000/svg" xmlns:xlink="http://www.w3.org/1999/xlink">
    <!-- Generator: Sketch 52.4 (67378) - http://www.bohemiancoding.com/sketch -->
    <title>查 copy</title>
    <desc>Created with Sketch.</desc>
    <g id="页面-1" stroke="none" stroke-width="1" fill="none" fill-rule="evenodd">
        <g id="首页" transform="translate(-168.000000, -251.000000)" fill="#48AE39">
            <g id="分组-6" transform="translate(32.000000, 144.000000)">
                <g id="分组-9">
                    <path d="M137.001,118.585 L137.001,117.714 L148.051,117.714 L148.051,118.585 L137.001,118.585 Z M145.087,114.49 L145.087,113.411 L139.848,113.411 L139.848,114.49 L145.087,114.49 Z M145.087,116.245 L145.087,115.166 L139.848,115.166 L139.848,116.245 L145.087,116.245 Z M138.899,112.722 L146.075,112.722 L146.075,116.934 L138.899,116.934 L138.899,112.722 Z M148.233,109.628 L143.969,109.628 C145.1,110.798 146.842,111.864 148.48,112.371 C148.272,112.54 147.986,112.917 147.843,113.151 C146.049,112.488 144.138,111.162 142.942,109.68 L142.942,112.332 L141.993,112.332 L141.993,109.693 C140.823,111.214 138.899,112.553 137.144,113.255 C136.988,113.034 136.702,112.67 136.507,112.488 C138.093,111.942 139.835,110.85 140.94,109.628 L136.78,109.628 L136.78,108.77 L141.993,108.77 L141.993,107.132 L142.942,107.132 L142.942,108.77 L148.233,108.77 L148.233,109.628 Z" id="查-copy"></path>
                </g>
            </g>
        </g>
    </g>
</svg>