<?xml version="1.0" encoding="UTF-8"?>
<svg width="28px" height="26px" viewBox="0 0 28 26" version="1.1" xmlns="http://www.w3.org/2000/svg" xmlns:xlink="http://www.w3.org/1999/xlink">
    <!-- Generator: Sketch 52.4 (67378) - http://www.bohemiancoding.com/sketch -->
    <title>合并形状</title>
    <desc>Created with Sketch.</desc>
    <g id="页面-1" stroke="none" stroke-width="1" fill="none" fill-rule="evenodd">
        <g id="医嘱管理-医嘱转抄-输液瓶贴" transform="translate(-955.000000, -580.000000)" fill="#0071E7">
            <g id="分组-12-copy" transform="translate(303.000000, 412.000000)">
                <g id="分组-11-copy" transform="translate(355.000000, 0.000000)">
                    <path d="M324.315789,194 C312.28713,194 303.432285,194 297.751256,194 C297.721482,193.903878 325.021889,168.911018 325.000013,168.776191 C325.000004,173.948653 325,182.04068 325,193.052272 C325,193.573522 324.692105,194 324.315789,194 Z M321.216081,182.655203 L315.615528,188.499872 L312.614092,185.97079 C312.191752,185.614915 311.560883,185.668797 311.205009,186.091138 C310.849134,186.513479 310.903016,187.144347 311.325357,187.500221 L315.044157,190.633772 C315.447546,190.973677 316.045588,190.941793 316.41055,190.560924 L322.66013,184.038938 C323.042237,183.640175 323.028736,183.007154 322.629973,182.625046 C322.231209,182.242938 321.598188,182.25644 321.216081,182.655203 Z" id="合并形状"></path>
                </g>
            </g>
        </g>
    </g>
</svg>