<svg xmlns="http://www.w3.org/2000/svg" viewBox="0 0 58.93 52.9"><defs><style>.cls-1{fill:#fff;}</style></defs><title>创伤中心-白</title><g id="图层_2" data-name="图层 2"><g id="图层_1-2" data-name="图层 1"><path class="cls-1" d="M40.46,16.61,14.59,6.5S12.07,0,7.37,0A5.74,5.74,0,0,0,5.3.4c-6,2.32-2.85,8.53-2.85,8.53S-2,14,1.13,17.12a4.34,4.34,0,0,0,3.22,1.42c2.26,0,4.75-1.51,7.84-2a9,9,0,0,1,1.52-.11c5,0,13,2.7,13,2.7Z"/><path class="cls-1" d="M58.75,39.74c-1.35-4.28-5.8-3.05-10.38-4.5s-11.95-8.91-11.95-8.91L24,22.74v1.13L41.29,43.16s-1.12,9,5.5,9.69a8.4,8.4,0,0,0,.85,0c5.79,0,5.92-6.41,5.92-6.41S60.09,44,58.75,39.74Z"/></g></g></svg>