<?xml version="1.0" standalone="no"?><!DOCTYPE svg PUBLIC "-//W3C//DTD SVG 1.1//EN" "http://www.w3.org/Graphics/SVG/1.1/DTD/svg11.dtd">
<svg t="1552959554739" class="icon" style="" viewBox="0 0 1024 1024" version="1.1" xmlns="http://www.w3.org/2000/svg" 
p-id="10114" xmlns:xlink="http://www.w3.org/1999/xlink" width="23" height="23"><defs><style type="text/css"></style></defs><path d="M936 493L550.5 107.5c-21.3-21.3-55.8-21.3-77.1 0L88 493c-21.3 21.3-21.3 55.8 0 77.1h111.3v323.3c0 21.6 17.5 39.1 39.1 39.1h547.5c21.6 0 39.1-17.5 39.1-39.1v-78.2h-39.1v78.2H238.4V531.6H111.3l400.9-400.9L913 531.6H785.9v107.5H825V570h111c21.3-21.2 21.3-55.8 0-77zM710.4 828.8c7.5 7.6 19.7 7.6 27.3 0l81.8-83.1c7.5-7.6 7.5-20 0-27.7l-81.8-83c-7.5-7.6-19.7-7.6-27.3 0-7.5 7.6-7.5 20 0 27.7l48.9 49.7H511.9c-10.7 0-19.3 8.8-19.3 19.6s8.6 19.6 19.3 19.6h247.4l-48.9 49.7c-7.5 7.5-7.5 19.9 0 27.5z" p-id="10115" fill="#0071e7"></path></svg>