<?xml version="1.0" encoding="UTF-8"?>
<svg width="11px" height="11px" viewBox="0 0 11 11" version="1.1" xmlns="http://www.w3.org/2000/svg" xmlns:xlink="http://www.w3.org/1999/xlink">
    <!-- Generator: Sketch 52.4 (67378) - http://www.bohemiancoding.com/sketch -->
    <title>合并形状</title>
    <desc>Created with Sketch.</desc>
    <g id="页面-1" stroke="none" stroke-width="1" fill="none" fill-rule="evenodd">
        <g id="医嘱下达-成组的药-已开医嘱-还未提交-copy-4" transform="translate(-239.000000, -101.000000)" fill="#0071E7">
            <path d="M240,101 L243,101 C243.552285,101 244,101.447715 244,102 L244,105 C244,105.552285 243.552285,106 243,106 L240,106 C239.447715,106 239,105.552285 239,105 L239,102 C239,101.447715 239.447715,101 240,101 Z M240,107 L243,107 C243.552285,107 244,107.447715 244,108 L244,111 C244,111.552285 243.552285,112 243,112 L240,112 C239.447715,112 239,111.552285 239,111 L239,108 C239,107.447715 239.447715,107 240,107 Z M246,101 L249,101 C249.552285,101 250,101.447715 250,102 L250,105 C250,105.552285 249.552285,106 249,106 L246,106 C245.447715,106 245,105.552285 245,105 L245,102 C245,101.447715 245.447715,101 246,101 Z M246,107 L249,107 C249.552285,107 250,107.447715 250,108 L250,111 C250,111.552285 249.552285,112 249,112 L246,112 C245.447715,112 245,111.552285 245,111 L245,108 C245,107.447715 245.447715,107 246,107 Z" id="合并形状"></path>
        </g>
    </g>
</svg>