<?xml version="1.0" encoding="UTF-8"?>
<svg width="18px" height="20px" viewBox="0 0 18 20" version="1.1" xmlns="http://www.w3.org/2000/svg" xmlns:xlink="http://www.w3.org/1999/xlink">
    <!-- Generator: Sketch 52.4 (67378) - http://www.bohemiancoding.com/sketch -->
    <title>合并形状</title>
    <desc>Created with Sketch.</desc>
    <g id="页面-1" stroke="none" stroke-width="1" fill="none" fill-rule="evenodd">
        <g id="任务管理-病情记录" transform="translate(-1328.000000, -151.000000)" fill="#1989FA">
            <path d="M1343.96667,156 L1343.12446,168.633038 C1343.05442,169.683634 1342.18182,170.5 1341.12889,170.5 L1332.87111,170.5 C1331.81818,170.5 1330.94558,169.683634 1330.87554,168.633038 L1330.03333,156 L1329,156 C1328.44772,156 1328,155.552285 1328,155 C1328,154.447715 1328.44772,154 1329,154 L1345,154 C1345.55228,154 1346,154.447715 1346,155 C1346,155.552285 1345.55228,156 1345,156 L1343.96667,156 Z M1333.44555,159.209822 L1333.55706,165.601656 C1333.56611,166.120113 1334.02057,166.540994 1334.57213,166.541721 C1335.1237,166.542448 1335.56349,166.122745 1335.55445,165.604288 L1335.44294,159.212454 C1335.43389,158.693997 1334.97943,158.273115 1334.42787,158.272389 C1333.8763,158.271662 1333.43651,158.691365 1333.44555,159.209822 Z M1340.49849,159.191906 C1340.49848,158.67337 1340.05143,158.261406 1339.49996,158.271759 C1338.9485,158.282112 1338.50145,158.710861 1338.50145,159.229397 L1338.50151,165.622204 C1338.50152,166.14074 1338.94857,166.552703 1339.50004,166.54235 C1340.0515,166.531997 1340.49855,166.103249 1340.49855,165.584713 L1340.49849,159.191906 Z M1335,153 C1334.44772,153 1334,152.552285 1334,152 C1334,151.447715 1334.44772,151 1335,151 L1339.20977,151 C1339.76206,151 1340.20977,151.447715 1340.20977,152 C1340.20977,152.552285 1339.76206,153 1339.20977,153 L1335,153 Z" id="合并形状"></path>
        </g>
    </g>
</svg>