<svg xmlns="http://www.w3.org/2000/svg" viewBox="0 0 44.98 57.25"><defs><style>.cls-1,.cls-2{fill:#fff;}.cls-2{fill-rule:evenodd;}</style></defs><title>医生工作站-白</title><g id="图层_2" data-name="图层 2"><g id="图层_1-2" data-name="图层 1"><circle class="cls-1" cx="32.5" cy="44.5" r="2.5"/><path class="cls-2" d="M45,54.82l-.06-.28c-1.06-5-4.28-15.91-13-20.64a.91.91,0,0,1-.16.24C29.89,35.85,27.3,36.8,24,37c0,0,0,0,0,0v8.58c0,.35.13,3.42,3.93,3.42a7.36,7.36,0,0,0,2.74-.4A4.52,4.52,0,1,1,33,49a1,1,0,0,1-.13.45c-.22.38-1.24,1.6-4.93,1.6a5.87,5.87,0,0,1-4.35-1.6A5.8,5.8,0,0,1,22,45.57V37s0,0,0,0A15.4,15.4,0,0,1,13.4,33.8l-.05,0-.46.23c-.44.24-.86.5-1.28.77a21.61,21.61,0,0,0-2.31,1.8c-.36.33-.7.66-1,1a26.53,26.53,0,0,0-4.12,5.67,37.65,37.65,0,0,0-2.59,5.9A44.31,44.31,0,0,0,.09,54.54l-.06.3a2.4,2.4,0,0,0,0,.28,2.13,2.13,0,0,0,1.86,2.1l.27,0a2.4,2.4,0,0,0,.28,0H42.57l.27,0a2.66,2.66,0,0,0,.28,0A2.13,2.13,0,0,0,45,55.12C45,55,45,54.92,45,54.82Z"/><path class="cls-2" d="M18.69,31.94c-.49.09-1,.19-1.44.31s-1.05.29-1.54.46l-.24.1A13.9,13.9,0,0,0,23.19,35a10.65,10.65,0,0,0,6.74-2,19.13,19.13,0,0,0-4.32-1.13,16.13,16.13,0,1,0-6.92.07Z"/></g></g></svg>