<?xml version="1.0" encoding="UTF-8"?>
<svg width="20px" height="20px" viewBox="0 0 20 20" version="1.1" xmlns="http://www.w3.org/2000/svg" xmlns:xlink="http://www.w3.org/1999/xlink">
    <!-- Generator: Sketch 52.4 (67378) - http://www.bohemiancoding.com/sketch -->
    <title>分组 3</title>
    <desc>Created with Sketch.</desc>
    <g id="页面-1" stroke="none" stroke-width="1" fill="none" fill-rule="evenodd">
        <g id="任务管理-观察项管理-图例-copy" transform="translate(-453.000000, -9.000000)" fill="#0071E7">
            <g id="分组-2-copy-5" transform="translate(421.000000, 0.000000)">
                <g id="分组-3" transform="translate(32.000000, 9.000000)">
                    <path d="M20,9.81173315 L12.0394823,9.81173315 C10.3593888,9.99300025 8.87533089,10.8623407 8.84897248,13.296648 C8.82261406,15.7309553 10.4499058,16.6161302 12.0825528,16.7354418 L20,16.7365388 L20,18 C20,19.1045695 19.1045695,20 18,20 L2,20 C0.8954305,20 1.3527075e-16,19.1045695 0,18 L0,9 C-1.3527075e-16,7.8954305 0.8954305,7 2,7 L18,7 C19.1045695,7 20,7.8954305 20,9 L20,9.81173315 Z M20,11.0134243 L20,15.5348569 L12.1129032,15.5348569 C11.0123495,15.4533199 9.83049011,14.6824647 9.84896769,13.2929297 C9.86744527,11.9033947 10.9409977,11.1360498 12.0848012,11.0109529 L20,11.0134243 Z M12.4526349,14.8117332 C13.281062,14.8117332 13.9526349,14.1401603 13.9526349,13.3117332 C13.9526349,12.483306 13.281062,11.8117332 12.4526349,11.8117332 C11.6242078,11.8117332 10.9526349,12.483306 10.9526349,13.3117332 C10.9526349,14.1401603 11.6242078,14.8117332 12.4526349,14.8117332 Z" id="合并形状"></path>
                    <path d="M1.63909164,3.6204449 L13.4244419,2.12997119 C14.5202826,1.99138204 15.5209857,2.76738773 15.6595749,3.86322843 C15.6775912,4.00568534 15.6802135,4.14966825 15.6673964,4.29268672 L15.3003086,8.38882949 L1.63909164,3.6204449 Z" id="矩形-copy-6" transform="translate(8.657236, 5.251391) rotate(-19.000000) translate(-8.657236, -5.251391) "></path>
                </g>
            </g>
        </g>
    </g>
</svg>