<?xml version="1.0" standalone="no"?><!DOCTYPE svg PUBLIC "-//W3C//DTD SVG 1.1//EN" "http://www.w3.org/Graphics/SVG/1.1/DTD/svg11.dtd"><svg t="1553496454937" class="icon" style="" viewBox="0 0 1024 1024" version="1.1" xmlns="http://www.w3.org/2000/svg" p-id="2397" xmlns:xlink="http://www.w3.org/1999/xlink" width="20" height="20"><defs><style type="text/css"></style></defs><path d="M964.266667 568.888889h-331.662223a56.888889 56.888889 0 1 1 0-113.777778h331.662223a56.888889 56.888889 0 1 1 0 113.777778z m0-284.444445h-90.453334a56.888889 56.888889 0 1 1 0-113.777777h90.453334a56.888889 56.888889 0 1 1 0 113.777777z m-331.662223 56.888889a113.777778 113.777778 0 1 1 120.604445-113.777777 117.361778 117.361778 0 0 1-120.604445 113.777777z m0-142.222222a28.444444 28.444444 0 1 0 30.151112 28.444445 29.354667 29.354667 0 0 0-30.151112-28.444445zM391.395556 625.777778A113.777778 113.777778 0 1 1 512 512a117.304889 117.304889 0 0 1-120.604444 113.777778z m0-142.222222a28.444444 28.444444 0 1 0 30.151111 28.444444 29.354667 29.354667 0 0 0-30.151111-28.444444z m0-199.111112H59.733333a56.888889 56.888889 0 1 1 0-113.777777h331.662223a56.888889 56.888889 0 1 1 0 113.777777zM59.733333 455.111111h90.453334a56.888889 56.888889 0 1 1 0 113.777778H59.733333a56.888889 56.888889 0 1 1 0-113.777778z m0 284.444445h331.662223a56.888889 56.888889 0 1 1 0 113.777777H59.733333a56.888889 56.888889 0 1 1 0-113.777777z m572.871111-56.888889A113.777778 113.777778 0 1 1 512 796.444444a117.361778 117.361778 0 0 1 120.604444-113.777777z m0 142.222222a28.444444 28.444444 0 1 0-30.151111-28.444445 29.354667 29.354667 0 0 0 30.151111 28.444445z m241.208889-85.333333h90.453334a56.888889 56.888889 0 1 1 0 113.777777h-90.453334a56.888889 56.888889 0 1 1 0-113.777777z" fill="#e6e6e6" p-id="2398"></path></svg>