<?xml version="1.0" encoding="UTF-8"?>
<svg width="13px" height="13px" viewBox="0 0 13 13" version="1.1" xmlns="http://www.w3.org/2000/svg" xmlns:xlink="http://www.w3.org/1999/xlink">
    <!-- Generator: Sketch 52.4 (67378) - http://www.bohemiancoding.com/sketch -->
    <title>合并形状</title>
    <desc>Created with Sketch.</desc>
    <g id="页面-1" stroke="none" stroke-width="1" fill="none" fill-rule="evenodd">
        <g id="医嘱下达-成组的药-已开医嘱-还未提交-copy-4" transform="translate(-346.000000, -100.000000)" fill="#0071E7">
            <path d="M352.5,113 C348.910149,113 346,110.089851 346,106.5 C346,102.910149 348.910149,100 352.5,100 C356.089851,100 359,102.910149 359,106.5 C359,110.089851 356.089851,113 352.5,113 Z M355.097252,105.735816 L353,105.735816 L353,103.280438 C353,102.728153 352.552285,102.280438 352,102.280438 C351.447715,102.280438 351,102.728153 351,103.280438 L351,106.735816 C351,107.288101 351.447715,107.735816 352,107.735816 L355.097252,107.735816 C355.649537,107.735816 356.097252,107.288101 356.097252,106.735816 C356.097252,106.183532 355.649537,105.735816 355.097252,105.735816 Z" id="合并形状"></path>
        </g>
    </g>
</svg>