<?xml version="1.0" encoding="UTF-8"?>
<svg width="20px" height="20px" viewBox="0 0 20 20" version="1.1" xmlns="http://www.w3.org/2000/svg" xmlns:xlink="http://www.w3.org/1999/xlink">
    <!-- Generator: Sketch 52.4 (67378) - http://www.bohemiancoding.com/sketch -->
    <title>形状</title>
    <desc>Created with Sketch.</desc>
    <g id="页面-1" stroke="none" stroke-width="1" fill="none" fill-rule="evenodd">
        <g id="首页" transform="translate(-197.000000, -9.000000)" fill="#0071E7" fill-rule="nonzero">
            <g id="分组-2" transform="translate(163.000000, 0.000000)">
                <path d="M34.049818,29 C33.9547894,28.2473183 33.9959442,27.4835424 34.1712917,26.7456133 C34.5267518,25.3899755 35.443281,24.0689049 37.4993733,22.6842105 C38.7803237,24.3599713 41.210794,25.4931763 44.0036942,25.4931763 C46.7527841,25.4931763 49.1484054,24.3940376 50.4442912,22.7618616 C52.4023083,24.2552676 53.399986,25.5327533 53.8515298,26.7766738 C54.1114039,27.4915648 53.9510984,28.3883097 53.9510984,29 L34.0523072,29 L34.049818,29 Z M44.030576,24.7894737 C41.5334533,24.7894737 39.3597789,23.7829645 38.2105263,22.2947492 C39.1246028,21.7168664 40.0977607,21.2555279 41.1104434,20.9200049 C40.3537721,20.2585179 39.7432734,19.4232213 39.323391,18.474924 C41.3980354,18.1591705 43.4132345,17.4906056 45.2940463,16.4940921 C46.8582655,15.662362 48.2816159,14.5523303 49.5044348,13.2105263 C49.5602332,13.6260768 49.5887744,14.0453621 49.5898454,14.4652532 C49.5898454,17.2147418 48.5179172,19.615089 46.9183638,20.9494637 C47.9223843,21.3025095 48.8856856,21.7784001 49.7894737,22.3678507 C48.6260702,23.8156965 46.4857515,24.7894737 44.030576,24.7894737 Z M38.5986108,16.7538038 C40.7305486,16.4644028 42.4014025,15.7770779 44.2938086,14.8487782 C45.7984816,14.1332528 47.73444,12.9054894 48.9518808,11.8363719 C49.085068,12.078779 49.19825,12.3296497 49.2905129,12.5869581 C48.0492719,13.7800788 46.0282282,15.0870703 44.4031585,15.8189267 C42.5356886,16.6698369 40.9013615,17.2768181 38.8203342,17.4853764 C38.7331247,17.2449308 38.6591276,17.0007785 38.5986108,16.7538038 Z M38.2105263,14.4963797 C38.2105263,10.9947686 40.8501447,9.00132669 44.1061207,9.00132669 C45.9229253,8.96497912 47.6482092,9.67732324 48.7368421,10.9132828 C47.4611337,11.9367002 46.0333789,12.8140744 44.4898703,13.523103 C42.5684768,14.4542933 40.5508172,15.4243011 38.3587208,15.6768702 C38.260789,15.0723678 38.2113908,14.6788709 38.2105263,14.4963797 Z" id="形状"></path>
            </g>
        </g>
    </g>
</svg>