<?xml version="1.0" encoding="UTF-8"?>
<svg width="16px" height="20px" viewBox="0 0 16 20" version="1.1" xmlns="http://www.w3.org/2000/svg" xmlns:xlink="http://www.w3.org/1999/xlink">
    <!-- Generator: Sketch 52.4 (67378) - http://www.bohemiancoding.com/sketch -->
    <title>合并形状</title>
    <desc>Created with Sketch.</desc>
    <g id="页面-1" stroke="none" stroke-width="1" fill="none" fill-rule="evenodd">
        <g id="任务管理-观察项管理-图例-copy-5" transform="translate(-801.000000, -11.000000)" fill="#0071E7">
            <g id="分组-2-copy-9" transform="translate(765.000000, 0.000000)">
                <path d="M38,11 L50,11 C51.1045695,11 52,11.8954305 52,13 L52,29 C52,30.1045695 51.1045695,31 50,31 L38,31 C36.8954305,31 36,30.1045695 36,29 L36,13 C36,11.8954305 36.8954305,11 38,11 Z M47.7628247,14.2168776 C46.5037804,13.2905959 45.2464935,13.4357787 44.1442256,14.5813839 C42.8876371,13.2752671 41.5647494,13.1281852 40.3617477,14.2546522 C38.7278187,15.7846309 39.5585234,18.1281621 41.2997998,19.8072646 C41.9773523,20.4606245 42.8623378,21.1405064 43.9556692,21.8495697 L44.2440873,22.0366188 L44.5220057,21.8342979 C45.9689183,20.780965 46.8681232,20.0338646 47.2504369,19.555316 C47.72879,18.9565531 48.220994,18.142801 48.4931964,17.3359665 C48.9225498,16.0633207 48.7558399,14.9474412 47.7628247,14.2168776 Z M46.4691499,18.9311439 C46.1835641,19.2886167 45.4230254,19.9288632 44.2123596,20.821528 C43.3019679,20.2141547 42.5622676,19.6354597 41.9939385,19.0874233 C40.6116938,17.7545329 39.9825657,15.979677 41.0452536,14.9845971 C41.8977287,14.1863564 42.7182172,14.359075 43.7581026,15.6573674 L44.1570428,16.1554424 L44.5452148,15.6489304 C45.4231424,14.5033538 46.2261968,14.3278511 47.1702209,15.0223717 C48.2073738,15.7854074 47.6409275,17.4644097 46.4691499,18.9311439 Z M40.5,24 L47.5,24 C47.7761424,24 48,24.2238576 48,24.5 L48,24.5 C48,24.7761424 47.7761424,25 47.5,25 L40.5,25 C40.2238576,25 40,24.7761424 40,24.5 L40,24.5 C40,24.2238576 40.2238576,24 40.5,24 Z M40.5,27 L47.5,27 C47.7761424,27 48,27.2238576 48,27.5 L48,27.5 C48,27.7761424 47.7761424,28 47.5,28 L40.5,28 C40.2238576,28 40,27.7761424 40,27.5 L40,27.5 C40,27.2238576 40.2238576,27 40.5,27 Z" id="合并形状"></path>
            </g>
        </g>
    </g>
</svg>