<?xml version="1.0" encoding="UTF-8"?>
<svg width="16px" height="20px" viewBox="0 0 16 20" version="1.1" xmlns="http://www.w3.org/2000/svg" xmlns:xlink="http://www.w3.org/1999/xlink">
    <!-- Generator: Sketch 52.4 (67378) - http://www.bohemiancoding.com/sketch -->
    <title>合并形状</title>
    <desc>Created with Sketch.</desc>
    <g id="页面-1" stroke="none" stroke-width="1" fill="none" fill-rule="evenodd">
        <g id="首页" transform="translate(-887.000000, -11.000000)" fill="#FFFFFF">
            <path d="M891.468858,22.8474392 C891.494314,22.8918112 891.52405,22.93455 891.558114,22.9750937 L893.924447,25.7915459 C894.275182,26.2089967 894.895677,26.2685448 895.319404,25.9254179 L895.333335,25.9141364 C895.343685,25.905755 895.35386,25.897159 895.363852,25.8883539 C895.761303,25.5381196 895.79958,24.9320007 895.449346,24.5345493 L894.0971,23 L898.225635,23 C898.681526,23 899.079708,22.6916616 899.193809,22.2502807 L899.258508,22 C899.369064,21.5723302 899.111993,21.1360118 898.684323,21.0254556 C898.618939,21.0085533 898.551677,21 898.484143,21 L892,21 C891.447715,21 891,21.4477153 891,22 C891,22.3571352 891.187215,22.6705439 891.468858,22.8474392 Z M896.476342,17 L892,17 C891.447715,17 891,17.4477153 891,18 C891,18.5522847 891.447715,19 892,19 L898.484143,19 C898.501637,19 898.519113,18.9994261 898.536543,18.9982817 C898.786925,19.0221856 899.045156,18.9326791 899.228508,18.7332391 L899.26328,18.6954161 C899.601659,18.3273461 899.616194,17.7659227 899.297315,17.380836 L897.153436,14.7918332 C896.803918,14.3697464 896.179792,14.3075999 895.753905,14.6524768 L895.745444,14.6593282 C895.735094,14.6677095 895.724919,14.6763055 895.714927,14.6851106 C895.317476,15.0353449 895.279199,15.6414639 895.629433,16.0389152 L896.476342,17 Z M889,11 L901,11 C902.104569,11 903,11.8954305 903,13 L903,29 C903,30.1045695 902.104569,31 901,31 L889,31 C887.895431,31 887,30.1045695 887,29 L887,13 C887,11.8954305 887.895431,11 889,11 Z" id="合并形状"></path>
        </g>
    </g>
</svg>