<?xml version="1.0" encoding="UTF-8"?>
<svg width="20px" height="19px" viewBox="0 0 20 19" version="1.1" xmlns="http://www.w3.org/2000/svg" xmlns:xlink="http://www.w3.org/1999/xlink">
    <!-- Generator: Sketch 52.4 (67378) - http://www.bohemiancoding.com/sketch -->
    <title>合并形状</title>
    <desc>Created with Sketch.</desc>
    <g id="页面-1" stroke="none" stroke-width="1" fill="none" fill-rule="evenodd">
        <g id="任务管理-观察项管理-图例-copy-2" transform="translate(-540.000000, -12.000000)" fill="#0071E7">
            <g id="护理等级" transform="translate(540.000000, 12.000000)">
                <path d="M14.8595872,0 C18.0772756,0 20,2.95415009 20,5.81045347 C20,12.573594 10.6902586,18.4197879 10.2941585,18.6652835 C10.1128748,18.7782388 9.88768076,18.7782388 9.70639704,18.6652835 C9.3097414,18.419202 0,12.573594 0,5.81045347 C0,2.95415009 1.92272437,3.83839319e-15 5.14152385,3.83839319e-15 C7.26035388,3.83839319e-15 9.10085831,1.15423952 10.0002778,2.83403887 C10.8991417,1.15423952 12.7396461,3.83839319e-15 14.8595872,3.83839319e-15 Z M3.57967842,6.82037195 C3.2787812,6.03873173 3.2840676,5.31579114 3.58951926,4.62212894 C3.87591005,3.97175281 4.47735411,3.5656507 5.4565685,3.40024384 C5.72885361,3.35425 5.91229893,3.09623394 5.86630509,2.82394883 C5.82031126,2.55166373 5.5622952,2.36821841 5.29001009,2.41421225 C4.00054192,2.63202654 3.10773991,3.23485696 2.67432113,4.21912474 C2.25996321,5.16010645 2.25267542,6.15674797 2.64643941,7.17962805 C2.74564525,7.43733489 3.03498013,7.56582534 3.29268697,7.46661951 C3.55039381,7.36741367 3.67888426,7.07807878 3.57967842,6.82037195 Z" id="合并形状"></path>
            </g>
        </g>
    </g>
</svg>