<?xml version="1.0" encoding="UTF-8"?>
<svg width="20px" height="20px" viewBox="0 0 20 20" version="1.1" xmlns="http://www.w3.org/2000/svg" xmlns:xlink="http://www.w3.org/1999/xlink">
    <!-- Generator: Sketch 52.4 (67378) - http://www.bohemiancoding.com/sketch -->
    <title>导入</title>
    <desc>Created with Sketch.</desc>
    <g id="页面-1" stroke="none" stroke-width="1" fill="none" fill-rule="evenodd">
        <g id="费用管理" transform="translate(-1324.000000, -142.000000)" fill="#1989FA">
            <path d="M1335,150.833879 L1335,146 C1335,145.447715 1334.55228,145 1334,145 C1333.44772,145 1333,145.447715 1333,146 L1333,151.183681 L1330.62791,149.26992 C1330.19807,148.923136 1329.5685,148.990463 1329.22171,149.420299 C1328.87493,149.850136 1328.94226,150.479711 1329.37209,150.826495 L1333.23029,153.939218 C1333.60833,154.244217 1334.15088,154.233442 1334.51651,153.913672 L1338.13083,150.752741 C1338.54656,150.389163 1338.58883,149.757411 1338.22525,149.341684 C1337.86168,148.925956 1337.22992,148.883681 1336.8142,149.247259 L1335,150.833879 Z M1326,142 L1342,142 C1343.10457,142 1344,142.895431 1344,144 L1344,160 C1344,161.104569 1343.10457,162 1342,162 L1326,162 C1324.89543,162 1324,161.104569 1324,160 L1324,144 C1324,142.895431 1324.89543,142 1326,142 Z M1330,157 C1329.44772,157 1329,157.447715 1329,158 C1329,158.552285 1329.44772,159 1330,159 L1338,159 C1338.55228,159 1339,158.552285 1339,158 C1339,157.447715 1338.55228,157 1338,157 L1330,157 Z" id="导入"></path>
        </g>
    </g>
</svg>