<?xml version="1.0" encoding="UTF-8"?>
<svg width="20px" height="20px" viewBox="0 0 20 20" version="1.1" xmlns="http://www.w3.org/2000/svg" xmlns:xlink="http://www.w3.org/1999/xlink">
    <!-- Generator: Sketch 52.4 (67378) - http://www.bohemiancoding.com/sketch -->
    <title>合并形状 copy 7</title>
    <desc>Created with Sketch.</desc>
    <g id="页面-1" stroke="none" stroke-width="1" fill="none" fill-rule="evenodd">
        <g id="护理交班-晨班报告" transform="translate(-238.000000, -822.000000)" fill="#1989FA">
            <path d="M247.280463,831.104162 L243.081623,831.104162 C242.529339,831.104162 242.081623,831.551877 242.081623,832.104162 C242.081623,832.656446 242.529339,833.104162 243.081623,833.104162 L247.280463,833.104162 L247.280463,837.303002 C247.280463,837.855287 247.728179,838.303002 248.280463,838.303002 C248.832748,838.303002 249.280463,837.855287 249.280463,837.303002 L249.280463,833.104162 L253.479304,833.104162 C254.031588,833.104162 254.479304,832.656446 254.479304,832.104162 C254.479304,831.551877 254.031588,831.104162 253.479304,831.104162 L249.280463,831.104162 L249.280463,826.905321 C249.280463,826.353037 248.832748,825.905321 248.280463,825.905321 C247.728179,825.905321 247.280463,826.353037 247.280463,826.905321 L247.280463,831.104162 Z M248,842 C242.477153,842 238,837.522847 238,832 C238,826.477153 242.477153,822 248,822 C253.522847,822 258,826.477153 258,832 C258,837.522847 253.522847,842 248,842 Z" id="合并形状-copy-7"></path>
        </g>
    </g>
</svg>