<svg xmlns="http://www.w3.org/2000/svg" viewBox="0 0 62 56.5"><defs><style>.cls-1{fill:#2972de;}</style></defs><title>科室管理-蓝</title><g id="图层_2" data-name="图层 2"><g id="图层_1-2" data-name="图层 1"><path class="cls-1" d="M60.5,53.5H50V4a4,4,0,0,0-4-4H18a4,4,0,0,0-4,4V53.5H1.5a1.5,1.5,0,0,0,0,3h59a1.5,1.5,0,0,0,0-3Zm-19-34.43A3.49,3.49,0,0,1,38,22.5H26.05a3.49,3.49,0,0,1-3.55-3.43V14.93a3.49,3.49,0,0,1,3.55-3.43H38a3.49,3.49,0,0,1,3.55,3.43Z"/><path class="cls-1" d="M38,13.5H26.05a1.5,1.5,0,0,0-1.55,1.43v4.14a1.5,1.5,0,0,0,1.55,1.43H38a1.5,1.5,0,0,0,1.55-1.43V14.93A1.5,1.5,0,0,0,38,13.5Z"/></g></g></svg>