<svg width="27px" height="27px" viewBox="0 0 27 27" version="1.1" xmlns="http://www.w3.org/2000/svg" xmlns:xlink="http://www.w3.org/1999/xlink">
<defs>
<linearGradient x1="50%" y1="0%" x2="50%" y2="100%" id="linearGradient-1">
<stop stop-color="#8ED824" offset="0%"></stop>
<stop stop-color="#439406" offset="100%"></stop>
</linearGradient>
</defs>
<g id="1217" stroke="none" stroke-width="1" fill="none" fill-rule="evenodd">
<g id="首页-copy" transform="translate(-179.000000, -305.000000)">
<g id="分组-5" transform="translate(179.000000, 305.000000)">
<path d="M2,0 L25,0 C26.1045695,-2.02906125e-16 27,0.8954305 27,2 L27,25 C27,26.1045695 26.1045695,27 25,27 L2,27 C0.8954305,27 1.3527075e-16,26.1045695 0,25 L0,2 C-1.3527075e-16,0.8954305 0.8954305,2.02906125e-16 2,0 Z" id="Rectangle-35" fill="url(#linearGradient-1)"></path>
<path d="M4.274,19 L4.274,8.626 L6.346,8.626 L6.346,19 L4.274,19 Z M10.714,19 L7.55,8.626 L9.72,8.626 L11.092,13.68 C11.414,14.828 11.638,15.864 11.96,17.026 L12.03,17.026 C12.366,15.864 12.59,14.828 12.912,13.68 L14.256,8.626 L16.356,8.626 L13.192,19 L10.714,19 Z M18.806,19.196 C17.406,19.196 16.482,18.202 16.482,16.872 C16.482,15.192 17.84,14.31 21.004,13.974 C20.962,13.204 20.626,12.616 19.66,12.616 C18.932,12.616 18.232,12.938 17.504,13.358 L16.762,12 C17.686,11.426 18.806,10.964 20.038,10.964 C22.026,10.964 23.048,12.154 23.048,14.422 L23.048,19 L21.368,19 L21.228,18.16 L21.172,18.16 C20.486,18.748 19.702,19.196 18.806,19.196 Z M19.478,17.586 C20.066,17.586 20.5,17.306 21.004,16.816 L21.004,15.234 C19.086,15.472 18.442,16.004 18.442,16.704 C18.442,17.32 18.876,17.586 19.478,17.586 Z" id="IVa" fill="#FFFFFF"></path>
</g>
</g>
</g>
</svg>