<?xml version="1.0" standalone="no"?><!DOCTYPE svg PUBLIC "-//W3C//DTD SVG 1.1//EN" "http://www.w3.org/Graphics/SVG/1.1/DTD/svg11.dtd"><svg class="icon" width="20px" height="20.00px" viewBox="0 0 1024 1024" version="1.1" xmlns="http://www.w3.org/2000/svg"><path fill="#0F80ED" d="M197.333333 832a21.333333 21.333333 0 0 1-21.333333-21.333333V219.306667a21.333333 21.333333 0 0 1 42.666667 0V810.666667a21.333333 21.333333 0 0 1-21.333334 21.333333zM851.84 832H214.826667a21.333333 21.333333 0 0 1 0-42.666667h637.013333a21.333333 21.333333 0 0 1 0 42.666667zM348.16 587.306667a21.333333 21.333333 0 0 1-12.8-4.266667 21.333333 21.333333 0 0 1-4.266667-29.866667l88.533334-117.973333a21.333333 21.333333 0 0 1 15.573333-8.533333 21.333333 21.333333 0 0 1 16.64 6.186666L553.173333 533.333333l250.453334-305.28a21.333333 21.333333 0 0 1 30.08-2.986666 21.333333 21.333333 0 0 1 2.986666 29.866666L571.093333 579.626667a21.333333 21.333333 0 0 1-31.573333 1.493333l-100.48-100.693333-73.813333 98.346666a21.333333 21.333333 0 0 1-17.066667 8.533334zM334.933333 825.173333a21.333333 21.333333 0 0 1-21.333333-21.333333v-166.4a21.333333 21.333333 0 0 1 21.333333-21.333333 21.333333 21.333333 0 0 1 21.333334 21.333333v166.4a21.333333 21.333333 0 0 1-21.333334 21.333333zM505.6 654.506667m21.333333 0l0 0q21.333333 0 21.333334 21.333333l0 113.493333q0 21.333333-21.333334 21.333334l0 0q-21.333333 0-21.333333-21.333334l0-113.493333q0-21.333333 21.333333-21.333333ZM676.266667 589.653333m21.333333 0l0 0q21.333333 0 21.333333 21.333334l0 186.026666q0 21.333333-21.333333 21.333334l0 0q-21.333333 0-21.333333-21.333334l0-186.026666q0-21.333333 21.333333-21.333334Z" /></svg>