<?xml version="1.0" encoding="UTF-8"?>
<svg width="10px" height="10px" viewBox="0 0 10 10" version="1.1" xmlns="http://www.w3.org/2000/svg" xmlns:xlink="http://www.w3.org/1999/xlink">
    <!-- Generator: Sketch 52.4 (67378) - http://www.bohemiancoding.com/sketch -->
    <title>形状</title>
    <desc>Created with Sketch.</desc>
    <g id="1217" stroke="none" stroke-width="1" fill="none" fill-rule="evenodd">
        <g id="120进入的患者详情" transform="translate(-328.000000, -75.000000)" fill="#FFFFFF" fill-rule="nonzero">
            <path d="M337.257309,79.3283221 L335.912469,80.6725904 C335.664292,80.9154751 335.266899,80.9134024 335.021269,80.6679421 C334.775639,80.4224818 334.773248,80.0250476 335.015909,79.7766502 L336.360749,78.4316657 C336.686955,78.1126744 336.816578,77.642965 336.700149,77.2017959 C336.58372,76.7606267 336.239204,76.4160744 335.798083,76.2996326 C335.356961,76.1831909 334.887302,76.3128278 334.568345,76.6390692 L333.224221,77.9833376 C333.064807,78.1465201 332.830005,78.2114309 332.609422,78.1532979 C332.388839,78.0951649 332.216513,77.9229585 332.15821,77.7023984 C332.099907,77.4818383 332.164623,77.2469586 332.327661,77.0873974 L333.672501,75.7424129 C334.662616,74.7523892 336.267749,74.7525495 337.257667,75.742771 C338.247584,76.7329925 338.247424,78.3382984 337.257309,79.3283221 Z M330.983537,82.0168587 C330.736318,81.7693847 330.736318,81.3683926 330.983537,81.1209186 L334.120065,77.9840537 C334.277565,77.812742 334.516272,77.7415318 334.741875,77.7985573 C334.967478,77.8555828 335.143688,78.0316712 335.200888,78.2572527 C335.258088,78.4828342 335.187076,78.7216232 335.015909,78.8792777 L331.879381,82.0161425 C331.631933,82.2633878 331.230984,82.2633878 330.983537,82.0161425 L330.983537,82.0168587 Z M329.637981,81.5685305 C329.317671,81.888875 329.192575,82.3557872 329.309817,82.7933859 C329.427059,83.2309846 329.768825,83.572788 330.206377,83.6900422 C330.643929,83.8072964 331.110791,83.6821877 331.431101,83.3618432 L332.775941,82.0161425 C333.023519,81.7685377 333.424923,81.7685377 333.672501,82.0161425 C333.920079,82.2637473 333.920079,82.6651941 333.672501,82.9127989 L332.327661,84.2577834 C331.337298,85.2474055 329.7325,85.2474055 328.742137,84.2577834 C327.752621,83.2673137 327.752621,81.6623439 328.742137,80.6718742 L330.086977,79.3276059 C330.247388,79.1674336 330.481055,79.1050158 330.699959,79.1638645 C330.918863,79.2227131 331.089746,79.3938879 331.148239,79.6129088 C331.206732,79.8319297 331.143948,80.0655224 330.983537,80.2256946 L329.637981,81.5685305 Z" id="形状"></path>
        </g>
    </g>
</svg>