<?xml version="1.0" encoding="UTF-8"?>
<svg width="13px" height="12px" viewBox="0 0 13 12" version="1.1" xmlns="http://www.w3.org/2000/svg" xmlns:xlink="http://www.w3.org/1999/xlink">
    <!-- Generator: Sketch 52.4 (67378) - http://www.bohemiancoding.com/sketch -->
    <title>敏 copy</title>
    <desc>Created with Sketch.</desc>
    <g id="页面-1" stroke="none" stroke-width="1" fill="none" fill-rule="evenodd">
        <g id="首页" transform="translate(-213.000000, -251.000000)" fill="#EF74B8">
            <g id="分组-6" transform="translate(32.000000, 144.000000)">
                <g id="分组-9">
                    <path d="M189.476,110.486 L189.437,110.59 C189.697,112.098 190.061,113.476 190.594,114.672 C191.14,113.502 191.491,112.111 191.725,110.486 L189.476,110.486 Z M185.004,116.206 L186.278,116.206 C186.33,115.673 186.369,115.023 186.408,114.204 L185.16,114.204 C185.108,114.932 185.056,115.634 185.004,116.206 Z M184.393,114.204 L183.223,114.204 C183.158,114.906 183.093,115.595 183.028,116.206 L184.211,116.206 C184.276,115.647 184.341,114.945 184.393,114.204 Z M184.575,111.5 L183.444,111.5 C183.405,112.098 183.353,112.735 183.301,113.372 L184.458,113.372 C184.51,112.735 184.549,112.085 184.575,111.5 Z M185.212,113.372 L186.434,113.372 C186.46,112.813 186.473,112.189 186.499,111.5 L185.316,111.5 C185.29,112.085 185.251,112.735 185.212,113.372 Z M193.467,110.486 L192.687,110.486 C192.375,112.579 191.894,114.295 191.114,115.699 C191.751,116.791 192.557,117.662 193.558,118.234 C193.35,118.416 193.051,118.767 192.908,119.014 C191.959,118.416 191.192,117.584 190.568,116.583 C189.879,117.558 189.008,118.351 187.903,119.001 C187.786,118.806 187.448,118.416 187.24,118.221 C188.462,117.584 189.372,116.739 190.061,115.647 C189.567,114.607 189.177,113.424 188.878,112.111 C188.67,112.618 188.436,113.073 188.176,113.476 L188.098,113.398 L188.098,114.204 L187.227,114.204 C187.188,114.997 187.162,115.66 187.123,116.206 L188.02,116.206 L188.02,117.012 L187.045,117.012 C186.954,117.87 186.837,118.312 186.668,118.533 C186.46,118.845 186.213,118.936 185.875,118.975 C185.55,119.014 185.004,119.001 184.471,118.962 C184.445,118.741 184.367,118.39 184.237,118.182 C184.796,118.208 185.29,118.221 185.511,118.221 C185.706,118.221 185.823,118.195 185.914,118.039 C186.031,117.896 186.122,117.584 186.2,117.012 L182.937,117.012 L182.872,117.506 L182.04,117.441 C182.17,116.583 182.3,115.426 182.417,114.204 L181.546,114.204 L181.546,113.372 L182.495,113.372 C182.573,112.514 182.638,111.669 182.677,110.915 C182.508,111.201 182.339,111.461 182.157,111.695 C182.001,111.552 181.585,111.266 181.377,111.162 C182.183,110.161 182.794,108.666 183.158,107.132 L184.068,107.314 C183.951,107.782 183.808,108.25 183.665,108.705 L187.877,108.705 L187.877,109.563 L183.34,109.563 C183.171,109.966 182.989,110.343 182.794,110.694 L187.344,110.694 C187.344,110.694 187.344,111.006 187.331,111.136 C187.305,111.968 187.279,112.709 187.253,113.372 L188.072,113.372 C187.89,113.19 187.591,112.943 187.422,112.826 C188.345,111.448 188.943,109.303 189.281,107.119 L190.23,107.275 C190.087,108.068 189.918,108.848 189.723,109.602 L193.467,109.602 L193.467,110.486 Z" id="敏-copy"></path>
                </g>
            </g>
        </g>
    </g>
</svg>