<svg t="1564741113602" class="icon" viewBox="0 0 1024 1024" version="1.1" xmlns="http://www.w3.org/2000/svg" p-id="4773" width="32" height="32"><path d="M0 0m102.4 0l204.8 0q102.4 0 102.4 102.4l0 204.8q0 102.4-102.4 102.4l-204.8 0q-102.4 0-102.4-102.4l0-204.8q0-102.4 102.4-102.4Z" p-id="4774" fill="#409EFF"></path><path d="M0 614.4m102.4 0l204.8 0q102.4 0 102.4 102.4l0 204.8q0 102.4-102.4 102.4l-204.8 0q-102.4 0-102.4-102.4l0-204.8q0-102.4 102.4-102.4Z" p-id="4775" fill="#409EFF"></path><path d="M614.4 0m102.4 0l204.8 0q102.4 0 102.4 102.4l0 204.8q0 102.4-102.4 102.4l-204.8 0q-102.4 0-102.4-102.4l0-204.8q0-102.4 102.4-102.4Z" p-id="4776" fill="#409EFF"></path><path d="M614.4 614.4m102.4 0l204.8 0q102.4 0 102.4 102.4l0 204.8q0 102.4-102.4 102.4l-204.8 0q-102.4 0-102.4-102.4l0-204.8q0-102.4 102.4-102.4Z" p-id="4777" fill="#409EFF"></path></svg>