<svg xmlns="http://www.w3.org/2000/svg" viewBox="0 0 64.98 46.66"><defs><style>.cls-1{fill:#fff;}</style></defs><title>脑卒中心-白</title><g id="图层_2" data-name="图层 2"><g id="图层_1-2" data-name="图层 1"><path class="cls-1" d="M51.73,35.32a13.72,13.72,0,0,0-4.27-1.24C47,34,46.41,34,45.77,34A8.79,8.79,0,0,0,39,36.38a12,12,0,0,0-2.66,4.3.83.83,0,0,1-.09.16c2.22,2.88,6.39,6.61,12.7,5.67,7.73-1.15,10.95-5.66,12-9.86C55.71,37,53.68,36.16,51.73,35.32Z"/><path class="cls-1" d="M38.85.37A51.52,51.52,0,0,0,32.79,0C9.94,0,0,16.47,0,26.6c0,6.68,5.46,8,9.75,8a24.24,24.24,0,0,0,5-.54s2.93,6.2,9.12,8.52a6.22,6.22,0,0,0,2.22.41c2.88,0,5.75-1.92,8.76-4l.06-.13a14.22,14.22,0,0,1,1.43-2.49,10.2,10.2,0,0,1,6.12-4.14A12.94,12.94,0,0,1,45.84,32a16.11,16.11,0,0,1,6.68,1.53,13.08,13.08,0,0,0,3.7,1.13,19.85,19.85,0,0,0,3.52.11l.74,0,.77-.06v0c1.48-.22,2.58-.73,3-1.78C66.19,28.55,66,3.56,38.85.37Zm1.52,24.48c-2.92,1.64-6.16,1.51-9.29,1.37a20,20,0,0,0-6.93.49,14.16,14.16,0,0,0-7.28,5.75,1,1,0,0,1-1.74-1,16.15,16.15,0,0,1,8.42-6.66,22,22,0,0,1,7.62-.58c3,.13,5.8.25,8.21-1.11a7.6,7.6,0,0,0,3.81-7,1,1,0,0,1,2-.18A9.59,9.59,0,0,1,40.37,24.85Zm13.68-4.21H54a1,1,0,0,1-1-.9,11.8,11.8,0,0,0-4.54-7.3c-4-3-11.26-.88-11.34-.86a1,1,0,0,1-.58-1.91c.34-.11,8.34-2.49,13.14,1.18a13.6,13.6,0,0,1,5.31,8.68A1,1,0,0,1,54.05,20.64Z"/></g></g></svg>