<?xml version="1.0" encoding="UTF-8"?>
<svg width="11px" height="13px" viewBox="0 0 11 13" version="1.1" xmlns="http://www.w3.org/2000/svg" xmlns:xlink="http://www.w3.org/1999/xlink">
    <!-- Generator: Sketch 52.4 (67378) - http://www.bohemiancoding.com/sketch -->
    <title>合并形状</title>
    <desc>Created with Sketch.</desc>
    <g id="页面-1" stroke="none" stroke-width="1" fill="none" fill-rule="evenodd">
        <g id="普诊-急门诊" transform="translate(-50.000000, -99.000000)" fill="#FFFFFF">
            <g id="分组-5" transform="translate(30.000000, 90.000000)">
                <path d="M30,9 C30.5522847,9 31,9.44771525 31,10 L31,21 C31,21.5522847 30.5522847,22 30,22 C29.4477153,22 29,21.5522847 29,21 L29,10 C29,9.44771525 29.4477153,9 30,9 Z M20,10.4142136 C20,10.1489971 20.1053568,9.89464316 20.2928932,9.70710678 C20.6834175,9.31658249 21.3165825,9.31658249 21.7071068,9.70710678 L26.7928932,14.7928932 C27.1834175,15.1834175 27.1834175,15.8165825 26.7928932,16.2071068 L21.7071068,21.2928932 C21.5195704,21.4804296 21.2652165,21.5857864 21,21.5857864 C20.4477153,21.5857864 20,21.1380712 20,20.5857864 L20,10.4142136 Z" id="合并形状"></path>
            </g>
        </g>
    </g>
</svg>