<svg xmlns="http://www.w3.org/2000/svg" viewBox="0 0 44 58.5"><defs><style>.cls-1{fill:#fff;}</style></defs><title>护士工作站-白</title><g id="图层_2" data-name="图层 2"><g id="图层_1-2" data-name="图层 1"><path class="cls-1" d="M44,56l-.06-.28c-1.2-6-5.27-19.89-17.38-22.74C34.08,30.86,35,22.12,35,22.12V18.85a1,1,0,0,1-.69-.27,7.68,7.68,0,0,0-6.29-2A8.56,8.56,0,0,0,23.5,18.6,12.56,12.56,0,0,1,18,21.21a19.93,19.93,0,0,1-3.27.29A13.55,13.55,0,0,1,10,20.68v2.86s1.44,7,8.37,9.28c-.51.09-1,.19-1.5.32s-1,.3-1.5.48a16.57,16.57,0,0,0-2.76,1.28c-.43.24-.85.51-1.25.78A20.07,20.07,0,0,0,9.1,37.51c-.35.33-.69.66-1,1a26.9,26.9,0,0,0-4,5.75,38.25,38.25,0,0,0-2.53,6,47.57,47.57,0,0,0-1.44,5.5L0,56.06a2.4,2.4,0,0,0,0,.28,2.12,2.12,0,0,0,1.82,2.13l.27,0a2.06,2.06,0,0,0,.26,0h39.3a2.06,2.06,0,0,0,.26,0l.27,0A2.12,2.12,0,0,0,44,56.34C44,56.24,44,56.14,44,56Z"/><path class="cls-1" d="M8,17.24a1.46,1.46,0,0,0,2,.56v.82a1.07,1.07,0,0,1,.39.07,13.08,13.08,0,0,0,7.28.55A10.61,10.61,0,0,0,22.33,17a10.34,10.34,0,0,1,5.52-2.42,9.7,9.7,0,0,1,7.84,2.58.92.92,0,0,1,.25.45,1.44,1.44,0,0,0,.35-.46l3.08-6.83a1.49,1.49,0,0,0,0-1.19C39.23,8.73,35.41,0,22,0S4.75,9.72,4.6,10.14a1.5,1.5,0,0,0,.09,1.26Z"/></g></g></svg>