<?xml version="1.0" encoding="UTF-8"?>
<svg width="18px" height="20px" viewBox="0 0 18 20" version="1.1" xmlns="http://www.w3.org/2000/svg" xmlns:xlink="http://www.w3.org/1999/xlink">
    <!-- Generator: Sketch 52.4 (67378) - http://www.bohemiancoding.com/sketch -->
    <title>分组 8</title>
    <desc>Created with Sketch.</desc>
    <g id="页面-1" stroke="none" stroke-width="1" fill="none" fill-rule="evenodd">
        <g id="护理文书--已书写" transform="translate(-1327.000000, -133.000000)" fill="#1989FA">
            <g id="分组-8" transform="translate(1327.000000, 133.000000)">
                <path d="M16,8 L2,8 L2,10 C2,10.5522847 1.55228475,11 1,11 C0.44771525,11 6.76353751e-17,10.5522847 0,10 L0,5 C-6.76353751e-17,4.44771525 0.44771525,4 1,4 C1.07714167,4 1.15224322,4.00873482 1.22436955,4.02526936 C1.31371642,4.00867501 1.40584513,4 1.5,4 L16.5,4 C16.5941549,4 16.6862836,4.00867501 16.7756305,4.02526936 C16.8477568,4.00873482 16.9228583,4 17,4 C17.5522847,4 18,4.44771525 18,5 L18,10 C18,10.5522847 17.5522847,11 17,11 C16.4477153,11 16,10.5522847 16,10 L16,8 Z M4.5,0 L13.5,0 C14.3284271,-1.52179594e-16 15,0.671572875 15,1.5 C15,2.32842712 14.3284271,3 13.5,3 L4.5,3 C3.67157288,3 3,2.32842712 3,1.5 C3,0.671572875 3.67157288,1.52179594e-16 4.5,0 Z M4.5,9 L13.5,9 C14.3284271,9 15,9.67157288 15,10.5 L15,18.5 C15,19.3284271 14.3284271,20 13.5,20 L4.5,20 C3.67157288,20 3,19.3284271 3,18.5 L3,10.5 C3,9.67157288 3.67157288,9 4.5,9 Z" id="合并形状"></path>
            </g>
        </g>
    </g>
</svg>