<?xml version="1.0" encoding="UTF-8"?>
<svg width="20px" height="17px" viewBox="0 0 20 17" version="1.1" xmlns="http://www.w3.org/2000/svg" xmlns:xlink="http://www.w3.org/1999/xlink">
    <!-- Generator: Sketch 52.4 (67378) - http://www.bohemiancoding.com/sketch -->
    <title>刷新</title>
    <desc>Created with Sketch.</desc>
    <g id="页面-1" stroke="none" stroke-width="1" fill="none" fill-rule="evenodd">
        <g id="护理交班-晨班报告" transform="translate(-1316.000000, -189.000000)" fill="#1989FA" fill-rule="nonzero">
            <g id="刷新" transform="translate(1316.000000, 189.000000)">
                <path d="M13.6331303,13.7889577 C12.5319551,14.577228 11.2404078,14.9699025 9.92326238,14.9539748 C9.74850838,14.9510768 9.57657337,14.938024 9.40466109,14.9249943 C9.33502775,14.9177376 9.26541715,14.9061454 9.19578381,14.8960138 C9.05938158,14.8786255 8.92725328,14.8612371 8.79510225,14.8336941 C8.71412479,14.8192038 8.6331246,14.7960194 8.55498885,14.7771704 C8.42567954,14.7481899 8.29780245,14.7192094 8.17135758,14.6815347 C8.1116816,14.6583503 8.05484734,14.6395245 7.99517136,14.6148795 C7.84881177,14.5685106 7.70388439,14.5163457 7.56464045,14.4569472 C7.5333816,14.4424569 7.50212276,14.4308647 7.47086391,14.4178119 C7.30747677,14.3410251 7.14549912,14.2627777 6.98777268,14.1787342 C6.98208925,14.1743755 6.97356411,14.1714774 6.96788068,14.1671419 C6.43648032,13.8686425 5.95197959,13.5020273 5.52572262,13.0644213 C5.51860697,13.0571878 5.51292354,13.0484936 5.5043984,13.0412369 C5.37227011,12.906489 5.24580251,12.7673825 5.12645055,12.6166838 C5.10230736,12.5862426 5.07814143,12.5558247 5.05256601,12.5195874 C4.18727572,11.4154294 3.66580998,10.0171306 3.66580998,8.49709036 L5.33389561,8.49709036 L2.66695917,4.41809285 L0,8.49711354 L1.66524392,8.49711354 C1.66524392,10.2837514 2.21371729,11.9414375 3.14152527,13.313677 C3.15289213,13.3339634 3.16000777,13.3556872 3.17278412,13.3730755 C3.26799288,13.5150801 3.37597798,13.644055 3.47827965,13.7744674 C3.51806363,13.8222737 3.55216419,13.8715406 3.59335767,13.9251661 C3.74396846,14.1106415 3.90737834,14.2874227 4.0721977,14.4613059 C4.08924798,14.4786942 4.10345655,14.4931845 4.11766511,14.5091122 C4.67605038,15.0800285 5.30550122,15.5582072 5.99176358,15.9436482 C6.01024608,15.953803 6.02586414,15.9624972 6.04718835,15.9740894 C6.24467605,16.0827547 6.44786991,16.1827492 6.65247326,16.2740262 C6.70503358,16.2972106 6.75477493,16.3203951 6.80449354,16.342142 C6.98211198,16.4189289 7.1625494,16.482686 7.34441905,16.5464432 C7.43110266,16.5768843 7.51492184,16.6058648 7.60301494,16.6348454 C7.76215088,16.6812142 7.92412853,16.7232244 8.0889479,16.7608991 C8.19836522,16.7869815 8.30350861,16.8159621 8.41574491,16.8362484 C8.46121232,16.8478406 8.50383802,16.8623309 8.54930543,16.8666896 C8.70559965,16.8956701 8.86048439,16.9101604 9.0139369,16.9289861 C9.07077116,16.9391409 9.1261732,16.9492725 9.18159797,16.9550686 C9.46008587,16.9826117 9.73714153,17 10.0142199,17 C11.7064488,17 13.3603258,16.4725544 14.7783407,15.458236 C15.2301731,15.1350915 15.3409999,14.4975199 15.0255697,14.0396276 C14.7072979,13.5744786 14.0849627,13.4629152 13.6331303,13.7889345 L13.6331303,13.7889577 Z M18.3304821,8.49709036 C18.3304821,6.71478798 17.7891244,5.05856248 16.8655676,3.69357969 C16.8513591,3.67039527 16.8428339,3.64575023 16.8314671,3.62546386 C16.7121151,3.45737681 16.5899215,3.30088196 16.4634766,3.14294969 C16.4486091,3.12449092 16.4348454,3.10513551 16.4222604,3.08498863 C15.5725882,2.04168968 14.5112197,1.23167237 13.3105845,0.702789359 C13.2750744,0.688299095 13.2452251,0.672348214 13.209715,0.65785795 C13.0164785,0.576712476 12.8204003,0.507159213 12.6200482,0.437605949 C12.5518471,0.414421528 12.4793947,0.388362239 12.4083519,0.366615252 C12.2350074,0.312989686 12.0616629,0.269518896 11.8854767,0.227508725 C11.7874262,0.205761738 11.6879663,0.179679264 11.5899385,0.159392895 C11.5416294,0.150721922 11.4975715,0.136208474 11.4464206,0.126076882 C11.3142923,0.104329895 11.184983,0.0913002505 11.0528547,0.0753493688 C10.9604877,0.0652177767 10.8723946,0.0507275135 10.7800503,0.040572737 C10.5583966,0.0188489344 10.3381525,0.0101547765 10.1179311,0.00579610529 C10.0781471,0.00579610529 10.0383631,0 9.99857914,0 C9.99146349,0 9.98437058,0.00146061853 9.97725493,0.00292123707 C8.28643559,0.00435867118 6.63540024,0.524570713 5.22022709,1.53742852 C4.76839469,1.85911236 4.65756788,2.49524651 4.97583975,2.95893493 C5.28986043,3.41826469 5.91646955,3.53128874 6.36971143,3.20670684 C7.46236151,2.42713068 8.73829072,2.03009747 10.0468883,2.04312711 C10.2344413,2.04458773 10.4219944,2.05328189 10.603864,2.07210764 C10.6606983,2.07646631 10.7146909,2.08516047 10.7715251,2.09385463 C10.9221359,2.11270356 11.0713372,2.13298993 11.2191063,2.16486851 C11.2830335,2.17646072 11.3483929,2.19384904 11.4095011,2.2083393 C11.555838,2.24165531 11.6979236,2.27643194 11.8385998,2.31990273 C11.8854767,2.33295556 11.9281024,2.34888326 11.9707281,2.36627158 C12.134138,2.41989714 12.2932739,2.47639758 12.4467264,2.54305279 C12.4637767,2.54741146 12.4793947,2.5604411 12.4950355,2.56623721 C13.4285269,2.97486263 14.2455308,3.60374006 14.8849163,4.39201038 C14.8863258,4.39490843 14.8891675,4.40070453 14.8948509,4.4050632 C15.7928323,5.52081347 16.3327578,6.94519476 16.33419,8.49711354 L14.6646722,8.49711354 L17.3358825,12.5775717 L20,8.49711354 L18.3304821,8.49711354 L18.3304821,8.49709036 Z" id="形状"></path>
            </g>
        </g>
    </g>
</svg>