<?xml version="1.0" encoding="UTF-8"?>
<svg width="16px" height="20px" viewBox="0 0 16 20" version="1.1" xmlns="http://www.w3.org/2000/svg" xmlns:xlink="http://www.w3.org/1999/xlink">
    <!-- Generator: Sketch 52.4 (67378) - http://www.bohemiancoding.com/sketch -->
    <title>合并形状 copy</title>
    <desc>Created with Sketch.</desc>
    <g id="页面-1" stroke="none" stroke-width="1" fill="none" fill-rule="evenodd">
        <g id="首页" transform="translate(-370.000000, -9.000000)" fill="#FFFFFF">
            <g id="分组-2-copy-6" transform="translate(335.000000, 0.000000)">
                <path d="M42.0967068,20.5500108 L40.7726228,19.0268264 C40.4102914,18.6100118 39.7786687,18.5658444 39.3618542,18.9281758 C38.9450396,19.2905072 38.9008722,19.9221298 39.2632036,20.3389444 L41.1691527,22.531488 C41.1961615,22.5722105 41.2264956,22.611457 41.2601742,22.6488609 C41.6297248,23.0592884 42.2620221,23.0924257 42.6724496,22.7228751 L47.1313186,18.7080915 C47.5417461,18.3385408 47.5748834,17.7062436 47.2053328,17.295816 C46.8357822,16.8853885 46.2034849,16.8522512 45.7930574,17.2218018 L42.0967068,20.5500108 Z M37,9 L49,9 C50.1045695,9 51,9.8954305 51,11 L51,27 C51,28.1045695 50.1045695,29 49,29 L37,29 C35.8954305,29 35,28.1045695 35,27 L35,11 C35,9.8954305 35.8954305,9 37,9 Z M39.5,11 C39.2238576,11 39,11.2238576 39,11.5 C39,11.7761424 39.2238576,12 39.5,12 L46.5,12 C46.7761424,12 47,11.7761424 47,11.5 C47,11.2238576 46.7761424,11 46.5,11 L39.5,11 Z" id="合并形状-copy"></path>
            </g>
        </g>
    </g>
</svg>