<?xml version="1.0" encoding="UTF-8"?>
<svg width="20px" height="20px" viewBox="0 0 20 20" version="1.1" xmlns="http://www.w3.org/2000/svg" xmlns:xlink="http://www.w3.org/1999/xlink">
    <!-- Generator: Sketch 52.4 (67378) - http://www.bohemiancoding.com/sketch -->
    <title>保存 copy</title>
    <desc>Created with Sketch.</desc>
    <g id="页面-1" stroke="none" stroke-width="1" fill="none" fill-rule="evenodd">
        <g id="护理文书-新建" transform="translate(-1322.000000, -133.000000)" fill="#1989FA">
            <path d="M1325.51012,141.357213 C1325.50345,141.403849 1325.5,141.451521 1325.5,141.5 C1325.5,142.052285 1325.94772,142.5 1326.5,142.5 L1337.5,142.5 C1338.05228,142.5 1338.5,142.052285 1338.5,141.5 C1338.5,141.451521 1338.49655,141.403849 1338.48988,141.357213 C1338.49655,141.310578 1338.5,141.262905 1338.5,141.214427 L1338.5,133 L1340,133 C1341.10457,133 1342,133.895431 1342,135 L1342,151 C1342,152.104569 1341.10457,153 1340,153 L1324,153 C1322.89543,153 1322,152.104569 1322,151 L1322,135 C1322,133.895431 1322.89543,133 1324,133 L1325.5,133 L1325.5,141.214427 C1325.5,141.262905 1325.50345,141.310578 1325.51012,141.357213 Z M1327.5,140.5 L1327.5,133 L1336.5,133 L1336.5,140.5 L1327.5,140.5 Z M1333.5,139 C1334.32843,139 1335,138.328427 1335,137.5 C1335,136.671573 1334.32843,136 1333.5,136 C1332.67157,136 1332,136.671573 1332,137.5 C1332,138.328427 1332.67157,139 1333.5,139 Z" id="保存-copy"></path>
        </g>
    </g>
</svg>