<?xml version="1.0" standalone="no"?><!DOCTYPE svg PUBLIC "-//W3C//DTD SVG 1.1//EN" "http://www.w3.org/Graphics/SVG/1.1/DTD/svg11.dtd"><svg t="1578910245838" class="icon" viewBox="0 0 1024 1024" version="1.1" xmlns="http://www.w3.org/2000/svg" p-id="18504" xmlns:xlink="http://www.w3.org/1999/xlink" width="200" height="200"><defs><style type="text/css"></style></defs><path d="M511.487361 0.00128C229.119714 0.00128 0 229.120994 0 512.448639S229.119714 1024 511.551361 1024 1023.99872 794.880286 1023.99872 511.552641A511.359361 511.359361 0 0 0 511.487361 0.00128z m254.399682 720.959099h-1.919998c0 66.431917-127.103841 81.407898-245.887693 81.407898s-246.911691-14.975981-246.911691-81.407898v-17.791978c0-48.639939 87.87189-98.175877 162.687797-125.311843 5.567993-1.855998 30.847961-15.87198 16.831979-54.143933-37.375953-37.439953-64.511919-99.199876-64.51192-159.039801 0-92.543884 60.799924-140.223825 132.799834-140.223825 71.103911 0 132.799834 48.639939 132.799834 140.223825 0 59.903925-28.095965 120.639849-64.511919 159.039801-14.079982 42.943946 8.38399 53.311933 12.095985 54.207933 78.527902 26.239967 166.463792 74.815906 166.463792 125.311843l0.064 17.727978z m0 0" fill="#e6e6e6" p-id="18505"></path></svg>