<?xml version="1.0" encoding="UTF-8"?>
<svg width="20px" height="20px" viewBox="0 0 20 20" version="1.1" xmlns="http://www.w3.org/2000/svg" xmlns:xlink="http://www.w3.org/1999/xlink">
    <!-- Generator: Sketch 52.4 (67378) - http://www.bohemiancoding.com/sketch -->
    <title>合并形状</title>
    <desc>Created with Sketch.</desc>
    <g id="页面-1" stroke="none" stroke-width="1" fill="none" fill-rule="evenodd">
        <g id="首页-留观-床位卡-copy-3" transform="translate(-1264.000000, -278.000000)" fill="#0071E7" fill-rule="nonzero">
            <path d="M1269,284.5 C1268.44772,284.5 1268,284.052285 1268,283.5 C1268,282.947715 1268.44772,282.5 1269,282.5 L1279.07804,282.5 C1279.63032,282.5 1280.07804,282.947715 1280.07804,283.5 C1280.07804,284.052285 1279.63032,284.5 1279.07804,284.5 L1269,284.5 Z M1269,289.5 C1268.44772,289.5 1268,289.052285 1268,288.5 C1268,287.947715 1268.44772,287.5 1269,287.5 L1279.07804,287.5 C1279.63032,287.5 1280.07804,287.947715 1280.07804,288.5 C1280.07804,289.052285 1279.63032,289.5 1279.07804,289.5 L1269,289.5 Z M1269,294.5 C1268.44772,294.5 1268,294.052285 1268,293.5 C1268,292.947715 1268.44772,292.5 1269,292.5 L1279.07804,292.5 C1279.63032,292.5 1280.07804,292.947715 1280.07804,293.5 C1280.07804,294.052285 1279.63032,294.5 1279.07804,294.5 L1269,294.5 Z M1266,280 L1266,296 L1282,296 L1282,280 L1266,280 Z M1266,278 L1282,278 C1283.10457,278 1284,278.895431 1284,280 L1284,296 C1284,297.104569 1283.10457,298 1282,298 L1266,298 C1264.89543,298 1264,297.104569 1264,296 L1264,280 C1264,278.895431 1264.89543,278 1266,278 Z" id="合并形状"></path>
        </g>
    </g>
</svg>