<?xml version="1.0" encoding="UTF-8"?>
<svg width="20px" height="20px" viewBox="0 0 20 20" version="1.1" xmlns="http://www.w3.org/2000/svg" xmlns:xlink="http://www.w3.org/1999/xlink">
    <!-- Generator: Sketch 52.4 (67378) - http://www.bohemiancoding.com/sketch -->
    <title>合并形状</title>
    <desc>Created with Sketch.</desc>
    <g id="页面-1" stroke="none" stroke-width="1" fill="none" fill-rule="evenodd">
        <g id="首页-留观-列表" transform="translate(-1234.000000, -278.000000)" fill="#0071E7">
            <path d="M1236,278 L1252,278 C1253.10457,278 1254,278.895431 1254,280 L1254,296 C1254,297.104569 1253.10457,298 1252,298 L1236,298 C1234.89543,298 1234,297.104569 1234,296 L1234,280 C1234,278.895431 1234.89543,278 1236,278 Z M1239,284.5 L1249.07804,284.5 C1249.63032,284.5 1250.07804,284.052285 1250.07804,283.5 C1250.07804,282.947715 1249.63032,282.5 1249.07804,282.5 L1239,282.5 C1238.44772,282.5 1238,282.947715 1238,283.5 C1238,284.052285 1238.44772,284.5 1239,284.5 Z M1239,289.5 L1249.07804,289.5 C1249.63032,289.5 1250.07804,289.052285 1250.07804,288.5 C1250.07804,287.947715 1249.63032,287.5 1249.07804,287.5 L1239,287.5 C1238.44772,287.5 1238,287.947715 1238,288.5 C1238,289.052285 1238.44772,289.5 1239,289.5 Z M1239,294.5 L1249.07804,294.5 C1249.63032,294.5 1250.07804,294.052285 1250.07804,293.5 C1250.07804,292.947715 1249.63032,292.5 1249.07804,292.5 L1239,292.5 C1238.44772,292.5 1238,292.947715 1238,293.5 C1238,294.052285 1238.44772,294.5 1239,294.5 Z" id="合并形状"></path>
        </g>
    </g>
</svg>