<?xml version="1.0" encoding="UTF-8"?>
<svg width="13px" height="12px" viewBox="0 0 13 12" version="1.1" xmlns="http://www.w3.org/2000/svg" xmlns:xlink="http://www.w3.org/1999/xlink">
    <!-- Generator: Sketch 52.4 (67378) - http://www.bohemiancoding.com/sketch -->
    <title>体 copy</title>
    <desc>Created with Sketch.</desc>
    <g id="页面-1" stroke="none" stroke-width="1" fill="none" fill-rule="evenodd">
        <g id="首页" transform="translate(-99.000000, -251.000000)" fill="#FF9A32">
            <g id="分组-6" transform="translate(32.000000, 144.000000)">
                <g id="分组-9">
                    <path d="M70.302,107.171 L71.199,107.444 C70.887,108.367 70.484,109.303 70.042,110.187 L70.042,118.975 L69.119,118.975 L69.119,111.786 C68.768,112.332 68.391,112.839 68.014,113.281 C67.91,113.06 67.624,112.553 67.455,112.332 C68.599,111.071 69.652,109.134 70.302,107.171 Z M79.35,110.668 L76.1,110.668 C76.867,112.839 78.206,114.997 79.61,116.128 C79.376,116.297 79.051,116.635 78.882,116.895 C77.517,115.647 76.269,113.463 75.476,111.201 L75.476,115.712 L77.569,115.712 L77.569,116.596 L75.476,116.596 L75.476,118.923 L74.54,118.923 L74.54,116.596 L72.421,116.596 L72.421,115.712 L74.54,115.712 L74.54,111.292 C73.708,113.541 72.46,115.673 71.095,116.921 C70.926,116.7 70.614,116.362 70.393,116.193 C71.81,115.049 73.162,112.865 73.955,110.668 L70.9,110.668 L70.9,109.732 L74.54,109.732 L74.54,107.171 L75.476,107.171 L75.476,109.732 L79.35,109.732 L79.35,110.668 Z" id="体-copy"></path>
                </g>
            </g>
        </g>
    </g>
</svg>