<?xml version="1.0" encoding="UTF-8"?>
<svg width="16px" height="20px" viewBox="0 0 16 20" version="1.1" xmlns="http://www.w3.org/2000/svg" xmlns:xlink="http://www.w3.org/1999/xlink">
    <!-- Generator: Sketch 52.4 (67378) - http://www.bohemiancoding.com/sketch -->
    <title>合并形状</title>
    <desc>Created with Sketch.</desc>
    <g id="页面-1" stroke="none" stroke-width="1" fill="none" fill-rule="evenodd">
        <g id="首页" transform="translate(-626.000000, -11.000000)" fill="#FFFFFF">
            <g id="分组-2-copy-7" transform="translate(593.000000, 0.000000)">
                <path d="M35,11 L47,11 C48.1045695,11 49,11.8954305 49,13 L49,29 C49,30.1045695 48.1045695,31 47,31 L35,31 C33.8954305,31 33,30.1045695 33,29 L33,13 C33,11.8954305 33.8954305,11 35,11 Z M37,16 C37.5522847,16 38,15.5522847 38,15 C38,14.4477153 37.5522847,14 37,14 C36.4477153,14 36,14.4477153 36,15 C36,15.5522847 36.4477153,16 37,16 Z M44.891349,18.0272728 C43.7255535,17.174215 42.3392385,16.8535039 40.788637,17.0613872 C38.4088886,17.380431 36.8913652,19.4006227 37.0058738,21.718629 C37.1205438,24.0399006 39.2037033,25.9939495 41.721202,25.9770262 C43.4736475,25.9652458 44.8169345,25.1521033 45.6102569,23.6154051 C45.8636057,23.1246579 45.6711563,22.5214489 45.1804091,22.2681001 C44.6896619,22.0147512 44.0864529,22.2072006 43.8331041,22.6979478 C43.3830001,23.5698178 42.7214868,23.9702569 41.7077577,23.9770714 C40.2581988,23.9868157 39.0650733,22.867638 39.003438,21.61995 C38.9382157,20.2996515 39.7503698,19.2184774 41.0543917,19.0436522 C42.1079171,18.90241 42.9744741,19.1028799 43.7102958,19.6413092 C44.1559996,19.967448 44.7817018,19.8705214 45.1078406,19.4248176 C45.4339794,18.9791138 45.3370528,18.3534117 44.891349,18.0272728 Z" id="合并形状"></path>
            </g>
        </g>
    </g>
</svg>