<?xml version="1.0" encoding="UTF-8"?>
<svg width="16px" height="20px" viewBox="0 0 16 20" version="1.1" xmlns="http://www.w3.org/2000/svg" xmlns:xlink="http://www.w3.org/1999/xlink">
    <!-- Generator: Sketch 52.4 (67378) - http://www.bohemiancoding.com/sketch -->
    <title>合并形状</title>
    <desc>Created with Sketch.</desc>
    <g id="页面-1" stroke="none" stroke-width="1" fill="none" fill-rule="evenodd">
        <g id="任务管理-观察项管理-图例-copy-3" transform="translate(-628.000000, -11.000000)" fill="#0071E7">
            <g id="分组-2-copy-7" transform="translate(593.000000, 0.000000)">
                <path d="M37,11 L49,11 C50.1045695,11 51,11.8954305 51,13 L51,29 C51,30.1045695 50.1045695,31 49,31 L37,31 C35.8954305,31 35,30.1045695 35,29 L35,13 C35,11.8954305 35.8954305,11 37,11 Z M39,16 C39.5522847,16 40,15.5522847 40,15 C40,14.4477153 39.5522847,14 39,14 C38.4477153,14 38,14.4477153 38,15 C38,15.5522847 38.4477153,16 39,16 Z M46.891349,18.0272728 C45.7255535,17.174215 44.3392385,16.8535039 42.788637,17.0613872 C40.4088886,17.380431 38.8913652,19.4006227 39.0058738,21.718629 C39.1205438,24.0399006 41.2037033,25.9939495 43.721202,25.9770262 C45.4736475,25.9652458 46.8169345,25.1521033 47.6102569,23.6154051 C47.8636057,23.1246579 47.6711563,22.5214489 47.1804091,22.2681001 C46.6896619,22.0147512 46.0864529,22.2072006 45.8331041,22.6979478 C45.3830001,23.5698178 44.7214868,23.9702569 43.7077577,23.9770714 C42.2581988,23.9868157 41.0650733,22.867638 41.003438,21.61995 C40.9382157,20.2996515 41.7503698,19.2184774 43.0543917,19.0436522 C44.1079171,18.90241 44.9744741,19.1028799 45.7102958,19.6413092 C46.1559996,19.967448 46.7817018,19.8705214 47.1078406,19.4248176 C47.4339794,18.9791138 47.3370528,18.3534117 46.891349,18.0272728 Z" id="合并形状"></path>
            </g>
        </g>
    </g>
</svg>