<?xml version="1.0" encoding="UTF-8"?>
<svg width="17px" height="18px" viewBox="0 0 17 18" version="1.1" xmlns="http://www.w3.org/2000/svg" xmlns:xlink="http://www.w3.org/1999/xlink">
    <!-- Generator: Sketch 52.4 (67378) - http://www.bohemiancoding.com/sketch -->
    <title>合并形状</title>
    <desc>Created with Sketch.</desc>
    <g id="页面-1" stroke="none" stroke-width="1" fill="none" fill-rule="evenodd">
        <g id="胸痛抢救仓" transform="translate(-108.000000, -76.000000)" fill="#0071E7">
            <path d="M110,76 L122.2,76 C123.304569,76 124.2,76.8954305 124.2,78 L124.2,92 C124.2,93.1045695 123.304569,94 122.2,94 L110,94 C108.895431,94 108,93.1045695 108,92 L108,78 C108,76.8954305 108.895431,76 110,76 Z M116.295737,85.5329701 L120.699979,79.5400637 C120.99433,79.1395362 120.908257,78.5762257 120.50773,78.2818744 C120.107202,77.9875231 119.543892,78.073596 119.249541,78.4741234 L114.845299,84.4670299 C114.550948,84.8675573 114.637021,85.4308679 115.037548,85.7252192 C115.438076,86.0195704 116.001386,85.9334976 116.295737,85.5329701 Z M111.235587,89.95 L120.871528,89.95 C121.368585,89.95 121.771528,89.5470563 121.771528,89.05 C121.771528,88.5529437 121.368585,88.15 120.871528,88.15 L111.235587,88.15 C110.738531,88.15 110.335587,88.5529437 110.335587,89.05 C110.335587,89.5470563 110.738531,89.95 111.235587,89.95 Z" id="合并形状"></path>
        </g>
    </g>
</svg>