<?xml version="1.0" encoding="UTF-8"?>
<svg width="18px" height="18px" viewBox="0 0 18 18" version="1.1" xmlns="http://www.w3.org/2000/svg" xmlns:xlink="http://www.w3.org/1999/xlink">
    <!-- Generator: Sketch 52.4 (67378) - http://www.bohemiancoding.com/sketch -->
    <title>合并形状</title>
    <desc>Created with Sketch.</desc>
    <g id="页面-1" stroke="none" stroke-width="1" fill="none" fill-rule="evenodd" fill-opacity="0.7">
        <g id="电子病历-copy" transform="translate(-242.000000, -517.000000)" fill="#F52C2C">
            <path d="M244,517 L258,517 C259.104569,517 260,517.895431 260,519 L260,533 C260,534.104569 259.104569,535 258,535 L244,535 C242.895431,535 242,534.104569 242,533 L242,519 C242,517.895431 242.895431,517 244,517 Z M253.676,527.264 C253.34,527.744 252.896,528.176 252.392,528.56 C251.816,528.176 251.324,527.744 250.916,527.264 L253.676,527.264 Z M254.564,526.244 L254.348,526.292 L251.288,526.292 C251.42,525.968 251.564,525.656 251.684,525.308 L256.112,525.308 L256.112,524.312 L254.684,524.312 L255.368,523.844 C255.068,523.484 254.48,522.884 254.048,522.452 L253.244,522.956 C253.64,523.376 254.144,523.928 254.432,524.312 L252.008,524.312 C252.176,523.724 252.32,523.112 252.44,522.452 L251.336,522.296 C251.228,523.004 251.072,523.688 250.88,524.312 L249.536,524.312 C249.776,523.82 250.016,523.184 250.148,522.596 L248.984,522.44 C248.876,523.172 248.504,523.916 248.408,524.084 C248.312,524.3 248.18,524.432 248.036,524.48 C248.168,524.732 248.348,525.224 248.408,525.476 C248.516,525.368 248.996,525.308 249.656,525.308 L250.544,525.308 C249.836,527.06 248.78,528.392 247.172,529.28 C247.388,529.472 247.772,529.94 247.892,530.18 C248.852,529.592 249.632,528.86 250.28,528.008 C250.64,528.416 251.036,528.788 251.468,529.136 C250.664,529.58 249.74,529.904 248.828,530.108 C249.032,530.336 249.308,530.744 249.428,531.032 C250.484,530.744 251.528,530.336 252.452,529.784 C253.4,530.324 254.504,530.72 255.704,530.972 C255.86,530.684 256.148,530.252 256.388,530.024 C255.296,529.844 254.264,529.532 253.388,529.112 C254.204,528.452 254.876,527.624 255.32,526.628 L254.564,526.244 Z M252.344,521.036 C252.164,520.676 251.924,520.22 251.732,519.884 L250.568,520.1 C250.724,520.376 250.88,520.724 251.012,521.036 L246.368,521.036 L246.368,524.372 C246.368,526.112 246.296,528.62 245.444,530.348 C245.708,530.468 246.2,530.792 246.416,530.996 C247.352,529.124 247.508,526.268 247.508,524.372 L247.508,522.092 L256.388,522.092 L256.388,521.036 L252.344,521.036 Z" id="合并形状"></path>
        </g>
    </g>
</svg>