<?xml version="1.0" encoding="UTF-8"?>
<svg width="13px" height="12px" viewBox="0 0 13 12" version="1.1" xmlns="http://www.w3.org/2000/svg" xmlns:xlink="http://www.w3.org/1999/xlink">
    <!-- Generator: Sketch 52.4 (67378) - http://www.bohemiancoding.com/sketch -->
    <title>新 copy</title>
    <desc>Created with Sketch.</desc>
    <g id="页面-1" stroke="none" stroke-width="1" fill="none" fill-rule="evenodd">
        <g id="首页" transform="translate(-236.000000, -251.000000)" fill="#48AE39">
            <g id="分组-6" transform="translate(32.000000, 144.000000)">
                <g id="分组-9">
                    <path d="M210.539,108.484 L210.539,109.29 L204.845,109.29 L204.845,108.484 L207.237,108.484 L207.237,107.171 L208.173,107.171 L208.173,108.484 L210.539,108.484 Z M209.044,111.37 L208.264,111.201 C208.498,110.681 208.797,109.875 208.914,109.316 L209.798,109.524 C209.551,110.174 209.291,110.902 209.044,111.37 Z M206.938,111.188 L206.132,111.409 C206.08,110.902 205.872,110.122 205.625,109.537 L206.379,109.342 C206.652,109.927 206.873,110.694 206.938,111.188 Z M210.227,116.401 L209.655,117.116 C209.382,116.791 208.719,116.154 208.173,115.66 L208.173,118.962 L207.237,118.962 L207.237,115.556 C206.6,116.557 205.794,117.48 205.066,118.052 C204.91,117.831 204.624,117.519 204.416,117.35 C205.352,116.739 206.379,115.569 207.029,114.425 L204.702,114.425 L204.702,113.606 L207.237,113.606 L207.237,112.241 L204.663,112.241 L204.663,111.422 L210.695,111.422 L210.695,112.241 L208.173,112.241 L208.173,113.606 L210.591,113.606 L210.591,114.425 L208.173,114.425 L208.173,114.737 C208.667,115.101 209.928,116.128 210.227,116.401 Z M216.428,111.474 L216.428,112.384 L214.972,112.384 L214.972,118.91 L214.023,118.91 L214.023,112.384 L212.086,112.384 L212.086,112.709 C212.086,114.646 211.839,117.246 210.019,119.053 C209.902,118.845 209.551,118.507 209.33,118.377 C210.981,116.765 211.163,114.516 211.163,112.696 L211.163,108.172 L211.865,108.393 C213.191,108.107 214.647,107.691 215.479,107.275 L216.259,107.99 C215.154,108.484 213.529,108.874 212.086,109.16 L212.086,111.474 L216.428,111.474 Z" id="新-copy"></path>
                </g>
            </g>
        </g>
    </g>
</svg>