<svg xmlns="http://www.w3.org/2000/svg" viewBox="0 0 56 57"><defs><style>.cls-1{fill:#fff;}</style></defs><title>胸痛中心-白</title><g id="图层_2" data-name="图层 2"><g id="图层_1-2" data-name="图层 1"><path class="cls-1" d="M25.71,39.59c-.06,0-5.27-1.58-8,.44-1.15.85-1.7,2.21-1.7,4.16,0,1,.16,2.34.94,2.69,1.68.75,5.92-2,8.4-4.15a1,1,0,0,1,1.16-.1V39.49A1,1,0,0,1,25.71,39.59Z"/><path class="cls-1" d="M28.5,42.63c.05,0,.11,0,.16.1,2.48,2.18,6.73,4.9,8.4,4.15.78-.35.94-1.66.94-2.69,0-1.95-.55-3.31-1.7-4.16-2.44-1.8-6.82-.76-7.8-.5Z"/><path class="cls-1" d="M54.56,0H1.44A1.44,1.44,0,0,0,0,1.46V55.54A1.44,1.44,0,0,0,1.44,57H54.56A1.44,1.44,0,0,0,56,55.54V1.46A1.44,1.44,0,0,0,54.56,0ZM43,23.5H28.5v7H38a1,1,0,0,1,0,2H28.5v5c1.78-.42,6.15-1.14,9,1A6.74,6.74,0,0,1,40,44.19c0,2.36-.71,3.87-2.12,4.51a3.47,3.47,0,0,1-1.48.3c-2.68,0-6-2.35-7.9-3.81V46a1,1,0,0,1-2,0V44.37C25.25,45.45,20.89,49,17.6,49a3.47,3.47,0,0,1-1.48-.3C14.71,48.06,14,46.55,14,44.19a6.74,6.74,0,0,1,2.51-5.77c3.56-2.62,9.53-.82,9.79-.74a1,1,0,0,1,.2.11V32.5H15a1,1,0,0,1,0-2H26.5v-7H12a1,1,0,0,1,0-2H26.5v-8H15a1,1,0,0,1,0-2H26.5V9a1,1,0,0,1,2,0v2.5H38a1,1,0,0,1,0,2H28.5v8H43a1,1,0,0,1,0,2Z"/></g></g></svg>