<?xml version="1.0" encoding="UTF-8"?>
<svg width="16px" height="20px" viewBox="0 0 16 20" version="1.1" xmlns="http://www.w3.org/2000/svg" xmlns:xlink="http://www.w3.org/1999/xlink">
    <!-- Generator: Sketch 52.4 (67378) - http://www.bohemiancoding.com/sketch -->
    <title>合并形状</title>
    <desc>Created with Sketch.</desc>
    <g id="页面-1" stroke="none" stroke-width="1" fill="none" fill-rule="evenodd">
        <g id="首页" transform="translate(-284.000000, -9.000000)" fill="#FFFFFF">
            <g id="分组-2-copy-2" transform="translate(249.000000, 0.000000)">
                <path d="M42,14 L39,14 L39,16 L42,16 L42,19 L44,19 L44,16 L47,16 L47,14 L44,14 L44,11 L42,11 L42,14 Z M37,9 L49,9 C50.1045695,9 51,9.8954305 51,11 L51,27 C51,28.1045695 50.1045695,29 49,29 L37,29 C35.8954305,29 35,28.1045695 35,27 L35,11 C35,9.8954305 35.8954305,9 37,9 Z M39.5,22 C39.2238576,22 39,22.2238576 39,22.5 C39,22.7761424 39.2238576,23 39.5,23 L46.5,23 C46.7761424,23 47,22.7761424 47,22.5 C47,22.2238576 46.7761424,22 46.5,22 L39.5,22 Z M39.5,24 C39.2238576,24 39,24.2238576 39,24.5 C39,24.7761424 39.2238576,25 39.5,25 L46.5,25 C46.7761424,25 47,24.7761424 47,24.5 C47,24.2238576 46.7761424,24 46.5,24 L39.5,24 Z" id="合并形状"></path>
            </g>
        </g>
    </g>
</svg>