<svg xmlns="http://www.w3.org/2000/svg" viewBox="0 0 63 57"><defs><style>.cls-1{fill:#fff;}</style></defs><title>预检分级-白</title><g id="图层_2" data-name="图层 2"><g id="图层_1-2" data-name="图层 1"><path class="cls-1" d="M3,21.6,6.06,23l23.4,10.56a4.95,4.95,0,0,0,4.08,0L56.94,23l3.11-1.4a5.06,5.06,0,0,0,0-9.2L33.54.44a5,5,0,0,0-4.09,0L3,12.4a5.06,5.06,0,0,0,0,9.2Z"/><path class="cls-1" d="M59.49,28.22,46.6,34,35.44,39l-4.13,1.85L27.23,39l-11-5L3.53,28.23a2.51,2.51,0,0,0-3.3,1.2,2.43,2.43,0,0,0,1.22,3.25L4.35,34l11,5,14.91,6.78a2.52,2.52,0,0,0,1,.22,2.41,2.41,0,0,0,1-.22L47.46,39l11.15-5,2.93-1.31a2.44,2.44,0,0,0,1.24-3.25A2.5,2.5,0,0,0,59.49,28.22Z"/><path class="cls-1" d="M59.49,39.22,33.21,51l-1.9.85L29.43,51,3.53,39.23a2.51,2.51,0,0,0-3.3,1.2,2.43,2.43,0,0,0,1.22,3.25L17.55,51l12.71,5.78a2.52,2.52,0,0,0,1,.22,2.57,2.57,0,0,0,1-.22L45.22,51l16.32-7.31a2.44,2.44,0,0,0,1.24-3.25A2.51,2.51,0,0,0,59.49,39.22Z"/></g></g></svg>