<?xml version="1.0" encoding="UTF-8"?>
<svg width="12px" height="12px" viewBox="0 0 12 12" version="1.1" xmlns="http://www.w3.org/2000/svg" xmlns:xlink="http://www.w3.org/1999/xlink">
    <!-- Generator: Sketch 52.4 (67378) - http://www.bohemiancoding.com/sketch -->
    <title>嘱 copy</title>
    <desc>Created with Sketch.</desc>
    <g id="页面-1" stroke="none" stroke-width="1" fill="none" fill-rule="evenodd">
        <g id="首页" transform="translate(-191.000000, -251.000000)" fill="#38B0EA">
            <g id="分组-6" transform="translate(32.000000, 144.000000)">
                <g id="分组-9">
                    <path d="M162.068,109.134 L160.755,109.134 L160.755,114.256 L162.068,114.256 L162.068,109.134 Z M162.874,115.127 L160.755,115.127 L160.755,116.18 L159.949,116.18 L159.949,108.25 L162.874,108.25 L162.874,115.127 Z M169.946,108.497 L164.564,108.497 L164.564,109.693 L169.946,109.693 L169.946,108.497 Z M170.843,110.434 L164.564,110.434 L164.564,111.487 C164.564,113.697 164.304,116.856 162.562,118.949 C162.432,118.767 162.081,118.442 161.899,118.338 C163.511,116.362 163.693,113.567 163.693,111.487 L163.693,107.756 L170.843,107.756 L170.843,110.434 Z M165.864,113.905 L167.398,113.905 L167.398,112.904 L165.864,112.904 L165.864,113.905 Z M169.816,112.904 L168.178,112.904 L168.178,113.905 L169.816,113.905 L169.816,112.904 Z M170.986,115.179 L170.986,118.234 C170.986,118.611 170.908,118.767 170.635,118.884 C170.375,119.001 169.946,119.001 169.335,118.988 C169.296,118.793 169.179,118.559 169.088,118.377 C169.53,118.39 169.92,118.39 170.024,118.39 C170.154,118.39 170.193,118.351 170.193,118.234 L170.193,115.881 L168.178,115.881 L168.178,116.921 L169.049,116.882 C168.945,116.687 168.841,116.505 168.724,116.336 L169.179,116.167 C169.543,116.661 169.92,117.337 170.063,117.779 L169.569,117.974 C169.517,117.831 169.439,117.649 169.361,117.454 C168.074,117.545 166.852,117.636 165.838,117.714 L165.773,117.025 C166.241,117.012 166.787,116.986 167.398,116.947 L167.398,115.881 L165.5,115.881 L165.5,119.001 L164.681,119.001 L164.681,115.179 L167.398,115.179 L167.398,114.516 L165.084,114.516 L165.084,112.28 L167.398,112.28 L167.398,111.604 C166.631,111.669 165.851,111.708 165.123,111.721 C165.097,111.552 164.993,111.279 164.902,111.11 C166.657,111.045 168.776,110.863 169.894,110.629 L170.544,111.201 C169.881,111.344 169.049,111.448 168.178,111.539 L168.178,112.28 L170.622,112.28 L170.622,114.516 L168.178,114.516 L168.178,115.179 L170.986,115.179 Z" id="嘱-copy"></path>
                </g>
            </g>
        </g>
    </g>
</svg>