<svg xmlns="http://www.w3.org/2000/svg" viewBox="0 0 57.53 56.03"><defs><style>.cls-1{fill:#fff;}</style></defs><title>质控中心-白</title><g id="图层_2" data-name="图层 2"><g id="图层_1-2" data-name="图层 1"><path class="cls-1" d="M9.38,17.19a1.85,1.85,0,0,0,0-.23V1a1,1,0,0,0-2,0V17a1.85,1.85,0,0,0,0,.23,8.43,8.43,0,0,0,0,16.74,1.43,1.43,0,0,0,0,.22V53.8a1,1,0,0,0,2,0V34.15a1.43,1.43,0,0,0,0-.22,8.43,8.43,0,0,0,0-16.74Z"/><path class="cls-1" d="M29,7.2a.14.14,0,0,0,0-.06V1a1,1,0,0,0-2,0V7.17A7.27,7.27,0,0,0,22.81,9a8.43,8.43,0,0,0,4.23,15V52.57a1,1,0,0,0,2,0V23.94A8.43,8.43,0,0,0,29,7.2Z"/><path class="cls-1" d="M50.11,30.11V1a1,1,0,0,0-2,0V30.1a8.43,8.43,0,0,0,0,16.74V55a1,1,0,0,0,2,0V46.84a8.43,8.43,0,0,0,0-16.73Z"/></g></g></svg>