<?xml version="1.0" standalone="no"?>
<!DOCTYPE svg PUBLIC "-//W3C//DTD SVG 1.1//EN" "http://www.w3.org/Graphics/SVG/1.1/DTD/svg11.dtd" >
<!--
2013-9-30: Created.
-->
<svg>
<metadata>
Created by iconfont
</metadata>
<defs>

<font id="iconfont" horiz-adv-x="1024" >
  <font-face
    font-family="iconfont"
    font-weight="500"
    font-stretch="normal"
    units-per-em="1024"
    ascent="896"
    descent="-128"
  />
    <missing-glyph />
    
    <glyph glyph-name="arrow" unicode="&#58902;" d="M0 896h1706.666667L853.333333-8.533333z"  horiz-adv-x="1706" />

    
    <glyph glyph-name="resume" unicode="&#58903;" d="M738.742857 106.057143H277.942857c-21.942857 0-36.571429-14.628571-36.571428-36.571429s14.628571-36.571429 36.571428-36.571428h468.114286c21.942857 0 36.571429 14.628571 36.571428 36.571428s-21.942857 36.571429-43.885714 36.571429zM621.714286 457.142857c36.571429 29.257143 58.514286 73.142857 58.514285 124.342857C680.228571 676.571429 599.771429 749.714286 512 749.714286S336.457143 676.571429 336.457143 581.485714c0-51.2 21.942857-95.085714 58.514286-124.342857-95.085714-43.885714-153.6-131.657143-153.6-241.371428 0-21.942857 14.628571-36.571429 36.571428-36.571429h468.114286c21.942857 0 36.571429 14.628571 36.571428 36.571429-7.314286 109.714286-65.828571 197.485714-160.914285 241.371428zM512 676.571429c51.2 0 95.085714-43.885714 95.085714-95.085715S563.2 486.4 512 486.4c-58.514286 0-102.4 43.885714-102.4 95.085714S453.485714 676.571429 512 676.571429zM314.514286 252.342857C336.457143 340.114286 416.914286 413.257143 512 413.257143s175.542857-65.828571 190.171429-160.914286H314.514286zM1002.057143 822.857143c-14.628571 21.942857-29.257143 43.885714-58.514286 58.514286-21.942857 7.314286-51.2 14.628571-109.714286 14.628571H190.171429C131.657143 896 102.4 888.685714 73.142857 874.057143 51.2 866.742857 29.257143 844.8 21.942857 822.857143c-14.628571-29.257143-21.942857-58.514286-21.942857-117.028572v-650.971428c0-58.514286 7.314286-87.771429 21.942857-109.714286s29.257143-43.885714 58.514286-58.514286c21.942857-7.314286 51.2-14.628571 109.714286-14.628571h650.971428c58.514286 0 87.771429 7.314286 109.714286 21.942857s43.885714 29.257143 58.514286 58.514286c14.628571 29.257143 21.942857 51.2 21.942857 109.714286V705.828571c-7.314286 58.514286-14.628571 87.771429-29.257143 117.028572zM950.857143 62.171429c0-51.2-7.314286-65.828571-7.314286-80.457143-7.314286-14.628571-14.628571-21.942857-21.942857-21.942857-14.628571-7.314286-21.942857-7.314286-80.457143-7.314286H190.171429c-51.2 0-65.828571 7.314286-80.457143 7.314286-14.628571 7.314286-21.942857 14.628571-21.942857 21.942857-7.314286 14.628571-14.628571 21.942857-14.628572 80.457143V705.828571c0 51.2 7.314286 65.828571 7.314286 80.457143 7.314286 14.628571 14.628571 21.942857 21.942857 21.942857 21.942857 7.314286 29.257143 14.628571 87.771429 14.628572h650.971428c51.2 0 65.828571-7.314286 80.457143-7.314286 14.628571-7.314286 21.942857-14.628571 21.942857-21.942857 0-21.942857 7.314286-29.257143 7.314286-87.771429v-643.657142z"  horiz-adv-x="1031" />

    
    <glyph glyph-name="collect" unicode="&#58904;" d="M244.622222-99.555556c-11.377778 0-22.755556 5.688889-28.444444 11.377778-17.066667 11.377778-22.755556 34.133333-22.755556 62.577778l39.822222 227.555556c5.688889 22.755556-5.688889 62.577778-22.755555 79.644444L51.2 440.888889C28.444444 457.955556 22.755556 480.711111 28.444444 503.466667c11.377778 17.066667 28.444444 34.133333 56.888889 34.133333l216.177778 34.133333c22.755556 5.688889 51.2 28.444444 62.577778 45.511111l96.711111 210.488889c17.066667 34.133333 39.822222 39.822222 51.2 39.822223 11.377778 0 34.133333-5.688889 51.2-39.822223l96.711111-210.488889c11.377778-22.755556 39.822222-45.511111 62.577778-45.511111l216.177778-34.133333c28.444444-5.688889 45.511111-17.066667 51.2-39.822222s0-45.511111-17.066667-62.577778l-159.288889-159.288889c-17.066667-17.066667-28.444444-56.888889-22.755555-79.644444l39.822222-227.555556c5.688889-28.444444-5.688889-51.2-22.755556-62.577778-17.066667-11.377778-39.822222-11.377778-62.577778 0l-193.422222 108.088889c-22.755556 11.377778-56.888889 11.377778-79.644444 0l-193.422222-108.088889c-11.377778 0-22.755556-5.688889-34.133334-5.688889zM512 82.488889c22.755556 0 45.511111-5.688889 68.266667-17.066667l193.422222-108.088889-39.822222 227.555556c-5.688889 39.822222 11.377778 96.711111 39.822222 125.155555l159.288889 159.288889v5.688889h-5.688889l-216.177778 34.133334c-39.822222 5.688889-91.022222 39.822222-108.088889 79.644444L512 804.977778 415.288889 594.488889c-17.066667-34.133333-68.266667-73.955556-108.088889-79.644445l-216.177778-28.444444h-5.688889l5.688889-5.688889 159.288889-159.288889c28.444444-28.444444 45.511111-85.333333 39.822222-125.155555l-39.822222-227.555556 193.422222 108.088889c22.755556 0 45.511111 5.688889 68.266667 5.688889zM483.555556 816.355556z"  horiz-adv-x="1024" />

    
    <glyph glyph-name="deliver" unicode="&#58905;" d="M1004.8 800v12.8 6.4 6.4l-6.4 6.4-6.4 6.4c-6.4-6.4-12.8-6.4-19.2-6.4h-6.4l-896-300.8c-12.8-6.4-19.2-19.2-19.2-32s6.4-25.6 19.2-32L384 307.2 339.2 64c0-12.8 6.4-25.6 12.8-32s12.8-6.4 19.2-6.4c6.4 0 12.8 0 19.2 6.4l128 83.2 108.8-217.6c6.4-12.8 19.2-19.2 25.6-19.2 12.8 0 25.6 6.4 25.6 19.2l320 883.2c6.4 6.4 6.4 12.8 6.4 19.2 0-6.4 0-6.4 0 0z m-153.6-76.8l-396.8-384-294.4 153.6 691.2 230.4zM416 128l19.2 147.2 51.2-96-70.4-51.2z m236.8-134.4L499.2 294.4l403.2 384-249.6-684.8zM1004.8 800v12.8 6.4 6.4l-6.4 6.4-6.4 6.4c-6.4-6.4-12.8-6.4-19.2-6.4h-6.4l-896-300.8c-12.8-6.4-19.2-19.2-19.2-32s6.4-25.6 19.2-32L384 307.2 339.2 64c0-12.8 6.4-25.6 12.8-32s12.8-6.4 19.2-6.4c6.4 0 12.8 0 19.2 6.4l128 83.2 108.8-217.6c6.4-12.8 19.2-19.2 25.6-19.2 12.8 0 25.6 6.4 25.6 19.2l320 883.2c6.4 6.4 6.4 12.8 6.4 19.2 0-6.4 0-6.4 0 0z m-153.6-76.8l-396.8-384-294.4 153.6 691.2 230.4zM416 128l19.2 147.2 51.2-96-70.4-51.2z m236.8-134.4L499.2 294.4l403.2 384-249.6-684.8z"  horiz-adv-x="1056" />

    
    <glyph glyph-name="error" unicode="&#58906;" d="M512 884.093023C235.75814 884.093023 11.906977 660.24186 11.906977 384s223.851163-500.093023 500.093023-500.093023 500.093023 223.851163 500.093023 500.093023-223.851163 500.093023-500.093023 500.093023z m0-928.744186c-235.75814 0-428.651163 192.893023-428.651163 428.651163s192.893023 428.651163 428.651163 428.651163 428.651163-192.893023 428.651163-428.651163-192.893023-428.651163-428.651163-428.651163zM681.07907 553.07907c-14.288372 14.288372-35.72093 14.288372-50.009303 0l-119.069767-119.069768-119.069767 119.069768c-14.288372 14.288372-35.72093 14.288372-50.009303 0-14.288372-14.288372-14.288372-35.72093 0-50.009303l119.069768-119.069767-119.069768-119.069767c-14.288372-14.288372-14.288372-35.72093 0-50.009303 7.144186-7.144186 16.669767-9.525581 26.195349-9.525581s19.051163 2.381395 26.195349 9.525581l119.069767 119.069768 119.069768-119.069768c7.144186-7.144186 16.669767-9.525581 26.195349-9.525581s19.051163 2.381395 26.195348 9.525581c14.288372 14.288372 14.288372 35.72093 0 50.009303l-119.069767 119.069767 119.069767 119.069767c9.525581 14.288372 9.525581 35.72093-4.76279 50.009303z"  horiz-adv-x="1024" />

    
    <glyph glyph-name="success" unicode="&#58907;" d="M512 884.093023C235.75814 884.093023 11.906977 660.24186 11.906977 384s223.851163-500.093023 500.093023-500.093023 500.093023 223.851163 500.093023 500.093023-223.851163 500.093023-500.093023 500.093023z m0-928.744186c-235.75814 0-428.651163 192.893023-428.651163 428.651163s192.893023 428.651163 428.651163 428.651163 428.651163-192.893023 428.651163-428.651163-192.893023-428.651163-428.651163-428.651163zM702.511628 534.027907L452.465116 274.455814l-130.976744 114.306977c-14.288372 11.906977-38.102326 11.906977-50.009302-2.381396s-11.906977-38.102326 2.381395-50.009302l157.172093-135.739535c7.144186-4.762791 14.288372-9.525581 23.813954-9.525581s19.051163 4.762791 26.195348 11.906976l273.860466 283.386047c14.288372 14.288372 14.288372 35.72093 0 50.009302-16.669767 11.906977-38.102326 11.906977-52.390698-2.381395z"  horiz-adv-x="1024" />

    
    <glyph glyph-name="calendar" unicode="&#58908;" d="M772.654545 747.054545V868.072727c0 9.309091-18.618182 27.927273-37.236363 27.927273s-27.927273-18.618182-27.927273-27.927273v-111.709091H381.672727V868.072727C381.672727 877.381818 372.363636 896 353.745455 896c-18.618182 0-37.236364-18.618182-37.236364-27.927273v-111.709091H0V-128h1117.090909V747.054545H772.654545z m279.272728-809.890909H65.163636v744.727273h251.345455v-83.781818c0-18.618182 18.618182-27.927273 37.236364-27.927273s27.927273 18.618182 27.927272 27.927273v83.781818h316.509091v-83.781818c0-18.618182 18.618182-27.927273 37.236364-27.927273s27.927273 18.618182 27.927273 27.927273v83.781818h279.272727v-744.727273zM344.436364 393.309091H232.727273c-18.618182 0-27.927273-18.618182-27.927273-37.236364s18.618182-27.927273 27.927273-27.927272h102.4c18.618182 0 37.236364 9.309091 37.236363 27.927272s-18.618182 37.236364-27.927272 37.236364zM688.872727 356.072727c0-18.618182 18.618182-27.927273 27.927273-27.927272H837.818182c18.618182 0 27.927273 18.618182 27.927273 27.927272s-9.309091 37.236364-27.927273 37.236364H726.109091c-18.618182 0-37.236364-18.618182-37.236364-37.236364zM344.436364 169.890909H232.727273c-18.618182 0-27.927273-18.618182-27.927273-37.236364s18.618182-27.927273 27.927273-27.927272h102.4c18.618182 0 37.236364 9.309091 37.236363 27.927272s-18.618182 37.236364-27.927272 37.236364zM837.818182 169.890909H726.109091c-18.618182 0-37.236364-18.618182-37.236364-37.236364s18.618182-27.927273 27.927273-27.927272H837.818182c18.618182 0 27.927273 18.618182 27.927273 27.927272s-9.309091 37.236364-27.927273 37.236364z"  horiz-adv-x="1117" />

    
    <glyph glyph-name="ICqia" unicode="&#58909;" d="M64.625778 896h1292.970666C1393.208889 896 1422.222222 869.034667 1422.222222 835.754667V-67.697778c0-33.28-28.956444-60.245333-64.625778-60.245333H64.625778C29.013333-128 0-101.034667 0-67.754667V835.697778C0 869.034667 28.956444 896 64.625778 896zM227.555556 611.555556a56.888889 56.888889 0 0 1-56.888889-56.888889v-341.333334a56.888889 56.888889 0 0 1 56.888889-56.888889h341.333333a56.888889 56.888889 0 0 1 56.888889 56.888889V554.666667a56.888889 56.888889 0 0 1-56.888889 56.888889H227.555556z m568.888888-128h415.118223a42.666667 42.666667 0 0 1 0 85.333333H796.444444a42.666667 42.666667 0 1 1 0-85.333333z m0-227.555556h259.982223a42.666667 42.666667 0 1 1 0 85.333333H796.444444a42.666667 42.666667 0 1 1 0-85.333333z"  horiz-adv-x="1422" />

    
    <glyph glyph-name="chenggong" unicode="&#58910;" d="M512 896C229.590326 896 0 666.409674 0 384S229.590326-128 512-128 1024 101.590326 1024 384 794.409674 896 512 896z"  horiz-adv-x="1024" />

    
    <glyph glyph-name="ciqia" unicode="&#58911;" d="M1332.224-128H87.779556C38.286222-128 0-90.453333 0-41.927111V461.255111h1422.222222v-503.182222c0-46.364444-40.504889-86.072889-89.998222-86.072889z m-143.872 384.796444a43.576889 43.576889 0 0 1-31.288889 13.425778h-88.746667a43.576889 43.576889 0 0 1-31.288888-13.425778 46.648889 46.648889 0 0 1-13.027556-32.426666v-84.138667a46.648889 46.648889 0 0 1 12.970667-32.426667 43.576889 43.576889 0 0 1 31.345777-13.425777h88.746667a43.576889 43.576889 0 0 1 31.288889 13.425777 46.648889 46.648889 0 0 1 13.027556 32.426667v84.138667a46.648889 46.648889 0 0 1-13.027556 32.426666zM0 809.927111C0 856.291556 40.504889 896 87.779556 896h1244.444444c49.493333 0 87.722667-37.546667 87.722667-86.072889V584.817778H0V809.927111z"  horiz-adv-x="1422" />

    
    <glyph glyph-name="guanbi" unicode="&#58912;" d="M953.103059-128c-15.661176 0-37.948235 8.854588-49.091765 19.937882L21.684706 774.565647C-7.228235 803.418353-7.228235 845.522824 21.744941 874.375529 50.778353 903.228235 93.184 903.228235 122.277647 874.375529l880.037647-878.230588c28.973176-28.792471 28.973176-70.896941 0-99.749647-11.203765-17.769412-29.033412-24.395294-49.152-24.395294zM953.103059 896c20.118588 0 37.948235-6.625882 49.152-24.395294 28.973176-28.852706 28.973176-70.957176 0-99.809882L122.217412-106.315294c-29.033412-28.852706-71.439059-28.852706-100.472471 0-28.973176 28.852706-28.973176 70.957176 0 99.809882L904.011294 876.062118c11.143529 11.083294 33.490824 19.937882 49.091765 19.937882z"  horiz-adv-x="1024" />

    
    <glyph glyph-name="baozhangqia" unicode="&#58913;" d="M929.322732 752.00937a69.136019 69.136019 0 0 1-46.025672 17.259627c-1.560192 0-3.120384 0-4.63182-0.097512-0.97512-0.097512-11.798954-0.73134-28.766045-0.73134-28.08346 0-82.933969 1.901484-134.907873 13.992974C647.903056 798.083797 570.478516 870.730249 547.95324 885.064515A70.208651 70.208651 0 0 1 472.9665 885.162027c-2.68158-1.803972-83.762821-84.201625-163.088845-102.728908-51.925148-12.09149-107.799533-13.992974-135.882993-13.992974-16.967091 0-27.790924 0.633828-28.814801 0.73134-1.46268 0.097512-2.92536 0.097512-4.485552 0.097512-17.064603 0-33.544133-6.094501-46.123184-17.259627-13.651682-12.09149-21.403887-29.058581-21.403887-46.805767V544.845094C73.167238-47.686666 481.255022-123.989818 498.514648-127.012691c7.898473-1.316412 15.99197-1.316412 23.890444 0C539.713475-123.989818 950.775375-47.686666 950.775375 544.845094V705.203603c0 17.795943-7.800961 34.763033-21.452643 46.854523z m-150.851088-229.250747l-282.882356-268.889382a39.151074 39.151074 0 0 0-6.582061-8.093498 42.466483 42.466483 0 0 0-30.131213-11.506417 42.417727 42.417727 0 0 0-36.713273 19.599915L270.970361 397.601951a37.785906 37.785906 0 0 0 0 55.338069 42.856531 42.856531 0 0 0 58.312185 0l129.593468-123.255188 261.332201 248.411859a42.807775 42.807775 0 0 0 58.263429 0 37.932174 37.932174 0 0 0 0-55.386824z"  horiz-adv-x="1024" />

    
    <glyph glyph-name="logo" unicode="&#58914;" d="M3387.8016-88.576h128.3584V877.7216h-128.3584zM1297.408 421.4784l-348.416-473.6 348.0576 474.0608zM0-52.1728h605.1328l-302.592 474.112zM0 896l302.592-474.112L605.0816 896zM1297.0496 421.888l0.3584 0.512L948.992 896zM650.4448 896l-302.08-474.112 302.08-474.0608 358.0928 474.112zM3387.8016-88.576h128.3584V877.7216h-128.3584zM1517.4144 330.752h935.2192V458.3936H1517.4144zM2311.7824 879.6672H1658.368a144.7936 144.7936 0 0 1-145.2032-144.384v-199.0656h132.0448V690.4832c0 32 26.112 57.9072 58.2656 57.9072h525.9776l82.432 131.2768zM2311.7312 42.6496H1703.424a58.112 58.112 0 0 0-58.2656 57.9584v154.2144h-132.0448v-199.0656c0-79.7184 65.024-144.384 145.2032-144.384h571.0336l82.432 131.2768zM3060.48 879.6672H2489.856l-82.432-131.2768h607.9488c32.256 0 58.3168-25.9072 58.3168-57.9072v-154.2656h131.9936V735.2832c0 79.7184-65.024 144.384-145.2032 144.384M3073.6896 583.0144v-482.4064c0-32-26.112-57.9584-58.3168-57.9584H2489.2416l-82.176-130.9696v-0.3072h653.4144a144.7936 144.7936 0 0 1 145.2032 144.384V583.0144h-131.9936zM2407.0144 675.5328v-580.1984l215.8592 290.0992zM4344.0128 462.6432h-462.7968c-32.256 0-58.368 26.0096-58.368 58.0096V693.4528c0 32.0512 26.112 57.9584 58.368 57.9584h526.1824L4489.5232 882.3296V882.688H3836.1088a144.7936 144.7936 0 0 1-145.2032-144.384v-262.5024c0-79.7696 65.024-144.384 145.2032-144.384h463.1552c32.1536 0 58.2656-25.9584 58.2656-58.0096v-172.7488c0-32.0512-26.112-58.0096-58.2656-58.0096H3772.0576l-82.432-131.2768h653.7216a144.7936 144.7936 0 0 1 145.2032 144.0256l0.6656 262.5536a144.7936 144.7936 0 0 1-145.2032 144.6912"  horiz-adv-x="4505" />

    
    <glyph glyph-name="daxiao" unicode="&#58915;" d="M0.001229 384c0-282.76736 229.23264-512 512-512s512 229.23264 512 512S794.768589 896 512.001229 896 0.001229 666.76736 0.001229 384zM1008.477389 485.62176C960.615629 720.11776 755.856589 896 509.338829 896 228.189389 896 0.001229 665.6 0.001229 381.7472a512.65536 512.65536 0 0 1 116.1216-326.0416c86.58944-48.35328 185.40544-75.10016 291.34848-75.10016 299.47904 0 548.0448 218.05056 601.00608 505.01632zM512.001229 120.23808c-132.7104 0-243.13856 96.37888-263.3728 223.19104A35.45088 35.45088 0 0 0 284.058829 384h455.8848c22.28224 0 38.5024-19.27168 35.4304-40.57088C755.160269 216.61696 644.711629 120.2176 512.001229 120.2176zM740.660429 384H284.120269c-22.3232 0-38.54336-19.33312-35.51232-40.69376 1.024-7.12704 2.048-14.25408 4.05504-21.36064h518.4512c2.02752 7.10656 3.03104 14.2336 4.05504 21.36064 4.05504 21.36064-13.18912 40.69376-34.5088 40.69376zM589.006029 259.8912A97.1776 97.1776 0 0 1 512.001229 221.67552c-16.65024 23.12192-44.7488 38.17472-77.0048 38.17472-48.90624 0-89.4976-36.1472-93.65504-82.37056 46.81728-36.16768 106.14784-57.26208 170.65984-57.26208 64.512 0 123.84256 21.0944 170.65984 57.26208-4.15744 46.22336-44.7488 82.37056-93.65504 82.37056zM180.982989 446.0544c-10.30144 0-18.5344 7.20896-20.60288 17.48992-2.048 11.30496 6.18496 21.58592 17.5104 23.63392 62.81216 10.28096 122.53184 29.81888 179.17952 56.56576a632.07424 632.07424 0 0 1-183.296 46.26432 20.74624 20.74624 0 0 0-18.5344 22.60992c1.024 11.30496 11.32544 19.53792 22.65088 18.51392 78.25408-8.23296 153.43616-29.81888 225.50528-62.73024l10.30144-5.12c7.20896-3.09248 11.32544-10.30144 12.34944-18.51392 0-8.23296-4.096-15.42144-11.32544-18.51392l-17.48992-8.23296c-66.94912-35.98336-139.01824-59.61728-213.15584-71.96672h-3.09248z m676.51584 0h-3.072c-75.1616 12.34944-146.2272 35.98336-213.15584 71.96672l-16.4864 9.25696a21.64736 21.64736 0 0 0-11.32544 18.51392c0 7.18848 5.16096 14.39744 12.36992 18.51392l10.28096 5.12a715.28448 715.28448 0 0 0 225.50528 62.73024 20.76672 20.76672 0 0 0 22.67136-18.51392 20.74624 20.74624 0 0 0-18.5344-22.60992 695.35744 695.35744 0 0 1-183.296-46.2848c55.6032-28.7744 116.34688-47.28832 178.13504-57.5488 11.32544-2.06848 18.5344-12.34944 17.5104-23.6544-2.048-10.28096-10.30144-17.48992-20.60288-17.48992z"  horiz-adv-x="1024" />

    
    <glyph glyph-name="huanzhepinggu" unicode="&#58916;" d="M502.186667 364.8c143.701333 0 260.650667 119.082667 260.608 265.6C762.794667 776.874667 645.888 896 502.229333 896 358.528 896 241.621333 776.832 241.621333 630.4c0-146.474667 116.906667-265.642667 260.608-265.642667z m107.434666-25.6H414.378667C232.917333 339.2 85.333333 188.842667 85.333333 4.053333v-19.925333c0-96.597333 145.237333-96.597333 329.045334-96.597333h195.242666c176.554667 0 329.045333 0 329.045334 96.597333v19.925333c0 184.746667-147.626667 335.146667-329.045334 335.146667z"  horiz-adv-x="1024" />

    
    <glyph glyph-name="nv" unicode="&#58917;" d="M1024 384A512 512 0 1 0 512 896a512 512 0 0 0 512-512M280.041739 39.624348h455.68a72.570435 72.570435 0 0 1 31.610435 71.457391c-2.448696 54.316522-52.090435 100.61913-81.697391 122.434783a157.384348 157.384348 0 0 1-79.471305 22.260869h-199.234782S258.893913 233.961739 244.869565 139.130435s35.172174-99.506087 35.172174-99.506087M436.313043 345.711304v-92.382608l26.713044-50.086957 41.850435 35.617391 60.772174-2.226087 17.586087 25.822609 10.907826 84.146087-157.829566-0.890435zM445.217391 392.45913h238.859131s53.203478 26.713043 53.203478 133.565218-85.926957 256-226.615652 263.346087-222.608696-170.74087-222.608696-277.593044 44.521739-131.33913 44.521739-131.33913zM419.617391 641.335652s-13.133913-66.782609-39.401739-84.368695-52.535652-11.353043-48.751304-50.754783a58.991304 58.991304 0 0 1 32.055652-50.532174s46.747826-146.253913 148.034783-146.253913 152.041739 144.473043 152.041739 144.473043a89.043478 89.043478 0 0 1 31.833043 58.10087c0 31.833043-65.001739 17.363478-148.702608 44.521739a282.045217 282.045217 0 0 0-127.109566 84.813913zM330.351304 232.403478a258.226087 258.226087 0 0 0 44.521739 16.695652 318.553043 318.553043 0 0 0 37.62087 6.233044s16.027826-36.953043 26.713044-62.553044a121.09913 121.09913 0 0 0 9.349565-48.528695h128.445217a300.076522 300.076522 0 0 0 11.130435 66.782608c9.349565 28.271304 15.582609 44.521739 15.582609 44.52174a222.608696 222.608696 0 0 0 48.973913-6.678261 117.982609 117.982609 0 0 0 32.500869-15.137392s-33.168696-61.217391-31.610435-101.954782a721.474783 721.474783 0 0 1 11.575653-91.937391H361.516522a422.956522 422.956522 0 0 1 3.116521 107.742608 190.998261 190.998261 0 0 1-34.281739 84.813913zM430.747826 309.426087l-28.048696-52.313044 56.987827-80.13913L512 232.848696l47.193043-55.874783 64.779131 78.135652-29.829565 54.316522L512 239.304348l-81.252174 70.121739z"  horiz-adv-x="1024" />

    
    <glyph glyph-name="nan" unicode="&#58918;" d="M1024 384A512 512 0 1 0 512 896a512 512 0 0 0 512-512M265.349565 39.624348h499.756522a71.234783 71.234783 0 0 1 34.949565 71.457391 146.476522 146.476522 0 0 1-101.509565 127.332174C644.229565 250.434783 623.304348 255.332174 623.304348 255.332174h-218.824348s-162.281739-22.26087-178.086957-116.201739 38.733913-99.506087 38.733914-99.506087M440.32 303.638261v-58.991304l28.048696-32.055653L512 235.297391l63.666087-1.335652 18.476522 16.473044-4.897392 62.775652-148.925217-9.572174zM430.747826 309.426087l-28.048696-52.313044 56.987827-80.13913L512 232.848696l47.193043-55.874783 64.779131 78.135652-29.829565 54.316522L512 239.304348l-81.252174 70.121739zM345.043478 590.803478l9.794783-91.937391s-13.57913 2.003478-7.346087-29.384348a52.313043 52.313043 0 0 1 24.264348-39.624348s17.363478-152.932174 141.57913-148.48 133.565217 146.476522 133.565218 146.476522a50.086957 50.086957 0 0 1 28.716521 46.747826c2.226087 37.843478 2.226087 40.292174 2.226087 40.292174l-8.236521 96.166957-70.566957 22.260869h-214.372174zM363.52 493.523478a30.497391 30.497391 0 0 0-26.045217 0c-5.787826 3.561739-6.90087 117.537391-1.558261 140.243479s18.253913 105.293913 180.758261 99.060869 168.292174-92.382609 168.737391-101.954783 5.342609-132.006957 0-137.349565a25.154783 25.154783 0 0 0-26.490435 0c-4.897391 4.674783 7.123478 71.012174 3.784348 81.697392a44.521739 44.521739 0 0 1-23.373913 29.384347c-14.469565 7.346087-44.521739-14.914783-131.784348-12.911304s-109.078261 24.709565-126.886956 15.137391a39.846957 39.846957 0 0 1-22.26087-36.285217c0-11.575652 10.24-72.570435 5.342609-77.022609"  horiz-adv-x="1024" />

    
    <glyph glyph-name="qingweitong" unicode="&#58919;" d="M0.001229 384c0-282.76736 229.23264-512 512-512s512 229.23264 512 512S794.768589 896 512.001229 896 0.001229 666.76736 0.001229 384zM1008.477389 485.62176C960.615629 720.11776 755.856589 896 509.338829 896 228.189389 896 0.001229 665.6 0.001229 381.7472a512.65536 512.65536 0 0 1 116.1216-326.0416c86.58944-48.35328 185.40544-75.10016 291.34848-75.10016 299.47904 0 548.0448 218.05056 601.00608 505.01632zM659.395789 151.26528c-38.912 0-69.8368 33.0752-69.8368 74.67008V321.9456l139.6736-21.34016v-74.67008c0-41.59488-30.9248-74.67008-69.8368-74.67008zM748.360909 276.6848a794.66496 794.66496 0 0 1-487.2192 0c-10.36288-3.76832-22.8352 0.94208-26.99264 11.34592-4.15744 9.4208 1.024 20.76672 12.47232 24.55552a841.9328 841.9328 0 0 0 515.25632 0c11.42784-3.7888 16.60928-15.11424 12.45184-24.576-3.11296-9.4208-14.5408-14.15168-25.96864-11.32544zM368.477389 579.584a20.23424 20.23424 0 0 1-28.99968 0l-43.52-42.88512-43.52 42.86464a20.23424 20.23424 0 0 1-28.99968 0 19.53792 19.53792 0 0 1 0-28.5696l43.49952-42.86464-43.49952-42.88512a19.53792 19.53792 0 0 1 0-28.5696 20.23424 20.23424 0 0 1 28.99968 0l43.52 42.86464 43.52-42.86464a20.23424 20.23424 0 0 1 28.99968 0 19.53792 19.53792 0 0 1 0 28.5696l-43.49952 42.88512 43.49952 42.86464c8.2944 7.14752 8.2944 20.41856 0 28.5696z m447.61088 0a20.23424 20.23424 0 0 1-29.02016 0l-43.49952-42.88512-43.52 42.86464a20.23424 20.23424 0 0 1-29.02016 0 19.53792 19.53792 0 0 1 0-28.5696l43.52-42.86464-43.52-42.88512a19.53792 19.53792 0 0 1 0-28.5696 20.23424 20.23424 0 0 1 29.02016 0l43.52 42.86464 43.49952-42.86464a20.23424 20.23424 0 0 1 29.02016 0 19.53792 19.53792 0 0 1 0 28.5696l-43.52 42.88512 43.52 42.86464c8.2944 7.14752 8.2944 20.41856 0 28.5696z"  horiz-adv-x="1024" />

    
    <glyph glyph-name="sanwu" unicode="&#58920;" d="M435.590095 896h436.711619a48.761905 48.761905 0 0 0 48.761905-48.761905v-926.47619a48.761905 48.761905 0 0 0-48.761905-48.761905h-731.428571a48.761905 48.761905 0 0 0-48.761905 48.761905V548.961524L435.590095 896z m34.425905-292.571429v-306.517333a36.571429 36.571429 0 0 1 73.142857 0V603.428571a36.571429 36.571429 0 0 1-73.142857 0z m73.142857-491.27619v14.287238a36.571429 36.571429 0 0 1-73.142857 0v-14.287238a36.571429 36.571429 0 1 1 73.142857 0z"  horiz-adv-x="1024" />

    
    <glyph glyph-name="jutong" unicode="&#58921;" d="M0.001229 384c0-282.76736 229.23264-512 512-512s512 229.23264 512 512S794.768589 896 512.001229 896 0.001229 666.76736 0.001229 384zM1008.477389 485.62176C960.615629 720.11776 755.856589 896 509.338829 896 228.189389 896 0.001229 665.6 0.001229 381.7472a512.65536 512.65536 0 0 1 116.1216-326.0416c86.58944-48.35328 185.40544-75.10016 291.34848-75.10016 299.47904 0 548.0448 218.05056 601.00608 505.01632zM322.950349 183.5008c-40.26368-7.10656-79.50336 18.26816-87.7568 57.83552-19.61984 98.44736 78.45888 220.24192 276.6848 220.24192 187.904 0 298.3936-120.77056 276.6848-220.24192-8.25344-38.56384-47.47264-63.93856-87.73632-56.832a1151.63136 1151.63136 0 0 1-377.87648-1.024zM682.681549 288.768c-19.456 20.33664-46.10048 33.1776-75.81696 33.1776-35.88096 0-67.64544-18.18624-87.10144-47.104-13.312 19.27168-31.76448 34.26304-54.31296 41.73824-37.90848 12.84096-79.91296 2.1504-108.60544-27.81184-23.57248-24.61696-32.78848-57.77408-30.74048-90.9312 2.048 0 4.096 0 6.144 1.04448a1051.648 1051.648 0 0 0 375.02976 0c2.048 0 4.096-1.06496 6.144-1.06496 2.048 34.24256-7.168 67.42016-30.74048 90.95168zM423.752909 135.76192c-8.02816 0-16.0768 5.7344-19.10784 14.9504-4.01408 11.4688 2.02752 25.27232 12.0832 29.85984 41.22624 17.24416 53.28896 17.24416 94.5152 17.24416 42.22976 0 44.2368 0 94.5152-16.09728 11.0592-3.44064 17.1008-16.0768 14.06976-28.71296-3.01056-12.65664-14.06976-19.53792-25.12896-16.09728-46.26432 14.9504-46.26432 14.9504-83.456 14.9504-39.2192 0-47.26784 0-81.44896-13.80352a9.9328 9.9328 0 0 0-6.0416-2.29376zM186.164429 601.21088l20.3776-621.52704a487.79264 487.79264 0 0 1 142.5408-76.65664l20.3776 698.18368H186.164429z m468.3776 0l20.3776-698.1632a487.79264 487.79264 0 0 1 142.5408 76.63616l20.35712 621.52704H654.542029zM191.612109 570.1632c-8.27392 0-16.54784 5.75488-19.6608 14.9504-4.11648 11.50976 2.08896 25.2928 12.43136 29.9008 42.3936 17.22368 54.80448 17.22368 97.21856 17.22368 43.43808 0 45.50656 0 97.21856-16.0768 11.38688-3.46112 17.59232-16.09728 14.47936-28.73344-3.09248-12.65664-14.47936-19.53792-25.84576-16.09728-47.57504 14.9504-47.57504 14.9504-85.85216 14.9504-40.3456 0-48.61952 0-83.7632-13.80352a10.38336 10.38336 0 0 0-6.22592-2.29376z m459.24352 0c-8.27392 0-16.54784 5.75488-19.6608 14.9504-4.13696 11.50976 2.06848 25.2928 12.41088 29.9008 42.3936 17.22368 54.82496 17.22368 97.21856 17.22368 43.45856 0 45.52704 0 97.23904-16.0768 11.3664-3.46112 17.57184-16.09728 14.47936-28.73344-3.11296-12.65664-14.47936-19.53792-25.86624-16.09728-47.57504 14.9504-47.57504 14.9504-85.85216 14.9504-40.3456 0-48.59904 0-83.7632-13.80352a10.38336 10.38336 0 0 0-6.20544-2.29376z"  horiz-adv-x="1024" />

    
    <glyph glyph-name="saoma" unicode="&#58922;" d="M48.761905 896h926.47619a48.761905 48.761905 0 0 0 48.761905-48.761905v-926.47619a48.761905 48.761905 0 0 0-48.761905-48.761905H48.761905a48.761905 48.761905 0 0 0-48.761905 48.761905V847.238095a48.761905 48.761905 0 0 0 48.761905 48.761905z m334.848-792.283429H231.619048V262.095238a36.571429 36.571429 0 1 1-73.142858 0v-194.950095c0-20.187429 16.384-36.571429 36.571429-36.571429h188.562286a36.571429 36.571429 0 0 1 0 73.142857z m250.294857 0a36.571429 36.571429 0 1 1 0-73.142857h188.562286a36.571429 36.571429 0 0 1 36.571428 36.571429V262.095238a36.571429 36.571429 0 1 1-73.142857 0v-158.378667H633.904762zM231.619048 664.380952h151.990857a36.571429 36.571429 0 0 1 0 73.142858H195.047619a36.571429 36.571429 0 0 1-36.571429-36.571429v-194.950095a36.571429 36.571429 0 1 1 73.142858 0V664.380952z m402.285714 0h151.990857v-158.378666a36.571429 36.571429 0 1 1 73.142857 0V700.952381a36.571429 36.571429 0 0 1-36.571428 36.571429H633.904762a36.571429 36.571429 0 1 1 0-73.142858z m-415.402667-316.611047h573.293715a36.571429 36.571429 0 1 1 0 73.142857H218.502095a36.571429 36.571429 0 0 1 0-73.142857z"  horiz-adv-x="1024" />

    
    <glyph glyph-name="qunshangguanli" unicode="&#58923;" d="M846.336 362.635636c75.636364 45.754182 122.228364 131.909818 122.228364 227.421091C968.564364 733.090909 862.952727 849.454545 733.323636 849.454545c-9.728 0-19.874909-0.744727-30.254545-2.234181L698.181818 846.522182l3.165091-4.282182c12.8-17.501091 24.110545-36.584727 33.512727-56.785455l0.744728-1.582545h1.629091c95.325091-2.327273 172.869818-89.274182 172.869818-193.815273 0-106.961455-79.313455-194.001455-176.779637-194.001454h-7.307636l99.700364-97.838546h1.024c127.860364-1.629091 231.889455-117.108364 231.889454-257.442909v-18.152727c0-6.283636-1.024-8.704-5.213091-12.381091-7.773091-6.795636-22.202182-12.706909-41.751272-17.035636-18.338909-4.049455-41.797818-6.795636-71.68-8.378182l-2.56-0.139637-0.046546-2.839272c-0.605091-22.248727-5.026909-41.937455-13.172364-58.600728l-2.327272-4.70109 4.840727 0.186181c98.862545 3.816727 190.370909 19.037091 190.370909 103.889455v18.152727c0 169.984-118.132364 309.294545-270.754909 321.861818zM554.356364 358.306909c91.042909 46.359273 153.832727 142.894545 153.832727 254.184727C708.189091 768.837818 584.471273 896 432.407273 896 280.296727 896 156.625455 768.837818 156.625455 612.538182c0-112.267636 63.767273-209.501091 156.020363-255.394909C137.634909 340.666182 0 188.974545 0 4.980364v-20.107637c0-52.363636 34.722909-85.085091 106.123636-100.072727C167.191273-128 249.250909-128 344.296727-128h195.770182C724.805818-128 884.363636-128 884.363636-15.127273v20.107637c0 190.091636-146.757818 345.6-330.007272 353.326545z"  horiz-adv-x="1117" />

    
    <glyph glyph-name="shenfenzheng" unicode="&#58924;" d="M64.625778 896h1292.970666C1393.208889 896 1422.222222 869.034667 1422.222222 835.754667V-67.697778c0-33.28-28.956444-60.245333-64.625778-60.245333H64.625778C29.013333-128 0-101.034667 0-67.754667V835.697778C0 869.034667 28.956444 896 64.625778 896z m664.177778-239.047111c-79.644444 0-144.099556-62.577778-144.099556-139.946667 0-77.368889 64.455111-139.946667 144.099556-139.946666s144.099556 62.577778 144.099555 139.946666c0 77.368889-64.455111 139.946667-144.099555 139.946667z m208.611555-567.239111c18.944 0 37.888 14.734222 37.888 33.166222v114.176c0 55.239111-45.511111 99.441778-102.4 99.441778h-261.688889c-56.888889 0-102.4-44.202667-102.4-99.441778v-114.176a33.564444 33.564444 0 0 1 34.133334-33.166222h394.467555z"  horiz-adv-x="1422" />

    
    <glyph glyph-name="shibai" unicode="&#58925;" d="M512 896C229.590326 896 0 666.409674 0 384S229.590326-128 512-128 1024 101.590326 1024 384 794.409674 896 512 896z"  horiz-adv-x="1024" />

    
    <glyph glyph-name="shoudong" unicode="&#58926;" d="M512 896C228.80256 896 0 667.19744 0 384S228.80256-128 512-128 1024 100.80256 1024 384 795.19744 896 512 896z m267.18208-494.3872v-148.80768c-4.79232-107.19232-94.37184-192.02048-201.56416-192.02048a198.0416 198.0416 0 0 0-156.83584 75.20256l-159.98976 160.03072c-19.21024 19.16928-19.21024 51.2 0 71.96672 19.21024 19.2512 51.2 19.2512 72.00768 0l57.58976-57.58976V657.6128c0 27.19744 22.40512 48.00512 48.00512 48.00512 25.6 0 48.00512-22.40512 48.00512-48.00512v-144.01536c0 27.19744 22.40512 48.00512 48.00512 48.00512 27.19744 0 48.00512-22.40512 48.00512-48.00512v-33.5872c0 27.19744 22.40512 48.00512 48.00512 48.00512 27.19744 0 47.96416-22.40512 47.96416-48.00512v-57.58976c0 27.19744 22.40512 47.96416 48.00512 47.96416 27.19744 0 48.00512-22.36416 49.60256-47.96416v-20.80768h3.19488z"  horiz-adv-x="1024" />

    
    <glyph glyph-name="sousuo" unicode="&#58927;" d="M968.592068-127.488256c-12.09577 0-29.355504 6.885285-38.008632 15.445368l-217.723866 218.049521c-22.516742 22.330653-22.516742 54.94271 0 77.273363 22.423697 22.330653 55.268366 22.330653 77.738585 0l216.049067-214.606878c22.470219-22.330653 22.470219-54.94271 0-77.273363-8.653128-13.724047-22.470219-18.888011-38.055154-18.888011zM450.334833-4.669665C201.627186-4.669665 0 196.957521 0 445.665167S201.627186 896 450.334833 896s450.334833-201.627186 450.334832-450.334833-201.627186-450.334833-450.334832-450.334832z m0 796.459952c-188.182273 0-342.775521-157.942847-342.775522-346.12512s154.593249-342.775521 342.775522-342.775521 342.775521 154.593249 342.775521 342.775521c0 189.857071-151.197129 346.125119-342.775521 346.12512z"  horiz-adv-x="1024" />

    
    <glyph glyph-name="shezhi" unicode="&#58928;" d="M1011.799771 486.282971c-2.428343 20.0704-14.628571 37.624686-36.571428 42.627658h-2.428343c-43.885714 10.0352-75.5712 35.108571-99.971657 77.736228-21.942857 37.595429-29.257143 85.226057-14.628572 127.853714 7.314286 17.554286 2.4576 40.111543-14.628571 55.178972A455.504457 455.504457 0 0 1 677.800229 892.459886c-17.086171 7.519086-36.571429 2.516114-53.6576-15.038172-26.799543-35.108571-68.256914-52.662857-114.570972-52.662857-41.457371 0-80.457143 20.0704-114.600228 55.178972-19.514514 20.041143-38.999771 17.554286-53.628343 12.522057-63.400229-27.560229-117.028571-60.181943-163.371886-100.293486-17.056914-12.522057-24.3712-35.108571-17.056914-55.149714 12.200229-47.630629 7.314286-92.745143-14.628572-132.885943-19.514514-35.108571-56.085943-62.698057-99.971657-75.220114-2.428343 0-2.428343 0-4.856686-2.516115-14.628571-7.519086-24.400457-20.041143-31.714742-37.595428v-2.516115C2.428343 448.687543 0 416.065829 0 383.473371c0-32.592457 2.428343-70.217143 9.742629-100.264228 2.4576-20.0704 14.628571-37.624686 36.571428-42.627657h2.4576c43.885714-10.0352 75.5712-35.108571 99.9424-77.736229 21.942857-37.595429 29.257143-85.255314 14.628572-127.853714-7.314286-17.554286-2.428343-40.1408 14.628571-55.178972a445.674057 445.674057 0 0 1 168.228571-102.8096c2.4576 0 4.885943-2.486857 9.771886-2.486857h7.314286c12.170971 0 26.799543 5.002971 38.999771 17.554286 26.8288 32.592457 68.256914 52.662857 114.600229 52.662857 41.428114 0 80.457143-20.0704 114.570971-55.178971 9.771886-10.0352 21.942857-17.554286 34.143086-17.554286 4.885943 0 12.200229 0 17.056914 2.516114 63.400229 27.560229 117.028571 60.152686 163.371886 100.293486 17.056914 10.005943 24.3712 35.108571 17.056914 55.149714-12.200229 47.630629-7.314286 92.745143 14.628572 132.885943 19.514514 35.108571 56.085943 62.6688 99.971657 75.220114 2.428343 0 2.428343 0 4.856686 2.516115 14.628571 7.519086 24.400457 20.041143 31.714742 37.595428v2.516115c7.314286 37.595429 9.742629 70.217143 9.742629 102.780342-2.428343 35.108571-4.885943 70.217143-12.200229 102.8096zM509.571657 210.505143c-95.085714 0-170.686171 77.736229-170.686171 175.542857 0 97.748114 75.600457 175.484343 170.686171 175.484343 95.085714 0 170.656914-77.736229 170.656914-175.5136 0-97.777371-75.5712-175.5136-170.656914-175.5136z"  horiz-adv-x="1024" />

    
    <glyph glyph-name="tengtongmingxian" unicode="&#58929;" d="M0.001024 384c0-282.76736 229.23264-512 512-512s512 229.23264 512 512S794.768384 896 512.001024 896 0.001024 666.76736 0.001024 384zM1010.525184 485.25312C962.561024 719.95392 757.392384 896 510.362624 896 228.639744 896 0.001024 665.3952 0.001024 381.27616a512.75776 512.75776 0 0 1 116.36736-326.32832c86.75328-48.39424 185.7536-75.1616 291.92192-75.1616 300.09344 0 549.15072 218.25536 602.23488 505.4464zM202.097664 316.6208a94.3104 94.3104 0 1 1 188.6208 0 94.3104 94.3104 0 0 1-188.6208 0zM633.263104 316.6208a94.3104 94.3104 0 1 1 188.6208 0 94.3104 94.3104 0 0 1-188.6208 0zM600.699904 91.46368c-78.49984 50.85184-149.87264 16.95744-179.44576-0.94208-8.15104-4.7104-18.35008-3.76832-25.47712 2.82624-8.17152 8.47872-6.12352 21.64736 4.07552 28.2624 37.72416 22.58944 127.44704 62.11584 224.29696 0 10.19904-6.61504 12.24704-18.8416 4.096-27.32032-6.144-7.53664-18.37056-8.47872-27.5456-2.82624zM874.701824 414.86336a112.45568 112.45568 0 0 0-137.91232 78.848c-3.072 11.10016 3.072 22.2208 14.29504 24.24832 11.24352 3.03104 22.46656-3.03104 24.51456-14.15168 10.24-37.39648 49.0496-59.63776 87.8592-49.52064 11.264 3.03104 22.48704-3.03104 24.53504-14.15168 4.096-11.12064-2.048-22.24128-13.29152-25.27232z m-725.4016 0a112.45568 112.45568 0 0 1 137.91232 78.848c3.072 11.10016-3.072 22.2208-14.29504 24.24832-11.24352 3.03104-22.46656-3.03104-24.51456-14.15168-10.24-37.39648-49.0496-59.63776-87.8592-49.52064-11.264 3.03104-22.48704-3.03104-24.53504-14.15168-4.096-11.12064 2.048-22.24128 13.29152-25.27232z"  horiz-adv-x="1024" />

    
    <glyph glyph-name="tongjifenxi" unicode="&#58930;" d="M490.666667 427.605333V873.045333c0 13.781333-8.96 22.954667-22.314667 22.954667C209.664 882.218667 0 657.237333 0 386.304 0 101.546667 218.581333-128 490.666667-128c258.730667 0 468.352 206.634667 490.666666 468.394667 0 13.738667-8.96 22.954667-22.314666 22.954666H548.693333c-31.232 4.565333-57.984 32.128-57.984 64.256zM657.493333 469.333333h319.488c32.426667 0 50.944 27.690667 46.293334 55.381334-46.293333 180.010667-185.173333 323.072-365.738667 369.237333C629.76 903.168 597.333333 880.085333 597.333333 847.786667v-323.072C597.333333 497.066667 625.109333 469.333333 657.493333 469.333333z"  horiz-adv-x="1024" />

    
    <glyph glyph-name="tengtongyanzhong" unicode="&#58931;" d="M0 384c0-282.76736 229.23264-512 512-512s512 229.23264 512 512S794.76736 896 512 896 0 666.76736 0 384zM1013.76 487.424C965.632 720.896 759.808 896 512 896 229.376 896 0 666.624 0 384c0-123.904 44.032-236.544 116.736-324.608C203.776 11.264 303.104-15.36 409.6-15.36c301.056 0 550.912 217.088 604.16 502.784zM324.608 151.552c-39.936-7.168-78.848 18.432-87.04 58.368-19.456 99.328 77.824 222.208 274.432 222.208 186.368 0 295.936-121.856 274.432-222.208-8.192-38.912-47.104-64.512-87.04-57.344-123.904 20.48-250.88 20.48-374.784-1.024zM674.816 237.568a106.8032 106.8032 0 0 1-75.776 31.744c-35.84 0-67.584-17.408-87.04-45.056-13.312 18.432-31.744 32.768-54.272 39.936-37.888 12.288-79.872 2.048-108.544-26.624-23.552-23.552-32.768-55.296-30.72-87.04 2.048 0 4.096 0 6.144 1.024a1096.704 1096.704 0 0 0 374.784 0c2.048 0 4.096-1.024 6.144-1.024 2.048 32.768-7.168 64.512-30.72 87.04zM421.888 90.112c-8.192 0-16.384 5.12-19.456 13.312-4.096 10.24 2.048 22.528 12.288 26.624 41.984 15.36 54.272 15.36 96.256 15.36 43.008 0 45.056 0 96.256-14.336 11.264-3.072 17.408-14.336 14.336-25.6-3.072-11.264-14.336-17.408-25.6-14.336-47.104 13.312-47.104 13.312-84.992 13.312-39.936 0-48.128 0-82.944-12.288-1.024-1.024-4.096-2.048-6.144-2.048zM184.32 432.128c-8.192 0-15.36 4.096-18.432 12.288-5.12 10.24 0 22.528 10.24 26.624l156.672 70.656-145.408 48.128c-10.24 3.072-16.384 15.36-13.312 25.6 3.072 10.24 15.36 16.384 25.6 13.312l195.584-64.512c8.192-3.072 13.312-10.24 14.336-18.432 0-8.192-4.096-16.384-12.288-19.456l-204.8-92.16c-2.048-2.048-5.12-2.048-8.192-2.048z m655.36 0c8.192 0 15.36 4.096 18.432 12.288 5.12 10.24 0 22.528-10.24 26.624l-156.672 70.656 145.408 48.128c10.24 3.072 16.384 15.36 13.312 25.6-3.072 10.24-15.36 16.384-25.6 13.312L628.736 564.224c-8.192-3.072-13.312-10.24-14.336-18.432 0-8.192 4.096-16.384 12.288-19.456l204.8-92.16c2.048-2.048 5.12-2.048 8.192-2.048z"  horiz-adv-x="1024" />

    
    <glyph glyph-name="tuijian" unicode="&#58932;" d="M14.506667 896H1080.888889a113.777778 113.777778 0 0 0 113.777778-113.777778v-902.030222L14.506667 896z"  horiz-adv-x="1194" />

    
    <glyph glyph-name="weizhixingbie" unicode="&#58933;" d="M1024 384A512 512 0 1 0 512 896a512 512 0 0 0 512-512M265.349565 39.624348h499.756522a71.234783 71.234783 0 0 1 34.949565 71.457391 146.476522 146.476522 0 0 1-101.509565 127.332174C644.229565 250.434783 623.304348 255.332174 623.304348 255.332174h-218.824348s-162.281739-22.26087-178.086957-116.201739 38.733913-99.506087 38.733914-99.506087M440.32 303.638261v-58.991304l28.048696-32.055653L512 235.297391l63.666087-1.335652 18.476522 16.473044-4.897392 62.775652-148.925217-9.572174zM430.747826 309.426087l-28.048696-52.313044 56.987827-80.13913L512 232.848696l47.193043-55.874783 64.779131 78.135652-29.829565 54.316522L512 239.304348l-81.252174 70.121739zM345.043478 590.803478l9.794783-91.937391s-13.57913 2.003478-7.346087-29.384348a52.313043 52.313043 0 0 1 24.264348-39.624348s17.363478-152.932174 141.57913-148.48 133.565217 146.476522 133.565218 146.476522a50.086957 50.086957 0 0 1 28.716521 46.747826c2.226087 37.843478 2.226087 40.292174 2.226087 40.292174l-8.236521 96.166957-70.566957 22.260869h-214.372174zM363.52 493.523478a30.497391 30.497391 0 0 0-26.045217 0c-5.787826 3.561739-6.90087 117.537391-1.558261 140.243479s18.253913 105.293913 180.758261 99.060869 168.292174-92.382609 168.737391-101.954783 5.342609-132.006957 0-137.349565a25.154783 25.154783 0 0 0-26.490435 0c-4.897391 4.674783 7.123478 71.012174 3.784348 81.697392a44.521739 44.521739 0 0 1-23.373913 29.384347c-14.469565 7.346087-44.521739-14.914783-131.784348-12.911304s-109.078261 24.709565-126.886956 15.137391a39.846957 39.846957 0 0 1-22.26087-36.285217c0-11.575652 10.24-72.570435 5.342609-77.022609"  horiz-adv-x="1024" />

    
    <glyph glyph-name="youdiantong" unicode="&#58934;" d="M0 384c0-282.76736 229.23264-512 512-512s512 229.23264 512 512S794.76736 896 512 896 0 666.76736 0 384zM1011.8144 486.11328C963.76832 720.34304 758.35392 896 511.01696 896 228.92544 896 0 665.88672 0 382.3616c0-124.3136 43.95008-237.30176 116.51072-325.65248 86.87616-48.29184 186.01984-74.99776 292.31104-74.99776 300.46208 0 549.84704 217.78432 602.99264 504.40192zM134.10304 469.34016a158.47424 158.47424 0 1 1 316.94848 0 158.47424 158.47424 0 0 1-316.94848 0zM572.94848 469.34016a158.47424 158.47424 0 1 1 316.94848 0 158.47424 158.47424 0 0 1-316.94848 0zM231.6288 469.34016a60.94848 60.94848 0 1 1 121.89696 0 60.94848 60.94848 0 0 1-121.89696 0zM670.47424 469.34016a60.94848 60.94848 0 1 1 121.89696 0 60.94848 60.94848 0 0 1-121.89696 0zM682.10688 176.76288c-6.144 0-12.288 3.05152-16.384 8.13056-6.144 8.13056-15.38048 12.1856-24.61696 12.1856-9.216 0-18.432-4.05504-24.59648-12.1856-8.192-10.15808-25.64096-10.15808-32.80896 0-6.144 8.13056-15.36 12.1856-24.59648 12.1856-9.216 0-18.45248-4.05504-24.61696-12.1856-8.192-10.15808-25.6-10.15808-32.78848 0-6.144 8.13056-15.38048 12.1856-24.61696 12.1856-9.216 0-18.432-4.05504-24.576-12.1856-8.21248-10.15808-25.64096-10.15808-32.82944 0-6.144 8.13056-15.36 12.1856-24.576 12.1856-9.23648 0-18.47296-4.05504-24.61696-12.1856-8.192-10.15808-25.64096-10.15808-32.80896 0-6.144 8.13056-15.36 12.1856-24.59648 12.1856a20.48 20.48 0 0 0-20.50048 20.31616 20.48 20.48 0 0 0 20.48 20.31616c15.40096 0 28.71296-4.05504 41.02144-13.2096 12.288 8.13056 25.62048 13.2096 41.00096 13.2096 15.36 0 28.71296-4.05504 41.00096-13.2096 12.288 8.13056 25.64096 13.2096 41.00096 13.2096 15.38048 0 28.71296-4.05504 41.02144-13.2096 12.288 8.13056 25.62048 13.2096 41.00096 13.2096 15.36 0 28.69248-4.05504 41.00096-13.2096 12.288 8.13056 25.62048 13.2096 41.00096 13.2096 15.36 0 28.71296-4.05504 41.00096-13.2096 12.288 8.13056 25.64096 13.2096 41.00096 13.2096a20.48 20.48 0 0 0 20.52096-20.31616 20.48 20.48 0 0 0-20.52096-20.31616c-9.216 0-18.432-4.05504-24.576-12.1856-4.11648-5.07904-10.26048-8.13056-16.42496-8.13056z"  horiz-adv-x="1024" />

    


  </font>
</defs>
</svg>
