<svg t="1564740927572" class="icon" viewBox="0 0 1024 1024" version="1.1" xmlns="http://www.w3.org/2000/svg" p-id="3553" width="32" height="32"><path d="M352 192l108.8-108.8c25.6-25.6 70.4-25.6 96 0L672 192l76.8 76.8c25.6 25.6 25.6 70.4 0 96-25.6 25.6-70.4 25.6-96 0L576 288V640c0 38.4-25.6 64-64 64s-64-25.6-64-64V288L371.2 364.8c-25.6 25.6-70.4 25.6-96 0s-25.6-70.4 0-96L352 192zM960 576v320c0 38.4-25.6 64-64 64H128c-38.4 0-64-25.6-64-64V576c0-38.4 25.6-64 64-64s64 25.6 64 64v224c0 19.2 12.8 32 32 32h576c19.2 0 32-12.8 32-32V576c0-38.4 25.6-64 64-64s64 25.6 64 64z" fill="#198AFF" p-id="3554"></path></svg>