<?xml version="1.0" encoding="UTF-8"?>
<svg width="28px" height="28px" viewBox="0 0 28 28" version="1.1" xmlns="http://www.w3.org/2000/svg" xmlns:xlink="http://www.w3.org/1999/xlink">
    <!-- Generator: Sketch 52.4 (67378) - http://www.bohemiancoding.com/sketch -->
    <title>形状</title>
    <desc>Created with Sketch.</desc>
    <g id="页面-1" stroke="none" stroke-width="1" fill="none" fill-rule="evenodd">
        <g id="急诊平台主界消息" transform="translate(-1148.000000, -17.000000)" fill="#0071E7" fill-rule="nonzero">
            <g id="个人-(1)" transform="translate(1148.000000, 17.000000)">
                <path d="M14.000281,0 C21.7319389,0 28,6.26837189 28,14 C28,21.7316281 21.7319389,28 14.000281,28 C6.2680611,28 0,21.7316281 0,14 C0,6.26837189 6.2680611,0 14.000281,0 Z M20.1474998,18.3572144 L16.9184816,17.0107044 C16.9184816,17.0107044 16.302467,16.7547609 16.0635927,16.5033075 C15.9095891,16.341659 15.9208302,15.9599888 16.0568481,15.472798 C16.1928659,14.9856072 17.8481241,13.0048511 17.8481241,11.2053883 C17.8481241,8.42705368 16.1411566,6.1740769 14.0351286,6.1740769 C11.9296626,6.1740769 10.2226951,8.42705368 10.2226951,11.2059496 C10.2226951,12.9290783 11.697533,14.9833621 11.8796395,15.3566131 C12.061746,15.7304254 12.0173435,16.299563 11.8740189,16.4718759 C11.6576269,16.7306258 10.8684987,16.9899371 10.8684987,16.9899371 L7.95760483,18.3785431 C7.27751571,18.6400994 6.74468555,19.3259832 6.74468555,20.1005493 L6.74468555,20.4676262 C6.74468555,21.3129134 7.38599273,21.8298521 8.17455889,21.8298521 L19.9305458,21.8298521 C20.7191119,21.8298521 21.3609812,21.3134747 21.3609812,20.4676262 L21.3609812,20.1005493 C21.3609812,19.3259832 20.827589,18.6187708 20.1474998,18.3572144 Z" id="形状"></path>
            </g>
        </g>
    </g>
</svg>