<?xml version="1.0" encoding="UTF-8"?>
<svg width="20px" height="20px" viewBox="0 0 20 20" version="1.1" xmlns="http://www.w3.org/2000/svg" xmlns:xlink="http://www.w3.org/1999/xlink">
    <!-- Generator: Sketch 52.4 (67378) - http://www.bohemiancoding.com/sketch -->
    <title>合并形状 copy 9</title>
    <desc>Created with Sketch.</desc>
    <g id="页面-1" stroke="none" stroke-width="1" fill="none" fill-rule="evenodd">
        <g id="护理交班-交班查询-留观室" transform="translate(-65.000000, -629.000000)" fill="#1989FA">
            <path d="M75,649 C69.4771525,649 65,644.522847 65,639 C65,633.477153 69.4771525,629 75,629 C80.5228475,629 85,633.477153 85,639 C85,644.522847 80.5228475,649 75,649 Z M70.0816233,640.104162 L80.4793037,640.104162 C81.0315884,640.104162 81.4793037,639.656446 81.4793037,639.104162 C81.4793037,638.551877 81.0315884,638.104162 80.4793037,638.104162 L70.0816233,638.104162 C69.5293385,638.104162 69.0816233,638.551877 69.0816233,639.104162 C69.0816233,639.656446 69.5293385,640.104162 70.0816233,640.104162 Z" id="合并形状-copy-9"></path>
        </g>
    </g>
</svg>