<?xml version="1.0" encoding="UTF-8"?>
<svg width="13px" height="13px" viewBox="0 0 13 13" version="1.1" xmlns="http://www.w3.org/2000/svg" xmlns:xlink="http://www.w3.org/1999/xlink">
    <!-- Generator: Sketch 52.4 (67378) - http://www.bohemiancoding.com/sketch -->
    <title>合并形状</title>
    <desc>Created with Sketch.</desc>
    <g id="页面-1" stroke="none" stroke-width="1" fill="none" fill-rule="evenodd">
        <g id="普诊-急门诊" transform="translate(-258.000000, -100.000000)" fill="#0071E7">
            <g id="分组-28" transform="translate(246.000000, 90.000000)">
                <path d="M18.5,23 C14.9101491,23 12,20.0898509 12,16.5 C12,12.9101491 14.9101491,10 18.5,10 C22.0898509,10 25,12.9101491 25,16.5 C25,20.0898509 22.0898509,23 18.5,23 Z M16.6428571,13.7142857 C16.1300213,13.7142857 15.7142857,14.1300213 15.7142857,14.6428571 L15.7142857,18.3571429 C15.7142857,18.8699787 16.1300213,19.2857143 16.6428571,19.2857143 C17.155693,19.2857143 17.5714286,18.8699787 17.5714286,18.3571429 L17.5714286,14.6428571 C17.5714286,14.1300213 17.155693,13.7142857 16.6428571,13.7142857 Z M20.3571429,13.7142857 C19.844307,13.7142857 19.4285714,14.1300213 19.4285714,14.6428571 L19.4285714,18.3571429 C19.4285714,18.8699787 19.844307,19.2857143 20.3571429,19.2857143 C20.8699787,19.2857143 21.2857143,18.8699787 21.2857143,18.3571429 L21.2857143,14.6428571 C21.2857143,14.1300213 20.8699787,13.7142857 20.3571429,13.7142857 Z" id="合并形状"></path>
            </g>
        </g>
    </g>
</svg>