<?xml version="1.0" encoding="UTF-8"?>
<svg width="15px" height="17px" viewBox="0 0 15 17" version="1.1" xmlns="http://www.w3.org/2000/svg" xmlns:xlink="http://www.w3.org/1999/xlink">
    <!-- Generator: Sketch 52.4 (67378) - http://www.bohemiancoding.com/sketch -->
    <title>形状</title>
    <desc>Created with Sketch.</desc>
    <g id="页面-1" stroke="none" stroke-width="1" fill="none" fill-rule="evenodd">
        <g id="急诊平台主界消息" transform="translate(-1160.000000, -76.000000)" fill="#0F80ED" fill-rule="nonzero">
            <g id="Group-77" transform="translate(1148.000000, 60.000000)">
                <g id="个人-(1)-copy" transform="translate(12.000000, 16.000000)">
                    <g id="用户-(1)">
                        <path d="M7.60207431,1.06050493 C8.42349582,1.06050493 9.15875096,1.3305625 9.67242763,1.82088696 C10.2431459,2.36569485 10.5447968,3.17708717 10.5447968,4.16730713 C10.5447968,4.86514588 10.3741935,5.61847556 10.0514333,6.34584937 C9.7543392,7.01539916 9.33017782,7.65149001 8.85710008,8.13698916 C8.75589098,8.24083911 8.67743815,8.36335394 8.62638067,8.49716315 C7.87836115,10.4580898 9.10868169,11.2131163 9.5035811,11.3978032 L9.51005936,11.4008521 C9.56158349,11.4256149 9.61500169,11.4464008 9.66990221,11.4630773 C10.8528711,11.8221642 11.9942528,12.3355017 12.8014001,12.8714543 C13.6876591,13.459955 13.9087161,13.8940197 13.9017986,14.0413238 C13.9010574,14.057364 13.9006731,14.0734041 13.9006731,14.0894707 L13.9006731,14.6186627 C13.9006731,14.6779449 13.9006731,14.788317 13.6679773,14.9633533 C13.4789274,15.105567 13.0969022,15.3145395 12.3504199,15.5024345 C11.1983051,15.7924296 9.57769679,15.9394686 7.53358592,15.9394686 C5.50965098,15.9394686 3.83109519,15.7880815 2.67939218,15.5016656 C1.918773,15.3124981 1.52845779,15.1019083 1.33496092,14.9585545 C1.09798285,14.7829879 1.09798285,14.676089 1.09798285,14.6186627 L1.09798285,14.0894707 C1.09798285,14.0433123 1.14239737,13.9121013 1.30891063,13.713018 C1.51322289,13.4687307 1.83982606,13.1957302 2.25339164,12.9235516 C3.06781333,12.3875724 4.22349662,11.8521235 5.42411598,11.4545402 C5.47031476,11.4392424 5.51541554,11.4209752 5.55911635,11.3998712 C6.43886965,10.9749269 7.09660527,9.91683458 6.58284625,8.51087018 C6.52827514,8.36155108 6.43977551,8.2259125 6.32385307,8.11394969 C5.83913642,7.64576328 5.4265316,7.03729858 5.13070018,6.35433341 C4.82232398,5.64241645 4.65932436,4.88614388 4.65932436,4.16733364 C4.65932436,3.17711368 4.96097524,2.36572136 5.53169354,1.82091347 C6.04537021,1.3305625 6.78062535,1.06050493 7.60207431,1.06050493 Z M7.60207431,0 C5.4104732,0 3.56131406,1.45525137 3.56131406,4.16730713 C3.56131406,5.95330347 4.38314732,7.73929982 5.54744999,8.86383273 C5.95838034,9.98833912 5.20500802,10.3852331 5.06803124,10.4513821 C2.6709924,11.2451435 0,12.7003949 0,14.0894973 C0,14.4863912 0,14.2218218 0,14.6186892 C0,16.536957 3.90378347,17 7.53358592,17 C11.1633884,17 14.9987109,16.536957 14.9987109,14.6186892 C14.9987109,14.2217952 14.9987109,14.4863647 14.9987109,14.0894973 C15.0671718,12.6342724 12.3961794,11.1789945 9.9991406,10.4513821 C9.86216381,10.3852331 9.17730734,10.1206371 9.65672608,8.86383273 C10.7525129,7.73929982 11.6428346,5.95330347 11.6428346,4.16730713 C11.6428071,1.45525137 9.79364797,0 7.60207431,0 Z" id="形状"></path>
                    </g>
                </g>
            </g>
        </g>
    </g>
</svg>