<?xml version="1.0" encoding="UTF-8"?>
<svg width="16px" height="19px" viewBox="0 0 16 19" version="1.1" xmlns="http://www.w3.org/2000/svg" xmlns:xlink="http://www.w3.org/1999/xlink">
    <!-- Generator: Sketch 52.4 (67378) - http://www.bohemiancoding.com/sketch -->
    <title>密码</title>
    <desc>Created with Sketch.</desc>
    <g id="页面-1" stroke="none" stroke-width="1" fill="none" fill-rule="evenodd">
        <g id="急诊平台主界消息" transform="translate(-1154.000000, -350.000000)" fill="#C5C5C5">
            <g id="Group-77-Copy-2" transform="translate(1142.000000, 265.000000)">
                <g id="密码" transform="translate(13.000000, 86.000000)">
                    <g id="密码-(1)">
                        <path d="M11.9799463,6.44685037 L11.2336926,6.44685037 L11.2336926,4.2809827 C11.2336926,1.84042327 9.40496707,-1.67350427e-08 6.97968705,0 C4.57783255,0 2.76636636,1.84045207 2.76636636,4.2809827 L2.76636636,6.44685037 L2.02082081,6.44685037 C0.906455918,6.44685037 0,7.33892208 0,8.43544369 L0,15.0115794 C0,16.1079571 0.906455935,17 2.02082081,17 L11.9798872,17 C13.0937801,17 14,16.1079571 14,15.0115794 L14,8.4354149 C14.000059,7.33892208 13.0938391,6.44685037 11.9799463,6.44685037 Z M3.68067014,4.28092513 C3.68067014,2.41289449 4.9696054,0.892100496 6.97968705,0.892100496 C8.96890995,0.892100496 10.3194479,2.3804796 10.3194479,4.28092513 L10.3194479,6.37283732 L3.68064065,6.37283732 L3.68064065,4.28092513 L3.68067014,4.28092513 Z M13.0858437,15.0115218 C13.0858437,15.6154579 12.5903672,16.1076692 11.9800053,16.1076692 L2.02090933,16.1076692 C1.41098993,16.1076692 0.914333288,15.6154004 0.914333271,15.0115218 L0.914333271,8.4354149 C0.914333271,7.83032728 1.41098993,7.33903724 2.02090933,7.33903724 L11.9799758,7.33903724 C12.5903377,7.33903724 13.0858142,7.83032728 13.0858142,8.4354149 L13.0858437,15.0115218 Z" id="形状" stroke="#C5C5C5" stroke-width="0.1" fill-rule="nonzero"></path>
                        <path d="M6.99941367,9 C6.44723341,9 6.00000314,9.56015493 6.00000314,10.2509602 C5.99910948,10.6953017 6.18925729,11.1070383 6.49982837,11.3332567 L6.49982837,13.3756032 C6.49982837,13.7212027 6.72311029,14 6.99986685,14 C7.27595698,14 7.49969208,13.7212356 7.49969207,13.3756032 L7.49969207,11.3332567 C7.81099654,11.1075731 8.00085017,10.6958277 7.99999714,10.2509602 C7.99903748,9.56015495 7.55135402,9 6.99941367,9 Z" id="路径"></path>
                    </g>
                </g>
            </g>
        </g>
    </g>
</svg>