<?xml version="1.0" encoding="UTF-8"?>
<svg width="22px" height="23px" viewBox="0 0 22 23" version="1.1" xmlns="http://www.w3.org/2000/svg" xmlns:xlink="http://www.w3.org/1999/xlink">
    <!-- Generator: Sketch 52.4 (67378) - http://www.bohemiancoding.com/sketch -->
    <title>分组 17</title>
    <desc>Created with Sketch.</desc>
    <g id="页面-1" stroke="none" stroke-width="1" fill="none" fill-rule="evenodd">
        <g id="首页" transform="translate(-1313.000000, -178.000000)" fill="#8DA1C6">
            <g id="分组-18" transform="translate(1080.000000, 173.000000)">
                <g id="分组-17" transform="translate(233.000000, 5.000000)">
                    <path d="M20.8604749,22.04 C20.6004222,22.04 20.2289182,21.8923722 20.0431662,21.7078375 L15.3622164,17.0206553 C14.8792612,16.540865 14.8792612,15.839633 15.3622164,15.3598427 C15.8451715,14.8800524 16.551029,14.8800524 17.0339842,15.3598427 L21.6777836,19.973211 C22.1607388,20.4530013 22.1607388,21.1542333 21.6777836,21.6340236 C21.4920317,21.9292792 21.1948285,22.04 20.8604749,22.04 Z" id="路径"></path>
                    <path d="M9.68,19.36 C4.33432836,19.36 0,15.0256716 0,9.68 C0,4.33432836 4.33432836,0 9.68,0 C15.0256716,0 19.36,4.33432836 19.36,9.68 C19.36,15.0256716 15.0256716,19.36 9.68,19.36 Z M9.68,2.23940299 C5.63462687,2.23940299 2.31164179,5.63462687 2.31164179,9.68 C2.31164179,13.7253731 5.63462687,17.0483582 9.68,17.0483582 C13.7253731,17.0483582 17.0483582,13.7253731 17.0483582,9.68 C17.0483582,5.59850746 13.7976119,2.23940299 9.68,2.23940299 Z" id="形状" fill-rule="nonzero"></path>
                </g>
            </g>
        </g>
    </g>
</svg>