<?xml version="1.0" encoding="UTF-8"?>
<svg width="13px" height="13px" viewBox="0 0 13 13" version="1.1" xmlns="http://www.w3.org/2000/svg" xmlns:xlink="http://www.w3.org/1999/xlink">
    <!-- Generator: Sketch 52.4 (67378) - http://www.bohemiancoding.com/sketch -->
    <title>合并形状</title>
    <desc>Created with Sketch.</desc>
    <g id="页面-1" stroke="none" stroke-width="1" fill="none" fill-rule="evenodd">
        <g id="普诊-急门诊" transform="translate(-366.000000, -100.000000)" fill="#0071E7">
            <g id="分组-29" transform="translate(354.000000, 90.000000)">
                <path d="M18.5,23 C14.9101491,23 12,20.0898509 12,16.5 C12,12.9101491 14.9101491,10 18.5,10 C22.0898509,10 25,12.9101491 25,16.5 C25,20.0898509 22.0898509,23 18.5,23 Z M17.6428571,14.6428571 C17.0905724,14.6428571 16.6428571,15.0905724 16.6428571,15.6428571 L16.6428571,17.3571429 C16.6428571,17.9094276 17.0905724,18.3571429 17.6428571,18.3571429 L19.3571429,18.3571429 C19.9094276,18.3571429 20.3571429,17.9094276 20.3571429,17.3571429 L20.3571429,15.6428571 C20.3571429,15.0905724 19.9094276,14.6428571 19.3571429,14.6428571 L17.6428571,14.6428571 Z" id="合并形状"></path>
            </g>
        </g>
    </g>
</svg>