<?xml version="1.0" encoding="UTF-8"?>
<svg width="19px" height="19px" viewBox="0 0 19 19" version="1.1" xmlns="http://www.w3.org/2000/svg" xmlns:xlink="http://www.w3.org/1999/xlink">
    <!-- Generator: Sketch 52.4 (67378) - http://www.bohemiancoding.com/sketch -->
    <title>注销 (1)</title>
    <desc>Created with Sketch.</desc>
    <g id="页面-1" stroke="none" stroke-width="1" fill="none" fill-rule="evenodd">
        <g id="急诊平台主界消息" transform="translate(-1158.000000, -181.000000)" fill="#0F80ED" stroke="#0F80ED" stroke-width="0.1">
            <g id="注销-(1)" transform="translate(1159.000000, 182.000000)">
                <path d="M8.5,11 C8.77614401,11 9,10.7802968 9,10.5092756 L9,0.490724417 C9,0.219703203 8.77614401,0 8.5,0 C8.22385599,0 8,0.219703203 8,0.490724417 L8,10.5092913 C8,10.7802968 8.22385599,11 8.5,11 Z" id="路径"></path>
                <path d="M15.8744857,4.95238754 C15.1605975,3.77673463 14.1359793,2.78267824 12.911392,2.07772187 C12.6456922,1.92476283 12.2992346,2.00458017 12.1375999,2.25609346 C11.9759821,2.5075745 12.0603689,2.83545444 12.3260687,2.98841348 C14.5475031,4.26723231 15.8737191,6.49786078 15.8737191,8.95539622 C15.8737191,12.8034464 12.5658885,15.9340597 8.49999149,15.9340597 C4.43411149,15.9340597 1.12628095,12.8034464 1.12628095,8.95539622 C1.12628095,6.49784464 2.45251398,4.26720007 4.67394837,2.98839736 C4.93966521,2.8354222 5.02405195,2.50755838 4.86243421,2.25607734 C4.70081649,2.00461241 4.35439301,1.92471446 4.08865915,2.07770575 C2.86407184,2.78266214 1.83943661,3.77670239 1.12551427,4.95237142 C0.389204644,6.1649338 1.66499299e-08,7.54915988 0,8.95539622 C0,10.04117 0.224809798,11.0947588 0.668193697,12.0868802 C1.09634606,13.0448979 1.7091338,13.9051514 2.48958758,14.6437923 C3.27004136,15.3824332 4.17899196,15.9623908 5.19124092,16.3676048 C6.23952419,16.7872344 7.35275441,17 8.49999149,17 C9.64722857,17 10.7604588,16.7872344 11.808742,16.3676048 C12.820991,15.9623908 13.7299416,15.3824332 14.5104124,14.6437923 C15.2908492,13.9051675 15.9036539,13.0448979 16.3318063,12.0868802 C16.7751902,11.0947588 17,10.04117 17,8.95539622 C17,7.54917602 16.6107954,6.16494993 15.8744857,4.95238754 Z" id="路径"></path>
            </g>
        </g>
    </g>
</svg>